SplineFontDB: 3.0
FontName: Kimono
FullName: KimonoItalic
FamilyName: Kimono
Weight: Book
Copyright: 
Version: 1.0
ItalicAngle: 0
UnderlinePosition: -205
UnderlineWidth: 102
Ascent: 1638
Descent: 410
InvalidEm: 0
sfntRevision: 0x00010000
LayerCount: 2
Layer: 0 1 "Back" 1
Layer: 1 1 "Fore" 0
XUID: [1021 853 -550055878 126]
StyleMap: 0x0001
FSType: 0
OS2Version: 2
OS2_WeightWidthSlopeOnly: 0
OS2_UseTypoMetrics: 0
CreationTime: 1303069801
ModificationTime: 1477079210
PfmFamily: 65
TTFWeight: 400
TTFWidth: 5
LineGap: 0
VLineGap: 0
Panose: 2 0 0 0 0 0 0 0 0 0
OS2TypoAscent: 2068
OS2TypoAOffset: 0
OS2TypoDescent: -746
OS2TypoDOffset: 0
OS2TypoLinegap: 0
OS2WinAscent: 2068
OS2WinAOffset: 0
OS2WinDescent: 746
OS2WinDOffset: 0
HheadAscent: 2068
HheadAOffset: 0
HheadDescent: -746
HheadDOffset: 0
OS2SubXSize: 1434
OS2SubYSize: 1331
OS2SubXOff: 0
OS2SubYOff: 287
OS2SupXSize: 1434
OS2SupYSize: 1331
OS2SupXOff: 0
OS2SupYOff: 977
OS2StrikeYSize: 102
OS2StrikeYPos: 512
OS2CapHeight: 432
OS2XHeight: 299
OS2Vendor: 'newt'
OS2CodePages: 00000093.00000000
OS2UnicodeRanges: 8000006f.4000004b.00000000.00000000
Lookup: 258 0 0 "'kern' Horizontal Kerning in Latin lookup 0" { "'kern' Horizontal Kerning in Latin lookup 0 subtable"  } ['kern' ('latn' <'dflt' > ) ]
MarkAttachClasses: 1
DEI: 91125
TtTable: prep
PUSHW_1
 511
SCANCTRL
PUSHB_1
 4
SCANTYPE
EndTTInstrs
ShortTable: maxp 16
  1
  0
  269
  152
  5
  175
  4
  1
  0
  0
  0
  0
  0
  0
  3
  1
EndShort

StartChar: exclam
Encoding: 33 33 4
Width: 614
VWidth: 2457
Flags: W
LayerCount: 2
Fore
SplineSet
766.799804688 166.799804688 m 0,0,1
 762 129.599609375 762 129.599609375 744 96 c 128,-1,2
 726 62.400390625 726 62.400390625 699.599609375 36.599609375 c 128,-1,3
 673.200195312 10.7998046875 673.200195312 10.7998046875 639.599609375 -4.2001953125 c 128,-1,4
 606 -19.2001953125 606 -19.2001953125 570 -19.2001953125 c 0,5,6
 516 -19.2001953125 516 -19.2001953125 483.599609375 16.2001953125 c 128,-1,7
 451.200195312 51.599609375 451.200195312 51.599609375 451.200195312 103.200195312 c 0,8,9
 451.200195312 142.799804688 451.200195312 142.799804688 468 178.799804688 c 128,-1,10
 484.799804688 214.799804688 484.799804688 214.799804688 513 243 c 128,-1,11
 541.200195312 271.200195312 541.200195312 271.200195312 577.200195312 288 c 128,-1,12
 613.200195312 304.799804688 613.200195312 304.799804688 651.599609375 304.799804688 c 0,13,14
 705.599609375 304.799804688 705.599609375 304.799804688 736.799804688 271.200195312 c 128,-1,15
 768 237.599609375 768 237.599609375 768 186 c 0,16,17
 768 181.200195312 768 181.200195312 768 177 c 128,-1,18
 768 172.799804688 768 172.799804688 766.799804688 166.799804688 c 0,0,1
1332 1440 m 0,19,20
 1266 1314 1266 1314 1212 1213.79980469 c 128,-1,21
 1158 1113.59960938 1158 1113.59960938 1106.40039062 1018.79980469 c 128,-1,22
 1054.79980469 924 1054.79980469 924 1000.79980469 823.799804688 c 128,-1,23
 946.799804688 723.599609375 946.799804688 723.599609375 880.799804688 597.599609375 c 0,24,25
 862.799804688 562.799804688 862.799804688 562.799804688 829.200195312 545.400390625 c 128,-1,26
 795.599609375 528 795.599609375 528 766.799804688 528 c 0,27,28
 742.799804688 528 742.799804688 528 727.799804688 538.200195312 c 128,-1,29
 712.799804688 548.400390625 712.799804688 548.400390625 712.799804688 570 c 0,30,31
 712.799804688 584.400390625 712.799804688 584.400390625 718.799804688 597.599609375 c 0,32,33
 754.799804688 681.599609375 754.799804688 681.599609375 786 753 c 128,-1,34
 817.200195312 824.400390625 817.200195312 824.400390625 845.400390625 890.400390625 c 128,-1,35
 873.599609375 956.400390625 873.599609375 956.400390625 900 1018.79980469 c 128,-1,36
 926.400390625 1081.20019531 926.400390625 1081.20019531 954.599609375 1146.59960938 c 128,-1,37
 982.799804688 1212 982.799804688 1212 1014 1284 c 128,-1,38
 1045.20019531 1356 1045.20019531 1356 1081.20019531 1440 c 0,39,40
 1090.79980469 1461.59960938 1090.79980469 1461.59960938 1108.20019531 1478.40039062 c 128,-1,41
 1125.59960938 1495.20019531 1125.59960938 1495.20019531 1148.40039062 1506.59960938 c 128,-1,42
 1171.20019531 1518 1171.20019531 1518 1196.40039062 1523.40039062 c 128,-1,43
 1221.59960938 1528.79980469 1221.59960938 1528.79980469 1246.79980469 1528.79980469 c 0,44,45
 1285.20019531 1528.79980469 1285.20019531 1528.79980469 1312.20019531 1514.40039062 c 128,-1,46
 1339.20019531 1500 1339.20019531 1500 1339.20019531 1468.79980469 c 0,47,48
 1339.20019531 1455.59960938 1339.20019531 1455.59960938 1332 1440 c 0,19,20
EndSplineSet
EndChar

StartChar: quotedbl
Encoding: 34 34 5
Width: 614
VWidth: 2457
Flags: W
LayerCount: 2
Fore
SplineSet
1270.79980469 1641.59960938 m 0,0,1
 1221.59960938 1556.40039062 1221.59960938 1556.40039062 1166.40039062 1470.59960938 c 128,-1,2
 1111.20019531 1384.79980469 1111.20019531 1384.79980469 1055.40039062 1299.59960938 c 128,-1,3
 999.599609375 1214.40039062 999.599609375 1214.40039062 945 1131.59960938 c 128,-1,4
 890.400390625 1048.79980469 890.400390625 1048.79980469 840 970.799804688 c 0,5,6
 819.599609375 939.599609375 819.599609375 939.599609375 789 922.799804688 c 128,-1,7
 758.400390625 906 758.400390625 906 730.799804688 906 c 0,8,9
 710.400390625 906 710.400390625 906 697.200195312 915 c 128,-1,10
 684 924 684 924 684 942 c 0,11,12
 684 949.200195312 684 949.200195312 687 955.799804688 c 128,-1,13
 690 962.400390625 690 962.400390625 692.400390625 970.799804688 c 0,14,15
 736.799804688 1060.79980469 736.799804688 1060.79980469 781.799804688 1151.40039062 c 128,-1,16
 826.799804688 1242 826.799804688 1242 869.400390625 1327.79980469 c 128,-1,17
 912 1413.59960938 912 1413.59960938 950.400390625 1493.40039062 c 128,-1,18
 988.799804688 1573.20019531 988.799804688 1573.20019531 1021.20019531 1641.59960938 c 0,19,20
 1030.79980469 1660.79980469 1030.79980469 1660.79980469 1047 1675.20019531 c 128,-1,21
 1063.20019531 1689.59960938 1063.20019531 1689.59960938 1083.59960938 1699.20019531 c 128,-1,22
 1104 1708.79980469 1104 1708.79980469 1127.40039062 1713 c 128,-1,23
 1150.79980469 1717.20019531 1150.79980469 1717.20019531 1173.59960938 1717.20019531 c 0,24,25
 1215.59960938 1717.20019531 1215.59960938 1717.20019531 1246.79980469 1703.40039062 c 128,-1,26
 1278 1689.59960938 1278 1689.59960938 1278 1663.20019531 c 0,27,28
 1278 1658.40039062 1278 1658.40039062 1276.79980469 1652.40039062 c 128,-1,29
 1275.59960938 1646.40039062 1275.59960938 1646.40039062 1270.79980469 1641.59960938 c 0,0,1
910.799804688 1641.59960938 m 0,30,31
 865.200195312 1557.59960938 865.200195312 1557.59960938 817.200195312 1471.79980469 c 128,-1,32
 769.200195312 1386 769.200195312 1386 719.400390625 1300.79980469 c 128,-1,33
 669.599609375 1215.59960938 669.599609375 1215.59960938 621 1132.20019531 c 128,-1,34
 572.400390625 1048.79980469 572.400390625 1048.79980469 528 970.799804688 c 0,35,36
 510 939.599609375 510 939.599609375 482.400390625 922.799804688 c 128,-1,37
 454.799804688 906 454.799804688 906 428.400390625 906 c 0,38,39
 408 906 408 906 396 915 c 128,-1,40
 384 924 384 924 384 940.799804688 c 0,41,42
 384 948 384 948 387 955.200195312 c 128,-1,43
 390 962.400390625 390 962.400390625 392.400390625 970.799804688 c 0,44,45
 429.599609375 1060.79980469 429.599609375 1060.79980469 467.400390625 1151.40039062 c 128,-1,46
 505.200195312 1242 505.200195312 1242 541.200195312 1327.79980469 c 128,-1,47
 577.200195312 1413.59960938 577.200195312 1413.59960938 610.200195312 1493.40039062 c 128,-1,48
 643.200195312 1573.20019531 643.200195312 1573.20019531 670.799804688 1641.59960938 c 0,49,50
 688.799804688 1681.20019531 688.799804688 1681.20019531 728.400390625 1699.20019531 c 128,-1,51
 768 1717.20019531 768 1717.20019531 813.599609375 1717.20019531 c 0,52,53
 855.599609375 1717.20019531 855.599609375 1717.20019531 886.799804688 1703.40039062 c 128,-1,54
 918 1689.59960938 918 1689.59960938 918 1663.20019531 c 0,55,56
 918 1658.40039062 918 1658.40039062 916.799804688 1652.40039062 c 128,-1,57
 915.599609375 1646.40039062 915.599609375 1646.40039062 910.799804688 1641.59960938 c 0,30,31
EndSplineSet
EndChar

StartChar: numbersign
Encoding: 35 35 6
Width: 614
VWidth: 2457
Flags: W
LayerCount: 2
Fore
SplineSet
1280.40039062 987.599609375 m 1,0,-1
 970.799804688 987.599609375 l 1,1,2
 932.400390625 910.799804688 932.400390625 910.799804688 892.799804688 835.200195312 c 128,-1,3
 853.200195312 759.599609375 853.200195312 759.599609375 814.799804688 682.799804688 c 1,4,-1
 1124.40039062 682.799804688 l 1,5,6
 1162.79980469 759.599609375 1162.79980469 759.599609375 1202.40039062 835.200195312 c 128,-1,7
 1242 910.799804688 1242 910.799804688 1280.40039062 987.599609375 c 1,0,-1
1747.20019531 1135.20019531 m 2,8,9
 1762.79980469 1135.20019531 1762.79980469 1135.20019531 1769.40039062 1127.40039062 c 128,-1,10
 1776 1119.59960938 1776 1119.59960938 1776 1106.40039062 c 0,11,12
 1776 1089.59960938 1776 1089.59960938 1767 1068.59960938 c 128,-1,13
 1758 1047.59960938 1758 1047.59960938 1744.79980469 1029.59960938 c 128,-1,14
 1731.59960938 1011.59960938 1731.59960938 1011.59960938 1716 999.599609375 c 128,-1,15
 1700.40039062 987.599609375 1700.40039062 987.599609375 1688.40039062 987.599609375 c 2,16,-1
 1426.79980469 987.599609375 l 1,17,18
 1387.20019531 910.799804688 1387.20019531 910.799804688 1347 835.200195312 c 128,-1,19
 1306.79980469 759.599609375 1306.79980469 759.599609375 1267.20019531 682.799804688 c 1,20,-1
 1512 682.799804688 l 2,21,22
 1527.59960938 682.799804688 1527.59960938 682.799804688 1534.20019531 674.400390625 c 128,-1,23
 1540.79980469 666 1540.79980469 666 1540.79980469 652.799804688 c 0,24,25
 1540.79980469 636 1540.79980469 636 1532.40039062 616.799804688 c 128,-1,26
 1524 597.599609375 1524 597.599609375 1512 580.799804688 c 128,-1,27
 1500 564 1500 564 1485.59960938 552.599609375 c 128,-1,28
 1471.20019531 541.200195312 1471.20019531 541.200195312 1459.20019531 541.200195312 c 2,29,-1
 1194 541.200195312 l 1,30,31
 1159.20019531 474 1159.20019531 474 1122.59960938 402 c 128,-1,32
 1086 330 1086 330 1050 259.799804688 c 128,-1,33
 1014 189.599609375 1014 189.599609375 979.200195312 123 c 128,-1,34
 944.400390625 56.400390625 944.400390625 56.400390625 912 0 c 0,35,36
 902.400390625 -18 902.400390625 -18 874.200195312 -27.599609375 c 128,-1,37
 846 -37.2001953125 846 -37.2001953125 818.400390625 -37.2001953125 c 0,38,39
 793.200195312 -37.2001953125 793.200195312 -37.2001953125 778.200195312 -30.599609375 c 128,-1,40
 763.200195312 -24 763.200195312 -24 763.200195312 -9.599609375 c 0,41,42
 763.200195312 -7.2001953125 763.200195312 -7.2001953125 765.599609375 0 c 0,43,44
 796.799804688 60 796.799804688 60 831.599609375 127.200195312 c 128,-1,45
 866.400390625 194.400390625 866.400390625 194.400390625 902.400390625 263.400390625 c 128,-1,46
 938.400390625 332.400390625 938.400390625 332.400390625 975 403.200195312 c 128,-1,47
 1011.59960938 474 1011.59960938 474 1046.40039062 541.200195312 c 1,48,-1
 736.799804688 541.200195312 l 1,49,50
 702 474 702 474 664.799804688 399.599609375 c 128,-1,51
 627.599609375 325.200195312 627.599609375 325.200195312 591 253.200195312 c 128,-1,52
 554.400390625 181.200195312 554.400390625 181.200195312 519.599609375 115.799804688 c 128,-1,53
 484.799804688 50.400390625 484.799804688 50.400390625 456 0 c 0,54,55
 445.200195312 -18 445.200195312 -18 419.400390625 -26.400390625 c 128,-1,56
 393.599609375 -34.7998046875 393.599609375 -34.7998046875 366 -34.7998046875 c 0,57,58
 340.799804688 -34.7998046875 340.799804688 -34.7998046875 325.799804688 -28.7998046875 c 128,-1,59
 310.799804688 -22.7998046875 310.799804688 -22.7998046875 310.799804688 -9.599609375 c 0,60,61
 310.799804688 -7.2001953125 310.799804688 -7.2001953125 313.200195312 0 c 0,62,63
 338.400390625 52.7998046875 338.400390625 52.7998046875 372.599609375 118.799804688 c 128,-1,64
 406.799804688 184.799804688 406.799804688 184.799804688 444.599609375 256.200195312 c 128,-1,65
 482.400390625 327.599609375 482.400390625 327.599609375 520.799804688 400.799804688 c 128,-1,66
 559.200195312 474 559.200195312 474 594 541.200195312 c 1,67,-1
 324 541.200195312 l 2,68,69
 304.799804688 541.200195312 304.799804688 541.200195312 304.799804688 565.200195312 c 0,70,71
 304.799804688 578.400390625 304.799804688 578.400390625 312 598.799804688 c 128,-1,72
 319.200195312 619.200195312 319.200195312 619.200195312 330 637.799804688 c 128,-1,73
 340.799804688 656.400390625 340.799804688 656.400390625 354.599609375 669.599609375 c 128,-1,74
 368.400390625 682.799804688 368.400390625 682.799804688 381.599609375 682.799804688 c 2,75,-1
 667.200195312 682.799804688 l 1,76,77
 708 759.599609375 708 759.599609375 747.599609375 835.200195312 c 128,-1,78
 787.200195312 910.799804688 787.200195312 910.799804688 828 987.599609375 c 1,79,-1
 562.799804688 987.599609375 l 2,80,81
 546 987.599609375 546 987.599609375 539.400390625 996.599609375 c 128,-1,82
 532.799804688 1005.59960938 532.799804688 1005.59960938 532.799804688 1018.79980469 c 0,83,84
 532.799804688 1035.59960938 532.799804688 1035.59960938 541.200195312 1056 c 128,-1,85
 549.599609375 1076.40039062 549.599609375 1076.40039062 562.200195312 1093.79980469 c 128,-1,86
 574.799804688 1111.20019531 574.799804688 1111.20019531 589.200195312 1123.20019531 c 128,-1,87
 603.599609375 1135.20019531 603.599609375 1135.20019531 616.799804688 1135.20019531 c 2,88,-1
 901.200195312 1135.20019531 l 1,89,90
 934.799804688 1198.79980469 934.799804688 1198.79980469 969.599609375 1265.40039062 c 128,-1,91
 1004.40039062 1332 1004.40039062 1332 1038.59960938 1398 c 128,-1,92
 1072.79980469 1464 1072.79980469 1464 1105.20019531 1525.79980469 c 128,-1,93
 1137.59960938 1587.59960938 1137.59960938 1587.59960938 1166.40039062 1641.59960938 c 0,94,95
 1176 1659.59960938 1176 1659.59960938 1203.59960938 1668.59960938 c 128,-1,96
 1231.20019531 1677.59960938 1231.20019531 1677.59960938 1258.79980469 1677.59960938 c 0,97,98
 1284 1677.59960938 1284 1677.59960938 1299.59960938 1670.40039062 c 128,-1,99
 1315.20019531 1663.20019531 1315.20019531 1663.20019531 1315.20019531 1650 c 0,100,101
 1315.20019531 1644 1315.20019531 1644 1314 1641.59960938 c 0,102,103
 1290 1591.20019531 1290 1591.20019531 1258.20019531 1529.40039062 c 128,-1,104
 1226.40039062 1467.59960938 1226.40039062 1467.59960938 1191 1401 c 128,-1,105
 1155.59960938 1334.40039062 1155.59960938 1334.40039062 1119 1266.59960938 c 128,-1,106
 1082.40039062 1198.79980469 1082.40039062 1198.79980469 1048.79980469 1135.20019531 c 1,107,-1
 1358.40039062 1135.20019531 l 1,108,109
 1390.79980469 1198.79980469 1390.79980469 1198.79980469 1426.20019531 1267.79980469 c 128,-1,110
 1461.59960938 1336.79980469 1461.59960938 1336.79980469 1495.79980469 1404 c 128,-1,111
 1530 1471.20019531 1530 1471.20019531 1561.79980469 1532.40039062 c 128,-1,112
 1593.59960938 1593.59960938 1593.59960938 1593.59960938 1618.79980469 1641.59960938 c 0,113,114
 1628.40039062 1659.59960938 1628.40039062 1659.59960938 1655.40039062 1669.20019531 c 128,-1,115
 1682.40039062 1678.79980469 1682.40039062 1678.79980469 1710 1678.79980469 c 0,116,117
 1735.20019531 1678.79980469 1735.20019531 1678.79980469 1750.79980469 1671.59960938 c 128,-1,118
 1766.40039062 1664.40039062 1766.40039062 1664.40039062 1766.40039062 1650 c 0,119,120
 1766.40039062 1645.20019531 1766.40039062 1645.20019531 1765.20019531 1641.59960938 c 0,121,122
 1738.79980469 1590 1738.79980469 1590 1707 1528.20019531 c 128,-1,123
 1675.20019531 1466.40039062 1675.20019531 1466.40039062 1640.40039062 1400.40039062 c 128,-1,124
 1605.59960938 1334.40039062 1605.59960938 1334.40039062 1570.20019531 1266.59960938 c 128,-1,125
 1534.79980469 1198.79980469 1534.79980469 1198.79980469 1501.20019531 1135.20019531 c 1,126,-1
 1747.20019531 1135.20019531 l 2,8,9
EndSplineSet
EndChar

StartChar: dollar
Encoding: 36 36 7
Width: 614
VWidth: 2457
Flags: W
LayerCount: 2
Fore
SplineSet
968.400390625 1130.40039062 m 0,0,1
 966 1123.20019531 966 1123.20019531 966 1116 c 128,-1,2
 966 1108.79980469 966 1108.79980469 966 1101.59960938 c 0,3,4
 966 1063.20019531 966 1063.20019531 988.799804688 1025.40039062 c 128,-1,5
 1011.59960938 987.599609375 1011.59960938 987.599609375 1063.20019531 954 c 1,6,7
 1117.20019531 1062 1117.20019531 1062 1171.20019531 1167.59960938 c 128,-1,8
 1225.20019531 1273.20019531 1225.20019531 1273.20019531 1279.20019531 1381.20019531 c 1,9,10
 1221.59960938 1358.40039062 1221.59960938 1358.40039062 1168.20019531 1329.59960938 c 128,-1,11
 1114.79980469 1300.79980469 1114.79980469 1300.79980469 1072.20019531 1268.40039062 c 128,-1,12
 1029.59960938 1236 1029.59960938 1236 1002 1201.20019531 c 128,-1,13
 974.400390625 1166.40039062 974.400390625 1166.40039062 968.400390625 1130.40039062 c 0,0,1
1240.79980469 469.200195312 m 0,14,15
 1242 472.799804688 1242 472.799804688 1242 477 c 128,-1,16
 1242 481.200195312 1242 481.200195312 1242 484.799804688 c 0,17,18
 1242 508.799804688 1242 508.799804688 1232.40039062 528 c 128,-1,19
 1222.79980469 547.200195312 1222.79980469 547.200195312 1202.40039062 567 c 128,-1,20
 1182 586.799804688 1182 586.799804688 1151.40039062 607.799804688 c 128,-1,21
 1120.79980469 628.799804688 1120.79980469 628.799804688 1077.59960938 656.400390625 c 1,22,23
 1020 543.599609375 1020 543.599609375 962.400390625 430.799804688 c 128,-1,24
 904.799804688 318 904.799804688 318 847.200195312 204 c 1,25,26
 920.400390625 211.200195312 920.400390625 211.200195312 987.599609375 234 c 128,-1,27
 1054.79980469 256.799804688 1054.79980469 256.799804688 1108.20019531 291.599609375 c 128,-1,28
 1161.59960938 326.400390625 1161.59960938 326.400390625 1196.40039062 371.400390625 c 128,-1,29
 1231.20019531 416.400390625 1231.20019531 416.400390625 1240.79980469 469.200195312 c 0,14,15
1705.20019531 1887.59960938 m 1,30,31
 1676.40039062 1830 1676.40039062 1830 1647 1773.59960938 c 128,-1,32
 1617.59960938 1717.20019531 1617.59960938 1717.20019531 1587.59960938 1659.59960938 c 1,33,-1
 1598.40039062 1659.59960938 l 2,34,35
 1650 1659.59960938 1650 1659.59960938 1694.40039062 1649.40039062 c 128,-1,36
 1738.79980469 1639.20019531 1738.79980469 1639.20019531 1770 1617 c 128,-1,37
 1801.20019531 1594.79980469 1801.20019531 1594.79980469 1819.20019531 1560 c 128,-1,38
 1837.20019531 1525.20019531 1837.20019531 1525.20019531 1837.20019531 1477.20019531 c 0,39,40
 1837.20019531 1371.59960938 1837.20019531 1371.59960938 1767.59960938 1276.79980469 c 128,-1,41
 1698 1182 1698 1182 1564.79980469 1101.59960938 c 0,42,43
 1510.79980469 1069.20019531 1510.79980469 1069.20019531 1472.40039062 1069.20019531 c 0,44,45
 1437.59960938 1069.20019531 1437.59960938 1069.20019531 1418.40039062 1091.40039062 c 128,-1,46
 1399.20019531 1113.59960938 1399.20019531 1113.59960938 1399.20019531 1146 c 0,47,48
 1399.20019531 1183.20019531 1399.20019531 1183.20019531 1425 1224 c 128,-1,49
 1450.79980469 1264.79980469 1450.79980469 1264.79980469 1508.40039062 1292.40039062 c 0,50,51
 1528.79980469 1302 1528.79980469 1302 1548.59960938 1315.79980469 c 128,-1,52
 1568.40039062 1329.59960938 1568.40039062 1329.59960938 1583.40039062 1345.79980469 c 128,-1,53
 1598.40039062 1362 1598.40039062 1362 1608 1378.20019531 c 128,-1,54
 1617.59960938 1394.40039062 1617.59960938 1394.40039062 1617.59960938 1410 c 0,55,56
 1617.59960938 1431.59960938 1617.59960938 1431.59960938 1600.79980469 1438.20019531 c 128,-1,57
 1584 1444.79980469 1584 1444.79980469 1560 1444.79980469 c 0,58,59
 1539.59960938 1444.79980469 1539.59960938 1444.79980469 1518.59960938 1442.40039062 c 128,-1,60
 1497.59960938 1440 1497.59960938 1440 1474.79980469 1436.40039062 c 1,61,62
 1329.59960938 1154.40039062 1329.59960938 1154.40039062 1189.20019531 876 c 1,63,-1
 1348.79980469 775.200195312 l 1,64,65
 1442.40039062 723.599609375 1442.40039062 723.599609375 1485.59960938 660.599609375 c 128,-1,66
 1528.79980469 597.599609375 1528.79980469 597.599609375 1528.79980469 529.200195312 c 0,67,68
 1528.79980469 507.599609375 1528.79980469 507.599609375 1525.20019531 488.400390625 c 0,69,70
 1508.40039062 392.400390625 1508.40039062 392.400390625 1441.79980469 300.599609375 c 128,-1,71
 1375.20019531 208.799804688 1375.20019531 208.799804688 1270.79980469 136.799804688 c 128,-1,72
 1166.40039062 64.7998046875 1166.40039062 64.7998046875 1029.59960938 20.400390625 c 128,-1,73
 892.799804688 -24 892.799804688 -24 735.599609375 -24 c 2,74,-1
 729.599609375 -24 l 1,75,-1
 616.799804688 -246 l 2,76,77
 600 -285.599609375 600 -285.599609375 574.200195312 -303 c 128,-1,78
 548.400390625 -320.400390625 548.400390625 -320.400390625 524.400390625 -320.400390625 c 0,79,80
 495.599609375 -320.400390625 495.599609375 -320.400390625 474 -307.799804688 c 128,-1,81
 452.400390625 -295.200195312 452.400390625 -295.200195312 452.400390625 -271.200195312 c 0,82,83
 452.400390625 -259.200195312 452.400390625 -259.200195312 459.599609375 -246 c 2,84,-1
 574.799804688 -14.400390625 l 1,85,86
 486 -3.599609375 486 -3.599609375 422.400390625 18.599609375 c 128,-1,87
 358.799804688 40.7998046875 358.799804688 40.7998046875 318.599609375 72.599609375 c 128,-1,88
 278.400390625 104.400390625 278.400390625 104.400390625 259.799804688 142.799804688 c 128,-1,89
 241.200195312 181.200195312 241.200195312 181.200195312 241.200195312 224.400390625 c 0,90,91
 241.200195312 288 241.200195312 288 279 355.799804688 c 128,-1,92
 316.799804688 423.599609375 316.799804688 423.599609375 383.400390625 484.799804688 c 128,-1,93
 450 546 450 546 540.599609375 594.599609375 c 128,-1,94
 631.200195312 643.200195312 631.200195312 643.200195312 738 668.400390625 c 1,95,-1
 745.200195312 668.400390625 l 2,96,97
 769.200195312 668.400390625 769.200195312 668.400390625 780 647.400390625 c 128,-1,98
 790.799804688 626.400390625 790.799804688 626.400390625 790.799804688 601.200195312 c 128,-1,99
 790.799804688 576 790.799804688 576 786 558.599609375 c 128,-1,100
 781.200195312 541.200195312 781.200195312 541.200195312 768.599609375 527.400390625 c 128,-1,101
 756 513.599609375 756 513.599609375 733.799804688 501.599609375 c 128,-1,102
 711.599609375 489.599609375 711.599609375 489.599609375 676.799804688 476.400390625 c 0,103,104
 597.599609375 445.200195312 597.599609375 445.200195312 551.400390625 400.799804688 c 128,-1,105
 505.200195312 356.400390625 505.200195312 356.400390625 505.200195312 314.400390625 c 0,106,107
 505.200195312 276 505.200195312 276 547.200195312 246.599609375 c 128,-1,108
 589.200195312 217.200195312 589.200195312 217.200195312 686.400390625 206.400390625 c 1,109,110
 752.400390625 338.400390625 752.400390625 338.400390625 818.400390625 469.200195312 c 128,-1,111
 884.400390625 600 884.400390625 600 951.599609375 733.200195312 c 1,112,113
 886.799804688 772.799804688 886.799804688 772.799804688 843 811.200195312 c 128,-1,114
 799.200195312 849.599609375 799.200195312 849.599609375 772.799804688 887.400390625 c 128,-1,115
 746.400390625 925.200195312 746.400390625 925.200195312 735 965.400390625 c 128,-1,116
 723.599609375 1005.59960938 723.599609375 1005.59960938 723.599609375 1048.79980469 c 0,117,118
 723.599609375 1113.59960938 723.599609375 1113.59960938 751.799804688 1176 c 128,-1,119
 780 1238.40039062 780 1238.40039062 829.200195312 1296.59960938 c 128,-1,120
 878.400390625 1354.79980469 878.400390625 1354.79980469 944.400390625 1406.40039062 c 128,-1,121
 1010.40039062 1458 1010.40039062 1458 1086 1501.79980469 c 128,-1,122
 1161.59960938 1545.59960938 1161.59960938 1545.59960938 1242.59960938 1578.59960938 c 128,-1,123
 1323.59960938 1611.59960938 1323.59960938 1611.59960938 1404 1632 c 1,124,-1
 1532.40039062 1887.59960938 l 2,125,126
 1549.20019531 1926 1549.20019531 1926 1577.40039062 1944 c 128,-1,127
 1605.59960938 1962 1605.59960938 1962 1633.20019531 1962 c 0,128,129
 1664.40039062 1962 1664.40039062 1962 1686.59960938 1948.20019531 c 128,-1,130
 1708.79980469 1934.40039062 1708.79980469 1934.40039062 1708.79980469 1908 c 0,131,132
 1708.79980469 1905.59960938 1708.79980469 1905.59960938 1708.20019531 1902.59960938 c 128,-1,133
 1707.59960938 1899.59960938 1707.59960938 1899.59960938 1707.59960938 1897.20019531 c 2,134,-1
 1705.20019531 1887.59960938 l 1,30,31
EndSplineSet
EndChar

StartChar: percent
Encoding: 37 37 8
Width: 614
VWidth: 2457
Flags: W
LayerCount: 2
Fore
SplineSet
1836 512.400390625 m 0,0,1
 1836 566.400390625 1836 566.400390625 1806.59960938 598.200195312 c 128,-1,2
 1777.20019531 630 1777.20019531 630 1722 630 c 0,3,4
 1671.59960938 630 1671.59960938 630 1624.79980469 594.599609375 c 128,-1,5
 1578 559.200195312 1578 559.200195312 1542 504.599609375 c 128,-1,6
 1506 450 1506 450 1483.79980469 382.799804688 c 128,-1,7
 1461.59960938 315.599609375 1461.59960938 315.599609375 1461.59960938 252 c 0,8,9
 1461.59960938 224.400390625 1461.59960938 224.400390625 1467.59960938 198 c 128,-1,10
 1473.59960938 171.599609375 1473.59960938 171.599609375 1486.79980469 150.599609375 c 128,-1,11
 1500 129.599609375 1500 129.599609375 1520.40039062 117 c 128,-1,12
 1540.79980469 104.400390625 1540.79980469 104.400390625 1569.59960938 104.400390625 c 0,13,14
 1623.59960938 104.400390625 1623.59960938 104.400390625 1672.20019531 141 c 128,-1,15
 1720.79980469 177.599609375 1720.79980469 177.599609375 1757.40039062 235.799804688 c 128,-1,16
 1794 294 1794 294 1815 366.599609375 c 128,-1,17
 1836 439.200195312 1836 439.200195312 1836 512.400390625 c 0,0,1
841.200195312 1028.40039062 m 0,18,19
 841.200195312 1104 841.200195312 1104 814.200195312 1140 c 128,-1,20
 787.200195312 1176 787.200195312 1176 738 1176 c 0,21,22
 680.400390625 1176 680.400390625 1176 631.200195312 1141.79980469 c 128,-1,23
 582 1107.59960938 582 1107.59960938 546 1053 c 128,-1,24
 510 998.400390625 510 998.400390625 489 928.799804688 c 128,-1,25
 468 859.200195312 468 859.200195312 468 788.400390625 c 0,26,27
 468 760.799804688 468 760.799804688 475.200195312 733.799804688 c 128,-1,28
 482.400390625 706.799804688 482.400390625 706.799804688 495.599609375 685.200195312 c 128,-1,29
 508.799804688 663.599609375 508.799804688 663.599609375 529.200195312 649.799804688 c 128,-1,30
 549.599609375 636 549.599609375 636 576 636 c 0,31,32
 631.200195312 636 631.200195312 636 679.799804688 671.400390625 c 128,-1,33
 728.400390625 706.799804688 728.400390625 706.799804688 764.400390625 763.200195312 c 128,-1,34
 800.400390625 819.599609375 800.400390625 819.599609375 820.799804688 889.799804688 c 128,-1,35
 841.200195312 960 841.200195312 960 841.200195312 1028.40039062 c 0,18,19
634.799804688 -279.599609375 m 1,36,37
 624 -296.400390625 624 -296.400390625 607.799804688 -303.599609375 c 128,-1,38
 591.599609375 -310.799804688 591.599609375 -310.799804688 572.400390625 -310.799804688 c 0,39,40
 554.400390625 -310.799804688 554.400390625 -310.799804688 535.799804688 -304.200195312 c 128,-1,41
 517.200195312 -297.599609375 517.200195312 -297.599609375 502.200195312 -286.200195312 c 128,-1,42
 487.200195312 -274.799804688 487.200195312 -274.799804688 477.599609375 -259.200195312 c 128,-1,43
 468 -243.599609375 468 -243.599609375 468 -224.400390625 c 0,44,45
 468 -198 468 -198 486 -171.599609375 c 2,46,-1
 1376.40039062 1118.40039062 l 1,47,48
 1329.59960938 1093.20019531 1329.59960938 1093.20019531 1285.79980469 1075.20019531 c 128,-1,49
 1242 1057.20019531 1242 1057.20019531 1195.79980469 1044.59960938 c 128,-1,50
 1149.59960938 1032 1149.59960938 1032 1100.40039062 1023.59960938 c 128,-1,51
 1051.20019531 1015.20019531 1051.20019531 1015.20019531 993.599609375 1009.20019531 c 1,52,53
 993.599609375 900 993.599609375 900 956.400390625 805.200195312 c 128,-1,54
 919.200195312 710.400390625 919.200195312 710.400390625 858.599609375 640.200195312 c 128,-1,55
 798 570 798 570 720 529.200195312 c 128,-1,56
 642 488.400390625 642 488.400390625 561.599609375 488.400390625 c 0,57,58
 496.799804688 488.400390625 496.799804688 488.400390625 450 513 c 128,-1,59
 403.200195312 537.599609375 403.200195312 537.599609375 372 579.599609375 c 128,-1,60
 340.799804688 621.599609375 340.799804688 621.599609375 325.799804688 678 c 128,-1,61
 310.799804688 734.400390625 310.799804688 734.400390625 310.799804688 798 c 0,62,63
 310.799804688 894 310.799804688 894 347.400390625 987.599609375 c 128,-1,64
 384 1081.20019531 384 1081.20019531 447 1155 c 128,-1,65
 510 1228.79980469 510 1228.79980469 595.200195312 1273.79980469 c 128,-1,66
 680.400390625 1318.79980469 680.400390625 1318.79980469 777.599609375 1318.79980469 c 0,67,68
 864 1318.79980469 864 1318.79980469 919.200195312 1268.40039062 c 128,-1,69
 974.400390625 1218 974.400390625 1218 993.599609375 1126.79980469 c 1,70,71
 1074 1147.20019531 1074 1147.20019531 1141.20019531 1174.20019531 c 128,-1,72
 1208.40039062 1201.20019531 1208.40039062 1201.20019531 1270.79980469 1234.20019531 c 128,-1,73
 1333.20019531 1267.20019531 1333.20019531 1267.20019531 1395.59960938 1306.20019531 c 128,-1,74
 1458 1345.20019531 1458 1345.20019531 1530 1390.79980469 c 0,75,76
 1555.20019531 1411.20019531 1555.20019531 1411.20019531 1579.20019531 1420.79980469 c 128,-1,77
 1603.20019531 1430.40039062 1603.20019531 1430.40039062 1623.59960938 1430.40039062 c 0,78,79
 1659.59960938 1430.40039062 1659.59960938 1430.40039062 1683 1405.79980469 c 128,-1,80
 1706.40039062 1381.20019531 1706.40039062 1381.20019531 1706.40039062 1342.79980469 c 0,81,82
 1706.40039062 1309.20019531 1706.40039062 1309.20019531 1687.20019531 1272 c 1,83,-1
 842.400390625 26.400390625 l 1,84,85
 913.200195312 49.2001953125 913.200195312 49.2001953125 981 69 c 128,-1,86
 1048.79980469 88.7998046875 1048.79980469 88.7998046875 1108.20019531 105 c 128,-1,87
 1167.59960938 121.200195312 1167.59960938 121.200195312 1216.20019531 133.200195312 c 128,-1,88
 1264.79980469 145.200195312 1264.79980469 145.200195312 1297.20019531 152.400390625 c 1,89,90
 1290 188.400390625 1290 188.400390625 1290 226.799804688 c 0,91,92
 1290 332.400390625 1290 332.400390625 1324.20019531 432 c 128,-1,93
 1358.40039062 531.599609375 1358.40039062 531.599609375 1417.79980469 608.400390625 c 128,-1,94
 1477.20019531 685.200195312 1477.20019531 685.200195312 1557 731.400390625 c 128,-1,95
 1636.79980469 777.599609375 1636.79980469 777.599609375 1728 777.599609375 c 0,96,97
 1786.79980469 777.599609375 1786.79980469 777.599609375 1837.20019531 759.599609375 c 128,-1,98
 1887.59960938 741.599609375 1887.59960938 741.599609375 1924.20019531 707.400390625 c 128,-1,99
 1960.79980469 673.200195312 1960.79980469 673.200195312 1981.79980469 625.200195312 c 128,-1,100
 2002.79980469 577.200195312 2002.79980469 577.200195312 2002.79980469 517.200195312 c 0,101,102
 2002.79980469 405.599609375 2002.79980469 405.599609375 1967.40039062 303 c 128,-1,103
 1932 200.400390625 1932 200.400390625 1870.79980469 122.400390625 c 128,-1,104
 1809.59960938 44.400390625 1809.59960938 44.400390625 1727.40039062 -1.7998046875 c 128,-1,105
 1645.20019531 -48 1645.20019531 -48 1550.40039062 -48 c 0,106,107
 1480.79980469 -48 1480.79980469 -48 1428 -21.599609375 c 128,-1,108
 1375.20019531 4.7998046875 1375.20019531 4.7998046875 1341.59960938 50.400390625 c 1,109,110
 1149.59960938 -13.2001953125 1149.59960938 -13.2001953125 1015.79980469 -72.599609375 c 128,-1,111
 882 -132 882 -132 796.799804688 -177.599609375 c 0,112,113
 697.200195312 -231.599609375 697.200195312 -231.599609375 634.799804688 -279.599609375 c 1,36,37
EndSplineSet
EndChar

StartChar: ampersand
Encoding: 38 38 9
Width: 614
VWidth: 2457
Flags: W
LayerCount: 2
Fore
SplineSet
574.799804688 433.200195312 m 0,0,1
 427.200195312 312 427.200195312 312 427.200195312 248.400390625 c 0,2,3
 427.200195312 213.599609375 427.200195312 213.599609375 454.799804688 199.799804688 c 128,-1,4
 482.400390625 186 482.400390625 186 518.400390625 186 c 0,5,6
 578.400390625 186 578.400390625 186 640.799804688 217.200195312 c 0,7,8
 661.200195312 226.799804688 661.200195312 226.799804688 706.799804688 256.799804688 c 128,-1,9
 752.400390625 286.799804688 752.400390625 286.799804688 824.400390625 338.400390625 c 1,10,-1
 679.200195312 530.400390625 l 1,11,12
 628.799804688 478.799804688 628.799804688 478.799804688 574.799804688 433.200195312 c 0,0,1
1160.40039062 840 m 0,13,14
 1141.20019531 824.400390625 1141.20019531 824.400390625 1121.40039062 817.799804688 c 128,-1,15
 1101.59960938 811.200195312 1101.59960938 811.200195312 1082.40039062 811.200195312 c 0,16,17
 1060.79980469 811.200195312 1060.79980469 811.200195312 1041 819 c 128,-1,18
 1021.20019531 826.799804688 1021.20019531 826.799804688 1006.20019531 839.400390625 c 128,-1,19
 991.200195312 852 991.200195312 852 982.799804688 867.599609375 c 128,-1,20
 974.400390625 883.200195312 974.400390625 883.200195312 974.400390625 900 c 0,21,22
 974.400390625 914.400390625 974.400390625 914.400390625 993.599609375 937.799804688 c 128,-1,23
 1012.79980469 961.200195312 1012.79980469 961.200195312 1035 989.400390625 c 128,-1,24
 1057.20019531 1017.59960938 1057.20019531 1017.59960938 1076.40039062 1049.40039062 c 128,-1,25
 1095.59960938 1081.20019531 1095.59960938 1081.20019531 1095.59960938 1112.40039062 c 0,26,27
 1095.59960938 1148.40039062 1095.59960938 1148.40039062 1069.79980469 1170.59960938 c 128,-1,28
 1044 1192.79980469 1044 1192.79980469 1006.79980469 1192.79980469 c 0,29,30
 958.799804688 1192.79980469 958.799804688 1192.79980469 903 1166.40039062 c 128,-1,31
 847.200195312 1140 847.200195312 1140 799.799804688 1098.59960938 c 128,-1,32
 752.400390625 1057.20019531 752.400390625 1057.20019531 720.599609375 1006.79980469 c 128,-1,33
 688.799804688 956.400390625 688.799804688 956.400390625 688.799804688 908.400390625 c 0,34,35
 688.799804688 822 688.799804688 822 759.599609375 735.599609375 c 2,36,-1
 962.400390625 487.200195312 l 1,37,38
 991.200195312 523.200195312 991.200195312 523.200195312 1014.59960938 559.799804688 c 128,-1,39
 1038 596.400390625 1038 596.400390625 1054.79980469 625.200195312 c 1,40,-1
 1263.59960938 625.200195312 l 1,41,42
 1231.20019531 547.200195312 1231.20019531 547.200195312 1184.40039062 471 c 128,-1,43
 1137.59960938 394.799804688 1137.59960938 394.799804688 1074 319.200195312 c 1,44,45
 1093.20019531 289.200195312 1093.20019531 289.200195312 1110 264 c 128,-1,46
 1126.79980469 238.799804688 1126.79980469 238.799804688 1144.79980469 211.799804688 c 128,-1,47
 1162.79980469 184.799804688 1162.79980469 184.799804688 1185 153.599609375 c 128,-1,48
 1207.20019531 122.400390625 1207.20019531 122.400390625 1238.40039062 81.599609375 c 0,49,50
 1248 68.400390625 1248 68.400390625 1252.79980469 54 c 128,-1,51
 1257.59960938 39.599609375 1257.59960938 39.599609375 1257.59960938 27.599609375 c 0,52,53
 1257.59960938 -10.7998046875 1257.59960938 -10.7998046875 1230.59960938 -37.7998046875 c 128,-1,54
 1203.59960938 -64.7998046875 1203.59960938 -64.7998046875 1165.20019531 -64.7998046875 c 0,55,56
 1138.79980469 -64.7998046875 1138.79980469 -64.7998046875 1110.59960938 -49.2001953125 c 128,-1,57
 1082.40039062 -33.599609375 1082.40039062 -33.599609375 1054.79980469 2.400390625 c 2,58,-1
 931.200195312 170.400390625 l 1,59,60
 799.200195312 72 799.200195312 72 735.599609375 36 c 0,61,62
 610.799804688 -33.599609375 610.799804688 -33.599609375 507.599609375 -33.599609375 c 0,63,64
 445.200195312 -33.599609375 445.200195312 -33.599609375 390.599609375 -15 c 128,-1,65
 336 3.599609375 336 3.599609375 295.200195312 37.7998046875 c 128,-1,66
 254.400390625 72 254.400390625 72 231 121.200195312 c 128,-1,67
 207.599609375 170.400390625 207.599609375 170.400390625 207.599609375 231.599609375 c 0,68,69
 207.599609375 276 207.599609375 276 238.200195312 335.400390625 c 128,-1,70
 268.799804688 394.799804688 268.799804688 394.799804688 317.400390625 455.400390625 c 128,-1,71
 366 516 366 516 424.799804688 571.200195312 c 128,-1,72
 483.599609375 626.400390625 483.599609375 626.400390625 541.200195312 663.599609375 c 0,73,74
 556.799804688 673.200195312 556.799804688 673.200195312 556.799804688 679.200195312 c 0,75,76
 516 742.799804688 516 742.799804688 497.400390625 802.799804688 c 128,-1,77
 478.799804688 862.799804688 478.799804688 862.799804688 478.799804688 920.400390625 c 0,78,79
 478.799804688 984 478.799804688 984 502.799804688 1042.79980469 c 128,-1,80
 526.799804688 1101.59960938 526.799804688 1101.59960938 568.799804688 1152 c 128,-1,81
 610.799804688 1202.40039062 610.799804688 1202.40039062 666.599609375 1243.79980469 c 128,-1,82
 722.400390625 1285.20019531 722.400390625 1285.20019531 784.799804688 1314.59960938 c 128,-1,83
 847.200195312 1344 847.200195312 1344 913.200195312 1359.59960938 c 128,-1,84
 979.200195312 1375.20019531 979.200195312 1375.20019531 1042.79980469 1375.20019531 c 0,85,86
 1134 1375.20019531 1134 1375.20019531 1208.40039062 1338.59960938 c 128,-1,87
 1282.79980469 1302 1282.79980469 1302 1321.20019531 1220.40039062 c 0,88,89
 1336.79980469 1188 1336.79980469 1188 1336.79980469 1149.59960938 c 0,90,91
 1336.79980469 1106.40039062 1336.79980469 1106.40039062 1318.79980469 1063.20019531 c 128,-1,92
 1300.79980469 1020 1300.79980469 1020 1274.40039062 979.799804688 c 128,-1,93
 1248 939.599609375 1248 939.599609375 1217.40039062 903.599609375 c 128,-1,94
 1186.79980469 867.599609375 1186.79980469 867.599609375 1160.40039062 840 c 0,13,14
EndSplineSet
EndChar

StartChar: quotesingle
Encoding: 39 39 10
Width: 614
VWidth: 2457
Flags: W
LayerCount: 2
Fore
SplineSet
1029.59960938 1641.59960938 m 0,0,1
 985.200195312 1557.59960938 985.200195312 1557.59960938 936.599609375 1471.79980469 c 128,-1,2
 888 1386 888 1386 837.599609375 1300.79980469 c 128,-1,3
 787.200195312 1215.59960938 787.200195312 1215.59960938 738.599609375 1132.20019531 c 128,-1,4
 690 1048.79980469 690 1048.79980469 645.599609375 970.799804688 c 0,5,6
 627.599609375 939.599609375 627.599609375 939.599609375 598.200195312 922.799804688 c 128,-1,7
 568.799804688 906 568.799804688 906 541.200195312 906 c 0,8,9
 519.599609375 906 519.599609375 906 505.799804688 916.200195312 c 128,-1,10
 492 926.400390625 492 926.400390625 492 946.799804688 c 0,11,12
 492 952.799804688 492 952.799804688 493.200195312 958.799804688 c 128,-1,13
 494.400390625 964.799804688 494.400390625 964.799804688 498 970.799804688 c 0,14,15
 536.400390625 1060.79980469 536.400390625 1060.79980469 574.799804688 1151.40039062 c 128,-1,16
 613.200195312 1242 613.200195312 1242 649.200195312 1327.79980469 c 128,-1,17
 685.200195312 1413.59960938 685.200195312 1413.59960938 718.799804688 1493.40039062 c 128,-1,18
 752.400390625 1573.20019531 752.400390625 1573.20019531 780 1641.59960938 c 0,19,20
 788.400390625 1660.79980469 788.400390625 1660.79980469 803.400390625 1675.20019531 c 128,-1,21
 818.400390625 1689.59960938 818.400390625 1689.59960938 838.200195312 1699.20019531 c 128,-1,22
 858 1708.79980469 858 1708.79980469 880.799804688 1713 c 128,-1,23
 903.599609375 1717.20019531 903.599609375 1717.20019531 926.400390625 1717.20019531 c 0,24,25
 969.599609375 1717.20019531 969.599609375 1717.20019531 1002.59960938 1702.79980469 c 128,-1,26
 1035.59960938 1688.40039062 1035.59960938 1688.40039062 1035.59960938 1662 c 0,27,28
 1035.59960938 1657.20019531 1035.59960938 1657.20019531 1034.40039062 1651.20019531 c 128,-1,29
 1033.20019531 1645.20019531 1033.20019531 1645.20019531 1029.59960938 1641.59960938 c 0,0,1
EndSplineSet
EndChar

StartChar: parenleft
Encoding: 40 40 11
Width: 614
VWidth: 2457
Flags: W
LayerCount: 2
Fore
SplineSet
1114.79980469 1842 m 0,0,1
 1155.59960938 1892.40039062 1155.59960938 1892.40039062 1192.79980469 1911.59960938 c 128,-1,2
 1230 1930.79980469 1230 1930.79980469 1261.20019531 1930.79980469 c 0,3,4
 1282.79980469 1930.79980469 1282.79980469 1930.79980469 1300.20019531 1923.59960938 c 128,-1,5
 1317.59960938 1916.40039062 1317.59960938 1916.40039062 1330.20019531 1906.20019531 c 128,-1,6
 1342.79980469 1896 1342.79980469 1896 1350 1883.40039062 c 128,-1,7
 1357.20019531 1870.79980469 1357.20019531 1870.79980469 1357.20019531 1860 c 128,-1,8
 1357.20019531 1849.20019531 1357.20019531 1849.20019531 1350 1842 c 0,9,10
 1195.20019531 1663.20019531 1195.20019531 1663.20019531 1072.79980469 1474.79980469 c 128,-1,11
 950.400390625 1286.40039062 950.400390625 1286.40039062 865.200195312 1089 c 128,-1,12
 780 891.599609375 780 891.599609375 734.400390625 684 c 128,-1,13
 688.799804688 476.400390625 688.799804688 476.400390625 688.799804688 259.200195312 c 0,14,15
 688.799804688 192 688.799804688 192 690.599609375 141.599609375 c 128,-1,16
 692.400390625 91.2001953125 692.400390625 91.2001953125 696.599609375 46.7998046875 c 128,-1,17
 700.799804688 2.400390625 700.799804688 2.400390625 709.799804688 -41.400390625 c 128,-1,18
 718.799804688 -85.2001953125 718.799804688 -85.2001953125 733.200195312 -138 c 0,19,20
 734.400390625 -142.799804688 734.400390625 -142.799804688 734.400390625 -152.400390625 c 0,21,22
 734.400390625 -170.400390625 734.400390625 -170.400390625 726 -185.400390625 c 128,-1,23
 717.599609375 -200.400390625 717.599609375 -200.400390625 703.799804688 -211.799804688 c 128,-1,24
 690 -223.200195312 690 -223.200195312 672 -229.200195312 c 128,-1,25
 654 -235.200195312 654 -235.200195312 634.799804688 -235.200195312 c 0,26,27
 602.400390625 -235.200195312 602.400390625 -235.200195312 570.599609375 -213.599609375 c 128,-1,28
 538.799804688 -192 538.799804688 -192 526.799804688 -138 c 0,29,30
 516 -91.2001953125 516 -91.2001953125 507 -36 c 128,-1,31
 498 19.2001953125 498 19.2001953125 491.400390625 77.400390625 c 128,-1,32
 484.799804688 135.599609375 484.799804688 135.599609375 481.200195312 195 c 128,-1,33
 477.599609375 254.400390625 477.599609375 254.400390625 477.599609375 308.400390625 c 0,34,35
 477.599609375 501.599609375 477.599609375 501.599609375 516.599609375 691.200195312 c 128,-1,36
 555.599609375 880.799804688 555.599609375 880.799804688 634.200195312 1069.79980469 c 128,-1,37
 712.799804688 1258.79980469 712.799804688 1258.79980469 832.799804688 1450.79980469 c 128,-1,38
 952.799804688 1642.79980469 952.799804688 1642.79980469 1114.79980469 1842 c 0,0,1
EndSplineSet
EndChar

StartChar: parenright
Encoding: 41 41 12
Width: 614
VWidth: 2457
Flags: W
LayerCount: 2
Fore
SplineSet
432 -138 m 0,0,1
 372 -206.400390625 372 -206.400390625 324.599609375 -233.400390625 c 128,-1,2
 277.200195312 -260.400390625 277.200195312 -260.400390625 243.599609375 -260.400390625 c 0,3,4
 208.799804688 -260.400390625 208.799804688 -260.400390625 190.799804688 -240 c 128,-1,5
 172.799804688 -219.599609375 172.799804688 -219.599609375 172.799804688 -193.200195312 c 0,6,7
 172.799804688 -178.799804688 172.799804688 -178.799804688 178.200195312 -164.400390625 c 128,-1,8
 183.599609375 -150 183.599609375 -150 196.799804688 -138 c 0,9,10
 349.200195312 37.2001953125 349.200195312 37.2001953125 471.599609375 225 c 128,-1,11
 594 412.799804688 594 412.799804688 679.200195312 610.799804688 c 128,-1,12
 764.400390625 808.799804688 764.400390625 808.799804688 810.599609375 1015.20019531 c 128,-1,13
 856.799804688 1221.59960938 856.799804688 1221.59960938 856.799804688 1435.20019531 c 0,14,15
 856.799804688 1636.79980469 856.799804688 1636.79980469 813.599609375 1842 c 0,16,17
 810 1854 810 1854 810 1864.79980469 c 0,18,19
 810 1904.40039062 810 1904.40039062 838.799804688 1929 c 128,-1,20
 867.599609375 1953.59960938 867.599609375 1953.59960938 904.799804688 1953.59960938 c 0,21,22
 939.599609375 1953.59960938 939.599609375 1953.59960938 973.200195312 1927.79980469 c 128,-1,23
 1006.79980469 1902 1006.79980469 1902 1020 1842 c 0,24,25
 1068 1606.79980469 1068 1606.79980469 1068 1387.20019531 c 0,26,27
 1068 1189.20019531 1068 1189.20019531 1028.40039062 1001.40039062 c 128,-1,28
 988.799804688 813.599609375 988.799804688 813.599609375 909.599609375 627 c 128,-1,29
 830.400390625 440.400390625 830.400390625 440.400390625 711 250.799804688 c 128,-1,30
 591.599609375 61.2001953125 591.599609375 61.2001953125 432 -138 c 0,0,1
EndSplineSet
EndChar

StartChar: asterisk
Encoding: 42 42 13
Width: 614
VWidth: 2457
Flags: W
LayerCount: 2
Fore
SplineSet
1159.20019531 1263.59960938 m 1,0,-1
 817.200195312 1194 l 1,1,-1
 913.200195312 949.200195312 l 1,2,-1
 733.200195312 865.200195312 l 1,3,-1
 684 1140 l 1,4,-1
 404.400390625 865.200195312 l 1,5,-1
 318 987.599609375 l 1,6,-1
 627.599609375 1209.59960938 l 1,7,-1
 358.799804688 1292.40039062 l 1,8,-1
 494.400390625 1460.40039062 l 1,9,-1
 721.200195312 1327.20019531 l 1,10,-1
 838.799804688 1641.59960938 l 1,11,-1
 1024.79980469 1641.59960938 l 1,12,-1
 837.599609375 1312.79980469 l 1,13,-1
 1177.20019531 1430.40039062 l 1,14,-1
 1159.20019531 1263.59960938 l 1,0,-1
EndSplineSet
EndChar

StartChar: plus
Encoding: 43 43 14
Width: 614
VWidth: 2457
Flags: W
LayerCount: 2
Fore
SplineSet
1471.20019531 768 m 1,0,-1
 1010.40039062 768 l 1,1,-1
 789.599609375 307.200195312 l 1,2,-1
 636 307.200195312 l 1,3,-1
 856.799804688 768 l 1,4,-1
 396 768 l 1,5,-1
 468 921.599609375 l 1,6,-1
 928.799804688 921.599609375 l 1,7,-1
 1149.59960938 1382.40039062 l 1,8,-1
 1303.20019531 1382.40039062 l 1,9,-1
 1082.40039062 921.599609375 l 1,10,-1
 1543.20019531 921.599609375 l 1,11,-1
 1471.20019531 768 l 1,0,-1
EndSplineSet
EndChar

StartChar: comma
Encoding: 44 44 15
Width: 614
VWidth: 2457
Flags: W
LayerCount: 2
Fore
SplineSet
722.400390625 279.599609375 m 0,0,1
 626.400390625 138 626.400390625 138 533.400390625 2.400390625 c 128,-1,2
 440.400390625 -133.200195312 440.400390625 -133.200195312 345.599609375 -274.799804688 c 0,3,4
 325.200195312 -303.599609375 325.200195312 -303.599609375 302.400390625 -316.799804688 c 128,-1,5
 279.599609375 -330 279.599609375 -330 259.200195312 -330 c 0,6,7
 241.200195312 -330 241.200195312 -330 229.200195312 -321 c 128,-1,8
 217.200195312 -312 217.200195312 -312 217.200195312 -295.200195312 c 0,9,10
 217.200195312 -283.200195312 217.200195312 -283.200195312 222 -274.799804688 c 0,11,12
 273.599609375 -133.200195312 273.599609375 -133.200195312 322.200195312 2.400390625 c 128,-1,13
 370.799804688 138 370.799804688 138 422.400390625 279.599609375 c 0,14,15
 432 306 432 306 451.799804688 325.200195312 c 128,-1,16
 471.599609375 344.400390625 471.599609375 344.400390625 496.200195312 357 c 128,-1,17
 520.799804688 369.599609375 520.799804688 369.599609375 549 375.599609375 c 128,-1,18
 577.200195312 381.599609375 577.200195312 381.599609375 604.799804688 381.599609375 c 0,19,20
 655.200195312 381.599609375 655.200195312 381.599609375 693 363 c 128,-1,21
 730.799804688 344.400390625 730.799804688 344.400390625 730.799804688 310.799804688 c 0,22,23
 730.799804688 295.200195312 730.799804688 295.200195312 722.400390625 279.599609375 c 0,0,1
EndSplineSet
EndChar

StartChar: hyphen
Encoding: 45 45 16
Width: 614
VWidth: 2457
Flags: W
LayerCount: 2
Fore
SplineSet
1153.20019531 516 m 2,0,1
 1173.59960938 516 1173.59960938 516 1185.59960938 498.599609375 c 128,-1,2
 1197.59960938 481.200195312 1197.59960938 481.200195312 1197.59960938 458.400390625 c 0,3,4
 1197.59960938 428.400390625 1197.59960938 428.400390625 1174.79980469 401.400390625 c 128,-1,5
 1152 374.400390625 1152 374.400390625 1099.20019531 374.400390625 c 2,6,-1
 558 374.400390625 l 2,7,8
 537.599609375 374.400390625 537.599609375 374.400390625 527.400390625 388.799804688 c 128,-1,9
 517.200195312 403.200195312 517.200195312 403.200195312 517.200195312 423.599609375 c 0,10,11
 517.200195312 439.200195312 517.200195312 439.200195312 523.799804688 455.400390625 c 128,-1,12
 530.400390625 471.599609375 530.400390625 471.599609375 544.200195312 484.799804688 c 128,-1,13
 558 498 558 498 579.599609375 507 c 128,-1,14
 601.200195312 516 601.200195312 516 632.400390625 516 c 2,15,-1
 1153.20019531 516 l 2,0,1
EndSplineSet
EndChar

StartChar: period
Encoding: 46 46 17
Width: 614
VWidth: 2457
Flags: W
LayerCount: 2
Fore
SplineSet
696 166.799804688 m 0,0,1
 696 129.599609375 696 129.599609375 682.200195312 96 c 128,-1,2
 668.400390625 62.400390625 668.400390625 62.400390625 645 36.599609375 c 128,-1,3
 621.599609375 10.7998046875 621.599609375 10.7998046875 590.400390625 -4.2001953125 c 128,-1,4
 559.200195312 -19.2001953125 559.200195312 -19.2001953125 524.400390625 -19.2001953125 c 0,5,6
 495.599609375 -19.2001953125 495.599609375 -19.2001953125 470.400390625 -7.7998046875 c 128,-1,7
 445.200195312 3.599609375 445.200195312 3.599609375 426.599609375 22.7998046875 c 128,-1,8
 408 42 408 42 397.200195312 67.7998046875 c 128,-1,9
 386.400390625 93.599609375 386.400390625 93.599609375 386.400390625 122.400390625 c 0,10,11
 386.400390625 158.400390625 386.400390625 158.400390625 400.200195312 191.400390625 c 128,-1,12
 414 224.400390625 414 224.400390625 438 249.599609375 c 128,-1,13
 462 274.799804688 462 274.799804688 494.400390625 289.799804688 c 128,-1,14
 526.799804688 304.799804688 526.799804688 304.799804688 564 304.799804688 c 0,15,16
 622.799804688 304.799804688 622.799804688 304.799804688 659.400390625 265.200195312 c 128,-1,17
 696 225.599609375 696 225.599609375 696 166.799804688 c 0,0,1
EndSplineSet
EndChar

StartChar: slash
Encoding: 47 47 18
Width: 614
VWidth: 2457
Flags: W
LayerCount: 2
Fore
SplineSet
1492.79980469 1771.20019531 m 0,0,1
 1208.40039062 1286.40039062 1208.40039062 1286.40039062 924.599609375 801.599609375 c 128,-1,2
 640.799804688 316.799804688 640.799804688 316.799804688 356.400390625 -168 c 0,3,4
 339.599609375 -198 339.599609375 -198 315.599609375 -210 c 128,-1,5
 291.599609375 -222 291.599609375 -222 265.200195312 -222 c 0,6,7
 230.400390625 -222 230.400390625 -222 201.599609375 -204 c 128,-1,8
 172.799804688 -186 172.799804688 -186 172.799804688 -157.200195312 c 0,9,10
 172.799804688 -151.200195312 172.799804688 -151.200195312 174 -143.400390625 c 128,-1,11
 175.200195312 -135.599609375 175.200195312 -135.599609375 178.799804688 -130.799804688 c 0,12,13
 460.799804688 357.599609375 460.799804688 357.599609375 739.200195312 840.599609375 c 128,-1,14
 1017.59960938 1323.59960938 1017.59960938 1323.59960938 1299.59960938 1812 c 0,15,16
 1316.40039062 1839.59960938 1316.40039062 1839.59960938 1342.20019531 1852.20019531 c 128,-1,17
 1368 1864.79980469 1368 1864.79980469 1396.79980469 1864.79980469 c 0,18,19
 1442.40039062 1864.79980469 1442.40039062 1864.79980469 1468.20019531 1843.20019531 c 128,-1,20
 1494 1821.59960938 1494 1821.59960938 1494 1789.20019531 c 0,21,22
 1494 1777.20019531 1494 1777.20019531 1492.79980469 1771.20019531 c 0,0,1
EndSplineSet
EndChar

StartChar: zero
Encoding: 48 48 19
Width: 614
VWidth: 2457
Flags: W
LayerCount: 2
Fore
SplineSet
922.799804688 721.200195312 m 0,0,1
 922.799804688 806.400390625 922.799804688 806.400390625 891.599609375 843.599609375 c 128,-1,2
 860.400390625 880.799804688 860.400390625 880.799804688 811.200195312 880.799804688 c 0,3,4
 733.200195312 880.799804688 733.200195312 880.799804688 660.599609375 837 c 128,-1,5
 588 793.200195312 588 793.200195312 531.599609375 720.599609375 c 128,-1,6
 475.200195312 648 475.200195312 648 441 554.400390625 c 128,-1,7
 406.799804688 460.799804688 406.799804688 460.799804688 406.799804688 362.400390625 c 0,8,9
 406.799804688 324 406.799804688 324 412.799804688 286.799804688 c 128,-1,10
 418.799804688 249.599609375 418.799804688 249.599609375 433.799804688 219.599609375 c 128,-1,11
 448.799804688 189.599609375 448.799804688 189.599609375 474.599609375 171.599609375 c 128,-1,12
 500.400390625 153.599609375 500.400390625 153.599609375 541.200195312 153.599609375 c 0,13,14
 603.599609375 153.599609375 603.599609375 153.599609375 656.400390625 181.799804688 c 128,-1,15
 709.200195312 210 709.200195312 210 751.799804688 256.799804688 c 128,-1,16
 794.400390625 303.599609375 794.400390625 303.599609375 826.200195312 363.599609375 c 128,-1,17
 858 423.599609375 858 423.599609375 879.599609375 486.599609375 c 128,-1,18
 901.200195312 549.599609375 901.200195312 549.599609375 912 610.799804688 c 128,-1,19
 922.799804688 672 922.799804688 672 922.799804688 721.200195312 c 0,0,1
1148.40039062 721.200195312 m 0,20,21
 1148.40039062 643.200195312 1148.40039062 643.200195312 1127.40039062 558 c 128,-1,22
 1106.40039062 472.799804688 1106.40039062 472.799804688 1066.79980469 388.799804688 c 128,-1,23
 1027.20019531 304.799804688 1027.20019531 304.799804688 970.799804688 229.200195312 c 128,-1,24
 914.400390625 153.599609375 914.400390625 153.599609375 843 96 c 128,-1,25
 771.599609375 38.400390625 771.599609375 38.400390625 687 4.2001953125 c 128,-1,26
 602.400390625 -30 602.400390625 -30 507.599609375 -30 c 0,27,28
 433.200195312 -30 433.200195312 -30 373.799804688 -2.400390625 c 128,-1,29
 314.400390625 25.2001953125 314.400390625 25.2001953125 272.400390625 75 c 128,-1,30
 230.400390625 124.799804688 230.400390625 124.799804688 207.599609375 195.599609375 c 128,-1,31
 184.799804688 266.400390625 184.799804688 266.400390625 184.799804688 352.799804688 c 0,32,33
 184.799804688 428.400390625 184.799804688 428.400390625 206.400390625 512.400390625 c 128,-1,34
 228 596.400390625 228 596.400390625 268.200195312 677.400390625 c 128,-1,35
 308.400390625 758.400390625 308.400390625 758.400390625 365.400390625 832.799804688 c 128,-1,36
 422.400390625 907.200195312 422.400390625 907.200195312 493.200195312 963 c 128,-1,37
 564 1018.79980469 564 1018.79980469 647.400390625 1052.40039062 c 128,-1,38
 730.799804688 1086 730.799804688 1086 823.200195312 1086 c 0,39,40
 895.200195312 1086 895.200195312 1086 955.200195312 1059 c 128,-1,41
 1015.20019531 1032 1015.20019531 1032 1058.40039062 984 c 128,-1,42
 1101.59960938 936 1101.59960938 936 1125 868.799804688 c 128,-1,43
 1148.40039062 801.599609375 1148.40039062 801.599609375 1148.40039062 721.200195312 c 0,20,21
EndSplineSet
EndChar

StartChar: one
Encoding: 49 49 20
Width: 614
VWidth: 2457
Flags: W
LayerCount: 2
Fore
SplineSet
309.599609375 116.400390625 m 0,0,1
 343.200195312 170.400390625 343.200195312 170.400390625 370.799804688 220.200195312 c 128,-1,2
 398.400390625 270 398.400390625 270 423 316.799804688 c 128,-1,3
 447.599609375 363.599609375 447.599609375 363.599609375 471 408.599609375 c 128,-1,4
 494.400390625 453.599609375 494.400390625 453.599609375 519.599609375 499.200195312 c 2,5,-1
 684 798 l 1,6,7
 668.400390625 792 668.400390625 792 631.799804688 777.599609375 c 128,-1,8
 595.200195312 763.200195312 595.200195312 763.200195312 553.799804688 747 c 128,-1,9
 512.400390625 730.799804688 512.400390625 730.799804688 475.799804688 716.400390625 c 128,-1,10
 439.200195312 702 439.200195312 702 424.799804688 697.200195312 c 0,11,12
 421.200195312 694.799804688 421.200195312 694.799804688 415.799804688 694.200195312 c 128,-1,13
 410.400390625 693.599609375 410.400390625 693.599609375 408 693.599609375 c 0,14,15
 388.799804688 693.599609375 388.799804688 693.599609375 373.799804688 709.799804688 c 128,-1,16
 358.799804688 726 358.799804688 726 358.799804688 752.400390625 c 0,17,18
 358.799804688 775.200195312 358.799804688 775.200195312 373.200195312 802.799804688 c 128,-1,19
 387.599609375 830.400390625 387.599609375 830.400390625 424.799804688 860.400390625 c 0,20,21
 505.200195312 914.400390625 505.200195312 914.400390625 585.599609375 957.599609375 c 0,22,23
 619.200195312 975.599609375 619.200195312 975.599609375 656.400390625 993 c 128,-1,24
 693.599609375 1010.40039062 693.599609375 1010.40039062 730.200195312 1024.20019531 c 128,-1,25
 766.799804688 1038 766.799804688 1038 802.200195312 1046.40039062 c 128,-1,26
 837.599609375 1054.79980469 837.599609375 1054.79980469 867.599609375 1054.79980469 c 0,27,28
 902.400390625 1054.79980469 902.400390625 1054.79980469 928.200195312 1036.20019531 c 128,-1,29
 954 1017.59960938 954 1017.59960938 954 972 c 0,30,31
 954 957.599609375 954 957.599609375 951.599609375 939 c 128,-1,32
 949.200195312 920.400390625 949.200195312 920.400390625 939.599609375 900 c 0,33,34
 921.599609375 862.799804688 921.599609375 862.799804688 895.799804688 804.599609375 c 128,-1,35
 870 746.400390625 870 746.400390625 840 677.400390625 c 128,-1,36
 810 608.400390625 810 608.400390625 777 531.599609375 c 128,-1,37
 744 454.799804688 744 454.799804688 711 380.400390625 c 128,-1,38
 678 306 678 306 646.799804688 238.200195312 c 128,-1,39
 615.599609375 170.400390625 615.599609375 170.400390625 590.400390625 118.799804688 c 0,40,41
 572.400390625 82.7998046875 572.400390625 82.7998046875 547.799804688 55.2001953125 c 128,-1,42
 523.200195312 27.599609375 523.200195312 27.599609375 496.200195312 9 c 128,-1,43
 469.200195312 -9.599609375 469.200195312 -9.599609375 440.400390625 -19.2001953125 c 128,-1,44
 411.599609375 -28.7998046875 411.599609375 -28.7998046875 386.400390625 -28.7998046875 c 0,45,46
 348 -28.7998046875 348 -28.7998046875 321 -9 c 128,-1,47
 294 10.7998046875 294 10.7998046875 294 50.400390625 c 0,48,49
 294 63.599609375 294 63.599609375 296.400390625 81.599609375 c 128,-1,50
 298.799804688 99.599609375 298.799804688 99.599609375 309.599609375 116.400390625 c 0,0,1
EndSplineSet
EndChar

StartChar: two
Encoding: 50 50 21
Width: 614
VWidth: 2457
Flags: W
LayerCount: 2
Fore
SplineSet
1030.79980469 200.400390625 m 0,0,1
 1035.59960938 201.599609375 1035.59960938 201.599609375 1039.20019531 202.200195312 c 128,-1,2
 1042.79980469 202.799804688 1042.79980469 202.799804688 1046.40039062 202.799804688 c 0,3,4
 1071.59960938 202.799804688 1071.59960938 202.799804688 1088.40039062 183.599609375 c 128,-1,5
 1105.20019531 164.400390625 1105.20019531 164.400390625 1105.20019531 136.799804688 c 0,6,7
 1105.20019531 97.2001953125 1105.20019531 97.2001953125 1077 66 c 128,-1,8
 1048.79980469 34.7998046875 1048.79980469 34.7998046875 1005.59960938 13.7998046875 c 128,-1,9
 962.400390625 -7.2001953125 962.400390625 -7.2001953125 910.799804688 -18 c 128,-1,10
 859.200195312 -28.7998046875 859.200195312 -28.7998046875 812.400390625 -28.7998046875 c 0,11,12
 774 -28.7998046875 774 -28.7998046875 736.799804688 -24.599609375 c 128,-1,13
 699.599609375 -20.400390625 699.599609375 -20.400390625 655.200195312 -7.2001953125 c 128,-1,14
 610.799804688 6 610.799804688 6 555.599609375 31.2001953125 c 128,-1,15
 500.400390625 56.400390625 500.400390625 56.400390625 424.799804688 98.400390625 c 1,16,17
 354 54 354 54 313.799804688 28.7998046875 c 128,-1,18
 273.599609375 3.599609375 273.599609375 3.599609375 252 -8.400390625 c 128,-1,19
 230.400390625 -20.400390625 230.400390625 -20.400390625 222 -22.7998046875 c 128,-1,20
 213.599609375 -25.2001953125 213.599609375 -25.2001953125 207.599609375 -25.2001953125 c 0,21,22
 193.200195312 -25.2001953125 193.200195312 -25.2001953125 178.200195312 -16.2001953125 c 128,-1,23
 163.200195312 -7.2001953125 163.200195312 -7.2001953125 150 7.2001953125 c 128,-1,24
 136.799804688 21.599609375 136.799804688 21.599609375 128.400390625 40.2001953125 c 128,-1,25
 120 58.7998046875 120 58.7998046875 120 79.2001953125 c 0,26,27
 120 96 120 96 127.799804688 112.799804688 c 128,-1,28
 135.599609375 129.599609375 135.599609375 129.599609375 154.799804688 142.799804688 c 0,29,30
 234 186 234 186 315.599609375 234.599609375 c 128,-1,31
 397.200195312 283.200195312 397.200195312 283.200195312 472.799804688 336.599609375 c 128,-1,32
 548.400390625 390 548.400390625 390 614.400390625 446.400390625 c 128,-1,33
 680.400390625 502.799804688 680.400390625 502.799804688 729.599609375 559.799804688 c 128,-1,34
 778.799804688 616.799804688 778.799804688 616.799804688 807 673.799804688 c 128,-1,35
 835.200195312 730.799804688 835.200195312 730.799804688 835.200195312 786 c 0,36,37
 835.200195312 840 835.200195312 840 808.799804688 862.200195312 c 128,-1,38
 782.400390625 884.400390625 782.400390625 884.400390625 739.200195312 884.400390625 c 0,39,40
 704.400390625 884.400390625 704.400390625 884.400390625 664.200195312 872.400390625 c 128,-1,41
 624 860.400390625 624 860.400390625 583.200195312 841.799804688 c 128,-1,42
 542.400390625 823.200195312 542.400390625 823.200195312 502.200195312 802.200195312 c 128,-1,43
 462 781.200195312 462 781.200195312 427.799804688 762.599609375 c 128,-1,44
 393.599609375 744 393.599609375 744 367.200195312 732 c 128,-1,45
 340.799804688 720 340.799804688 720 326.400390625 720 c 0,46,47
 307.200195312 720 307.200195312 720 290.400390625 728.400390625 c 128,-1,48
 273.599609375 736.799804688 273.599609375 736.799804688 261.599609375 750.599609375 c 128,-1,49
 249.599609375 764.400390625 249.599609375 764.400390625 243 781.200195312 c 128,-1,50
 236.400390625 798 236.400390625 798 236.400390625 816 c 0,51,52
 236.400390625 846 236.400390625 846 264 877.799804688 c 128,-1,53
 291.599609375 909.599609375 291.599609375 909.599609375 337.200195312 939.599609375 c 128,-1,54
 382.799804688 969.599609375 382.799804688 969.599609375 441.599609375 996 c 128,-1,55
 500.400390625 1022.40039062 500.400390625 1022.40039062 562.200195312 1042.79980469 c 128,-1,56
 624 1063.20019531 624 1063.20019531 684.599609375 1074.59960938 c 128,-1,57
 745.200195312 1086 745.200195312 1086 795.599609375 1086 c 0,58,59
 854.400390625 1086 854.400390625 1086 906.599609375 1071 c 128,-1,60
 958.799804688 1056 958.799804688 1056 997.200195312 1023 c 128,-1,61
 1035.59960938 990 1035.59960938 990 1057.79980469 936 c 128,-1,62
 1080 882 1080 882 1080 804 c 0,63,64
 1080 738 1080 738 1059 672 c 128,-1,65
 1038 606 1038 606 982.799804688 535.799804688 c 128,-1,66
 927.599609375 465.599609375 927.599609375 465.599609375 833.400390625 391.200195312 c 128,-1,67
 739.200195312 316.799804688 739.200195312 316.799804688 592.799804688 234 c 1,68,69
 644.400390625 211.200195312 644.400390625 211.200195312 703.200195312 195.599609375 c 128,-1,70
 762 180 762 180 808.799804688 180 c 0,71,72
 843.599609375 180 843.599609375 180 871.200195312 181.200195312 c 128,-1,73
 898.799804688 182.400390625 898.799804688 182.400390625 924 185.400390625 c 128,-1,74
 949.200195312 188.400390625 949.200195312 188.400390625 974.400390625 192 c 128,-1,75
 999.599609375 195.599609375 999.599609375 195.599609375 1030.79980469 200.400390625 c 0,0,1
EndSplineSet
EndChar

StartChar: three
Encoding: 51 51 22
Width: 614
VWidth: 2457
Flags: W
LayerCount: 2
Fore
SplineSet
662.400390625 285.599609375 m 0,0,1
 662.400390625 314.400390625 662.400390625 314.400390625 657 341.400390625 c 128,-1,2
 651.599609375 368.400390625 651.599609375 368.400390625 633.599609375 388.200195312 c 128,-1,3
 615.599609375 408 615.599609375 408 582 420 c 128,-1,4
 548.400390625 432 548.400390625 432 492 432 c 0,5,6
 472.799804688 432 472.799804688 432 451.799804688 429 c 128,-1,7
 430.799804688 426 430.799804688 426 406.799804688 426 c 0,8,9
 373.200195312 426 373.200195312 426 357.599609375 446.400390625 c 128,-1,10
 342 466.799804688 342 466.799804688 342 490.799804688 c 0,11,12
 342 522 342 522 372.599609375 546.599609375 c 128,-1,13
 403.200195312 571.200195312 403.200195312 571.200195312 460.799804688 580.799804688 c 0,14,15
 543.599609375 594 543.599609375 594 603.599609375 624 c 128,-1,16
 663.599609375 654 663.599609375 654 702.599609375 688.200195312 c 128,-1,17
 741.599609375 722.400390625 741.599609375 722.400390625 760.200195312 754.200195312 c 128,-1,18
 778.799804688 786 778.799804688 786 778.799804688 804 c 0,19,20
 778.799804688 838.799804688 778.799804688 838.799804688 754.200195312 861 c 128,-1,21
 729.599609375 883.200195312 729.599609375 883.200195312 694.799804688 883.200195312 c 0,22,23
 634.799804688 883.200195312 634.799804688 883.200195312 588 873.599609375 c 128,-1,24
 541.200195312 864 541.200195312 864 501.599609375 853.200195312 c 128,-1,25
 462 842.400390625 462 842.400390625 428.400390625 832.799804688 c 128,-1,26
 394.799804688 823.200195312 394.799804688 823.200195312 362.400390625 823.200195312 c 0,27,28
 327.599609375 823.200195312 327.599609375 823.200195312 301.200195312 845.400390625 c 128,-1,29
 274.799804688 867.599609375 274.799804688 867.599609375 274.799804688 900 c 0,30,31
 274.799804688 926.400390625 274.799804688 926.400390625 297.599609375 956.400390625 c 1,32,33
 331.200195312 981.599609375 331.200195312 981.599609375 378.599609375 1004.40039062 c 128,-1,34
 426 1027.20019531 426 1027.20019531 480 1044.59960938 c 128,-1,35
 534 1062 534 1062 592.200195312 1072.79980469 c 128,-1,36
 650.400390625 1083.59960938 650.400390625 1083.59960938 706.799804688 1083.59960938 c 128,-1,37
 763.200195312 1083.59960938 763.200195312 1083.59960938 813.599609375 1071 c 128,-1,38
 864 1058.40039062 864 1058.40039062 901.799804688 1029.59960938 c 128,-1,39
 939.599609375 1000.79980469 939.599609375 1000.79980469 961.799804688 954.599609375 c 128,-1,40
 984 908.400390625 984 908.400390625 984 840 c 0,41,42
 984 746.400390625 984 746.400390625 906 663 c 128,-1,43
 828 579.599609375 828 579.599609375 681.599609375 529.200195312 c 1,44,45
 742.799804688 514.799804688 742.799804688 514.799804688 782.400390625 489.599609375 c 128,-1,46
 822 464.400390625 822 464.400390625 845.400390625 433.799804688 c 128,-1,47
 868.799804688 403.200195312 868.799804688 403.200195312 877.799804688 369 c 128,-1,48
 886.799804688 334.799804688 886.799804688 334.799804688 886.799804688 303.599609375 c 0,49,50
 886.799804688 208.799804688 886.799804688 208.799804688 858 131.400390625 c 128,-1,51
 829.200195312 54 829.200195312 54 780 -7.7998046875 c 128,-1,52
 730.799804688 -69.599609375 730.799804688 -69.599609375 664.200195312 -117.599609375 c 128,-1,53
 597.599609375 -165.599609375 597.599609375 -165.599609375 520.799804688 -201.599609375 c 128,-1,54
 444 -237.599609375 444 -237.599609375 361.200195312 -262.799804688 c 128,-1,55
 278.400390625 -288 278.400390625 -288 198 -304.799804688 c 0,56,57
 178.799804688 -308.400390625 178.799804688 -308.400390625 164.400390625 -310.799804688 c 128,-1,58
 150 -313.200195312 150 -313.200195312 136.799804688 -313.200195312 c 0,59,60
 91.2001953125 -313.200195312 91.2001953125 -313.200195312 69 -294 c 128,-1,61
 46.7998046875 -274.799804688 46.7998046875 -274.799804688 46.7998046875 -248.400390625 c 0,62,63
 46.7998046875 -220.799804688 46.7998046875 -220.799804688 70.7998046875 -192.599609375 c 128,-1,64
 94.7998046875 -164.400390625 94.7998046875 -164.400390625 141.599609375 -151.200195312 c 0,65,66
 192 -140.400390625 192 -140.400390625 250.200195312 -120.599609375 c 128,-1,67
 308.400390625 -100.799804688 308.400390625 -100.799804688 366 -71.400390625 c 128,-1,68
 423.599609375 -42 423.599609375 -42 476.400390625 -4.7998046875 c 128,-1,69
 529.200195312 32.400390625 529.200195312 32.400390625 570 77.400390625 c 128,-1,70
 610.799804688 122.400390625 610.799804688 122.400390625 636 174.599609375 c 128,-1,71
 661.200195312 226.799804688 661.200195312 226.799804688 662.400390625 285.599609375 c 0,0,1
EndSplineSet
EndChar

StartChar: four
Encoding: 52 52 23
Width: 614
VWidth: 2457
Flags: W
LayerCount: 2
Fore
SplineSet
1179.59960938 867.599609375 m 0,0,1
 1154.40039062 812.400390625 1154.40039062 812.400390625 1126.79980469 754.200195312 c 128,-1,2
 1099.20019531 696 1099.20019531 696 1072.20019531 638.400390625 c 128,-1,3
 1045.20019531 580.799804688 1045.20019531 580.799804688 1019.40039062 525.599609375 c 128,-1,4
 993.599609375 470.400390625 993.599609375 470.400390625 970.799804688 421.200195312 c 0,5,6
 915.599609375 304.799804688 915.599609375 304.799804688 864 195.599609375 c 1,7,-1
 1078.79980469 195.599609375 l 2,8,9
 1102.79980469 195.599609375 1102.79980469 195.599609375 1116 177 c 128,-1,10
 1129.20019531 158.400390625 1129.20019531 158.400390625 1129.20019531 133.200195312 c 0,11,12
 1129.20019531 110.400390625 1129.20019531 110.400390625 1121.40039062 87 c 128,-1,13
 1113.59960938 63.599609375 1113.59960938 63.599609375 1098 44.400390625 c 128,-1,14
 1082.40039062 25.2001953125 1082.40039062 25.2001953125 1057.79980469 12.599609375 c 128,-1,15
 1033.20019531 0 1033.20019531 0 1000.79980469 0 c 2,16,-1
 781.200195312 0 l 1,17,-1
 596.400390625 -409.200195312 l 2,18,19
 574.799804688 -451.200195312 574.799804688 -451.200195312 544.200195312 -469.200195312 c 128,-1,20
 513.599609375 -487.200195312 513.599609375 -487.200195312 482.400390625 -487.200195312 c 0,21,22
 442.799804688 -487.200195312 442.799804688 -487.200195312 414.599609375 -463.200195312 c 128,-1,23
 386.400390625 -439.200195312 386.400390625 -439.200195312 386.400390625 -402 c 0,24,25
 386.400390625 -393.599609375 386.400390625 -393.599609375 388.799804688 -385.200195312 c 128,-1,26
 391.200195312 -376.799804688 391.200195312 -376.799804688 394.799804688 -367.200195312 c 2,27,-1
 553.200195312 0 l 1,28,-1
 232.799804688 0 l 2,29,30
 214.799804688 0 214.799804688 0 199.200195312 1.7998046875 c 128,-1,31
 183.599609375 3.599609375 183.599609375 3.599609375 171 9.599609375 c 128,-1,32
 158.400390625 15.599609375 158.400390625 15.599609375 151.200195312 25.7998046875 c 128,-1,33
 144 36 144 36 144 54 c 0,34,35
 144 74.400390625 144 74.400390625 153 102 c 128,-1,36
 162 129.599609375 162 129.599609375 184.799804688 171.599609375 c 0,37,38
 210 218.400390625 210 218.400390625 243 283.799804688 c 128,-1,39
 276 349.200195312 276 349.200195312 312 423 c 128,-1,40
 348 496.799804688 348 496.799804688 384.599609375 574.799804688 c 128,-1,41
 421.200195312 652.799804688 421.200195312 652.799804688 454.799804688 725.400390625 c 128,-1,42
 488.400390625 798 488.400390625 798 514.799804688 861 c 128,-1,43
 541.200195312 924 541.200195312 924 558 967.200195312 c 0,44,45
 576 1017.59960938 576 1017.59960938 613.200195312 1038.59960938 c 128,-1,46
 650.400390625 1059.59960938 650.400390625 1059.59960938 688.799804688 1059.59960938 c 0,47,48
 729.599609375 1059.59960938 729.599609375 1059.59960938 761.400390625 1039.79980469 c 128,-1,49
 793.200195312 1020 793.200195312 1020 794.400390625 990 c 0,50,51
 793.200195312 984 793.200195312 984 792.599609375 978.599609375 c 128,-1,52
 792 973.200195312 792 973.200195312 789.599609375 967.200195312 c 0,53,54
 748.799804688 867.599609375 748.799804688 867.599609375 703.200195312 766.200195312 c 128,-1,55
 657.599609375 664.799804688 657.599609375 664.799804688 611.400390625 566.400390625 c 128,-1,56
 565.200195312 468 565.200195312 468 519.599609375 375.599609375 c 128,-1,57
 474 283.200195312 474 283.200195312 434.400390625 200.400390625 c 1,58,59
 465.599609375 201.599609375 465.599609375 201.599609375 491.400390625 201.599609375 c 128,-1,60
 517.200195312 201.599609375 517.200195312 201.599609375 537.599609375 201.599609375 c 0,61,62
 595.200195312 201.599609375 595.200195312 201.599609375 628.799804688 201.599609375 c 2,63,-1
 662.400390625 200.400390625 l 1,64,-1
 676.799804688 235.200195312 l 2,65,66
 691.200195312 268.799804688 691.200195312 268.799804688 718.200195312 325.799804688 c 128,-1,67
 745.200195312 382.799804688 745.200195312 382.799804688 779.400390625 457.200195312 c 128,-1,68
 813.599609375 531.599609375 813.599609375 531.599609375 851.400390625 611.400390625 c 128,-1,69
 889.200195312 691.200195312 889.200195312 691.200195312 927 771.599609375 c 128,-1,70
 964.799804688 852 964.799804688 852 998.400390625 921.599609375 c 0,71,72
 1029.59960938 993.599609375 1029.59960938 993.599609375 1068.59960938 1026.59960938 c 128,-1,73
 1107.59960938 1059.59960938 1107.59960938 1059.59960938 1138.79980469 1059.59960938 c 0,74,75
 1166.40039062 1059.59960938 1166.40039062 1059.59960938 1185.59960938 1036.79980469 c 128,-1,76
 1204.79980469 1014 1204.79980469 1014 1204.79980469 972 c 0,77,78
 1204.79980469 949.200195312 1204.79980469 949.200195312 1198.79980469 922.799804688 c 128,-1,79
 1192.79980469 896.400390625 1192.79980469 896.400390625 1179.59960938 867.599609375 c 0,0,1
EndSplineSet
EndChar

StartChar: five
Encoding: 53 53 24
Width: 614
VWidth: 2457
Flags: W
LayerCount: 2
Fore
SplineSet
1015.20019531 322.799804688 m 0,0,1
 1015.20019531 228 1015.20019531 228 986.400390625 149.400390625 c 128,-1,2
 957.599609375 70.7998046875 957.599609375 70.7998046875 908.400390625 6.599609375 c 128,-1,3
 859.200195312 -57.599609375 859.200195312 -57.599609375 792.599609375 -108 c 128,-1,4
 726 -158.400390625 726 -158.400390625 649.200195312 -196.799804688 c 128,-1,5
 572.400390625 -235.200195312 572.400390625 -235.200195312 489.599609375 -261.599609375 c 128,-1,6
 406.799804688 -288 406.799804688 -288 326.400390625 -304.799804688 c 0,7,8
 307.200195312 -308.400390625 307.200195312 -308.400390625 292.799804688 -310.799804688 c 128,-1,9
 278.400390625 -313.200195312 278.400390625 -313.200195312 265.200195312 -313.200195312 c 0,10,11
 219.599609375 -313.200195312 219.599609375 -313.200195312 197.400390625 -294 c 128,-1,12
 175.200195312 -274.799804688 175.200195312 -274.799804688 175.200195312 -248.400390625 c 0,13,14
 175.200195312 -220.799804688 175.200195312 -220.799804688 199.200195312 -192.599609375 c 128,-1,15
 223.200195312 -164.400390625 223.200195312 -164.400390625 270 -151.200195312 c 0,16,17
 319.200195312 -140.400390625 319.200195312 -140.400390625 376.200195312 -119.400390625 c 128,-1,18
 433.200195312 -98.400390625 433.200195312 -98.400390625 489 -69 c 128,-1,19
 544.799804688 -39.599609375 544.799804688 -39.599609375 597 -0.599609375 c 128,-1,20
 649.200195312 38.400390625 649.200195312 38.400390625 688.799804688 84.599609375 c 128,-1,21
 728.400390625 130.799804688 728.400390625 130.799804688 753 184.200195312 c 128,-1,22
 777.599609375 237.599609375 777.599609375 237.599609375 778.799804688 297.599609375 c 0,23,24
 778.799804688 334.799804688 778.799804688 334.799804688 765 361.799804688 c 128,-1,25
 751.200195312 388.799804688 751.200195312 388.799804688 727.200195312 405.599609375 c 128,-1,26
 703.200195312 422.400390625 703.200195312 422.400390625 670.799804688 430.799804688 c 128,-1,27
 638.400390625 439.200195312 638.400390625 439.200195312 600 439.200195312 c 0,28,29
 558 439.200195312 558 439.200195312 512.400390625 430.200195312 c 128,-1,30
 466.799804688 421.200195312 466.799804688 421.200195312 421.200195312 405.599609375 c 0,31,32
 399.599609375 398.400390625 399.599609375 398.400390625 383.400390625 388.200195312 c 128,-1,33
 367.200195312 378 367.200195312 378 353.400390625 369 c 128,-1,34
 339.599609375 360 339.599609375 360 328.200195312 354 c 128,-1,35
 316.799804688 348 316.799804688 348 304.799804688 348 c 0,36,37
 266.400390625 348 266.400390625 348 244.200195312 375.599609375 c 128,-1,38
 222 403.200195312 222 403.200195312 222 441.599609375 c 0,39,40
 222 469.200195312 222 469.200195312 234 494.400390625 c 2,41,-1
 436.799804688 946.799804688 l 2,42,43
 450 975.599609375 450 975.599609375 463.200195312 996.599609375 c 128,-1,44
 476.400390625 1017.59960938 476.400390625 1017.59960938 493.799804688 1030.20019531 c 128,-1,45
 511.200195312 1042.79980469 511.200195312 1042.79980469 532.799804688 1048.79980469 c 128,-1,46
 554.400390625 1054.79980469 554.400390625 1054.79980469 583.200195312 1054.79980469 c 2,47,-1
 1148.40039062 1054.79980469 l 2,48,49
 1182 1054.79980469 1182 1054.79980469 1200.59960938 1027.79980469 c 128,-1,50
 1219.20019531 1000.79980469 1219.20019531 1000.79980469 1219.20019531 966 c 0,51,52
 1219.20019531 944.400390625 1219.20019531 944.400390625 1211.40039062 922.799804688 c 128,-1,53
 1203.59960938 901.200195312 1203.59960938 901.200195312 1187.40039062 883.200195312 c 128,-1,54
 1171.20019531 865.200195312 1171.20019531 865.200195312 1145.40039062 854.400390625 c 128,-1,55
 1119.59960938 843.599609375 1119.59960938 843.599609375 1084.79980469 843.599609375 c 2,56,-1
 622.799804688 843.599609375 l 1,57,58
 592.799804688 783.599609375 592.799804688 783.599609375 564 728.400390625 c 0,59,60
 540 681.599609375 540 681.599609375 514.799804688 631.799804688 c 128,-1,61
 489.599609375 582 489.599609375 582 472.799804688 549.599609375 c 1,62,63
 537.599609375 590.400390625 537.599609375 590.400390625 600 609 c 128,-1,64
 662.400390625 627.599609375 662.400390625 627.599609375 718.799804688 627.599609375 c 0,65,66
 783.599609375 627.599609375 783.599609375 627.599609375 838.200195312 605.400390625 c 128,-1,67
 892.799804688 583.200195312 892.799804688 583.200195312 931.799804688 542.400390625 c 128,-1,68
 970.799804688 501.599609375 970.799804688 501.599609375 993 445.799804688 c 128,-1,69
 1015.20019531 390 1015.20019531 390 1015.20019531 322.799804688 c 0,0,1
EndSplineSet
EndChar

StartChar: six
Encoding: 54 54 25
Width: 614
VWidth: 2457
Flags: W
LayerCount: 2
Fore
SplineSet
427.200195312 336 m 0,0,1
 427.200195312 266.400390625 427.200195312 266.400390625 472.799804688 222 c 128,-1,2
 518.400390625 177.599609375 518.400390625 177.599609375 594 177.599609375 c 0,3,4
 657.599609375 177.599609375 657.599609375 177.599609375 720 216 c 128,-1,5
 782.400390625 254.400390625 782.400390625 254.400390625 832.200195312 313.200195312 c 128,-1,6
 882 372 882 372 912.599609375 442.200195312 c 128,-1,7
 943.200195312 512.400390625 943.200195312 512.400390625 943.200195312 576 c 0,8,9
 943.200195312 632.400390625 943.200195312 632.400390625 907.799804688 657 c 128,-1,10
 872.400390625 681.599609375 872.400390625 681.599609375 814.799804688 681.599609375 c 0,11,12
 780 681.599609375 780 681.599609375 739.200195312 673.200195312 c 128,-1,13
 698.400390625 664.799804688 698.400390625 664.799804688 655.200195312 649.200195312 c 128,-1,14
 612 633.599609375 612 633.599609375 568.799804688 612 c 128,-1,15
 525.599609375 590.400390625 525.599609375 590.400390625 484.799804688 564 c 1,16,17
 427.200195312 438 427.200195312 438 427.200195312 336 c 0,0,1
205.200195312 360 m 0,18,19
 205.200195312 416.400390625 205.200195312 416.400390625 224.400390625 496.200195312 c 128,-1,20
 243.599609375 576 243.599609375 576 285 670.799804688 c 128,-1,21
 326.400390625 765.599609375 326.400390625 765.599609375 390 870 c 128,-1,22
 453.599609375 974.400390625 453.599609375 974.400390625 542.400390625 1080 c 128,-1,23
 631.200195312 1185.59960938 631.200195312 1185.59960938 745.799804688 1288.20019531 c 128,-1,24
 860.400390625 1390.79980469 860.400390625 1390.79980469 1003.20019531 1480.79980469 c 0,25,26
 1020 1492.79980469 1020 1492.79980469 1042.79980469 1492.79980469 c 0,27,28
 1062 1492.79980469 1062 1492.79980469 1080.59960938 1484.40039062 c 128,-1,29
 1099.20019531 1476 1099.20019531 1476 1114.20019531 1461.59960938 c 128,-1,30
 1129.20019531 1447.20019531 1129.20019531 1447.20019531 1138.20019531 1428.59960938 c 128,-1,31
 1147.20019531 1410 1147.20019531 1410 1147.20019531 1390.79980469 c 0,32,33
 1147.20019531 1370.40039062 1147.20019531 1370.40039062 1137 1350.59960938 c 128,-1,34
 1126.79980469 1330.79980469 1126.79980469 1330.79980469 1101.59960938 1314 c 0,35,36
 988.799804688 1238.40039062 988.799804688 1238.40039062 905.400390625 1163.40039062 c 128,-1,37
 822 1088.40039062 822 1088.40039062 762 1020 c 128,-1,38
 702 951.599609375 702 951.599609375 663 893.400390625 c 128,-1,39
 624 835.200195312 624 835.200195312 600 795.599609375 c 1,40,41
 668.400390625 826.799804688 668.400390625 826.799804688 743.400390625 844.200195312 c 128,-1,42
 818.400390625 861.599609375 818.400390625 861.599609375 890.400390625 861.599609375 c 0,43,44
 946.799804688 861.599609375 946.799804688 861.599609375 997.799804688 846.599609375 c 128,-1,45
 1048.79980469 831.599609375 1048.79980469 831.599609375 1086.59960938 798.599609375 c 128,-1,46
 1124.40039062 765.599609375 1124.40039062 765.599609375 1146.59960938 712.799804688 c 128,-1,47
 1168.79980469 660 1168.79980469 660 1168.79980469 585.599609375 c 0,48,49
 1168.79980469 504 1168.79980469 504 1146 426 c 128,-1,50
 1123.20019531 348 1123.20019531 348 1083 280.200195312 c 128,-1,51
 1042.79980469 212.400390625 1042.79980469 212.400390625 987 155.400390625 c 128,-1,52
 931.200195312 98.400390625 931.200195312 98.400390625 864.599609375 57.599609375 c 128,-1,53
 798 16.7998046875 798 16.7998046875 723 -6 c 128,-1,54
 648 -28.7998046875 648 -28.7998046875 568.799804688 -28.7998046875 c 0,55,56
 487.200195312 -28.7998046875 487.200195312 -28.7998046875 420 0.599609375 c 128,-1,57
 352.799804688 30 352.799804688 30 304.799804688 82.2001953125 c 128,-1,58
 256.799804688 134.400390625 256.799804688 134.400390625 231 205.200195312 c 128,-1,59
 205.200195312 276 205.200195312 276 205.200195312 360 c 0,18,19
EndSplineSet
EndChar

StartChar: seven
Encoding: 55 55 26
Width: 614
VWidth: 2457
Flags: W
LayerCount: 2
Fore
SplineSet
986.400390625 1056 m 2,0,1
 1094.40039062 1056 1094.40039062 1056 1141.79980469 1030.79980469 c 128,-1,2
 1189.20019531 1005.59960938 1189.20019531 1005.59960938 1189.20019531 962.400390625 c 0,3,4
 1189.20019531 920.400390625 1189.20019531 920.400390625 1150.79980469 864.599609375 c 128,-1,5
 1112.40039062 808.799804688 1112.40039062 808.799804688 1044 745.200195312 c 0,6,7
 1026 724.799804688 1026 724.799804688 987.599609375 669.599609375 c 128,-1,8
 949.200195312 614.400390625 949.200195312 614.400390625 900 540 c 128,-1,9
 850.799804688 465.599609375 850.799804688 465.599609375 793.799804688 379.799804688 c 128,-1,10
 736.799804688 294 736.799804688 294 682.200195312 211.200195312 c 128,-1,11
 627.599609375 128.400390625 627.599609375 128.400390625 578.400390625 57.599609375 c 128,-1,12
 529.200195312 -13.2001953125 529.200195312 -13.2001953125 494.400390625 -57.599609375 c 0,13,14
 439.200195312 -128.400390625 439.200195312 -128.400390625 392.400390625 -157.799804688 c 128,-1,15
 345.599609375 -187.200195312 345.599609375 -187.200195312 310.799804688 -187.200195312 c 0,16,17
 267.599609375 -187.200195312 267.599609375 -187.200195312 243.599609375 -160.200195312 c 128,-1,18
 219.599609375 -133.200195312 219.599609375 -133.200195312 219.599609375 -98.400390625 c 0,19,20
 219.599609375 -61.2001953125 219.599609375 -61.2001953125 247.200195312 -30 c 0,21,22
 273.599609375 6 273.599609375 6 310.799804688 58.7998046875 c 128,-1,23
 348 111.599609375 348 111.599609375 391.799804688 173.400390625 c 128,-1,24
 435.599609375 235.200195312 435.599609375 235.200195312 484.200195312 303 c 128,-1,25
 532.799804688 370.799804688 532.799804688 370.799804688 580.200195312 439.200195312 c 128,-1,26
 627.599609375 507.599609375 627.599609375 507.599609375 673.200195312 571.799804688 c 128,-1,27
 718.799804688 636 718.799804688 636 757.799804688 690 c 128,-1,28
 796.799804688 744 796.799804688 744 826.799804688 784.799804688 c 128,-1,29
 856.799804688 825.599609375 856.799804688 825.599609375 873.599609375 847.200195312 c 1,30,-1
 607.200195312 846 l 2,31,32
 487.200195312 846 487.200195312 846 418.200195312 850.799804688 c 128,-1,33
 349.200195312 855.599609375 349.200195312 855.599609375 313.799804688 867.599609375 c 128,-1,34
 278.400390625 879.599609375 278.400390625 879.599609375 269.400390625 900 c 128,-1,35
 260.400390625 920.400390625 260.400390625 920.400390625 260.400390625 950.400390625 c 0,36,37
 260.400390625 985.200195312 260.400390625 985.200195312 276.599609375 1006.20019531 c 128,-1,38
 292.799804688 1027.20019531 292.799804688 1027.20019531 317.400390625 1038.59960938 c 128,-1,39
 342 1050 342 1050 370.799804688 1053.59960938 c 128,-1,40
 399.599609375 1057.20019531 399.599609375 1057.20019531 424.799804688 1057.20019531 c 0,41,42
 445.200195312 1057.20019531 445.200195312 1057.20019531 459 1056 c 128,-1,43
 472.799804688 1054.79980469 472.799804688 1054.79980469 478.799804688 1054.79980469 c 2,44,-1
 986.400390625 1056 l 2,0,1
EndSplineSet
EndChar

StartChar: eight
Encoding: 56 56 27
Width: 614
VWidth: 2457
Flags: W
LayerCount: 2
Fore
SplineSet
837.599609375 338.400390625 m 0,0,1
 837.599609375 403.200195312 837.599609375 403.200195312 806.400390625 457.200195312 c 128,-1,2
 775.200195312 511.200195312 775.200195312 511.200195312 720 560.400390625 c 1,3,4
 652.799804688 507.599609375 652.799804688 507.599609375 595.200195312 463.799804688 c 128,-1,5
 537.599609375 420 537.599609375 420 495.599609375 382.799804688 c 128,-1,6
 453.599609375 345.599609375 453.599609375 345.599609375 429.599609375 314.400390625 c 128,-1,7
 405.599609375 283.200195312 405.599609375 283.200195312 405.599609375 258 c 0,8,9
 405.599609375 206.400390625 405.599609375 206.400390625 454.200195312 175.200195312 c 128,-1,10
 502.799804688 144 502.799804688 144 584.400390625 144 c 0,11,12
 636 144 636 144 682.200195312 158.400390625 c 128,-1,13
 728.400390625 172.799804688 728.400390625 172.799804688 762.599609375 198 c 128,-1,14
 796.799804688 223.200195312 796.799804688 223.200195312 817.200195312 259.200195312 c 128,-1,15
 837.599609375 295.200195312 837.599609375 295.200195312 837.599609375 338.400390625 c 0,0,1
1120.79980469 1088.40039062 m 0,16,17
 1087.20019531 1116 1087.20019531 1116 1051.20019531 1128 c 128,-1,18
 1015.20019531 1140 1015.20019531 1140 976.799804688 1140 c 0,19,20
 918 1140 918 1140 861.599609375 1115.40039062 c 128,-1,21
 805.200195312 1090.79980469 805.200195312 1090.79980469 761.400390625 1054.20019531 c 128,-1,22
 717.599609375 1017.59960938 717.599609375 1017.59960938 690.599609375 976.200195312 c 128,-1,23
 663.599609375 934.799804688 663.599609375 934.799804688 663.599609375 901.200195312 c 0,24,25
 663.599609375 802.799804688 663.599609375 802.799804688 781.200195312 722.400390625 c 1,26,27
 853.200195312 748.799804688 853.200195312 748.799804688 918 789.599609375 c 128,-1,28
 982.799804688 830.400390625 982.799804688 830.400390625 1032.59960938 875.400390625 c 128,-1,29
 1082.40039062 920.400390625 1082.40039062 920.400390625 1111.79980469 964.799804688 c 128,-1,30
 1141.20019531 1009.20019531 1141.20019531 1009.20019531 1141.20019531 1044 c 0,31,32
 1141.20019531 1070.40039062 1141.20019531 1070.40039062 1120.79980469 1088.40039062 c 0,16,17
1090.79980469 1306.79980469 m 0,33,34
 1167.59960938 1285.20019531 1167.59960938 1285.20019531 1221 1258.79980469 c 128,-1,35
 1274.40039062 1232.40039062 1274.40039062 1232.40039062 1307.40039062 1201.79980469 c 128,-1,36
 1340.40039062 1171.20019531 1340.40039062 1171.20019531 1354.79980469 1138.20019531 c 128,-1,37
 1369.20019531 1105.20019531 1369.20019531 1105.20019531 1369.20019531 1071.59960938 c 0,38,39
 1369.20019531 1021.20019531 1369.20019531 1021.20019531 1342.79980469 970.200195312 c 128,-1,40
 1316.40039062 919.200195312 1316.40039062 919.200195312 1275.59960938 870.599609375 c 128,-1,41
 1234.79980469 822 1234.79980469 822 1184.40039062 778.799804688 c 128,-1,42
 1134 735.599609375 1134 735.599609375 1084.79980469 702 c 128,-1,43
 1035.59960938 668.400390625 1035.59960938 668.400390625 993.599609375 646.200195312 c 128,-1,44
 951.599609375 624 951.599609375 624 928.799804688 618 c 1,45,46
 1051.20019531 517.200195312 1051.20019531 517.200195312 1051.20019531 357.599609375 c 0,47,48
 1051.20019531 271.200195312 1051.20019531 271.200195312 1013.40039062 200.400390625 c 128,-1,49
 975.599609375 129.599609375 975.599609375 129.599609375 910.200195312 78 c 128,-1,50
 844.799804688 26.400390625 844.799804688 26.400390625 754.799804688 -1.7998046875 c 128,-1,51
 664.799804688 -30 664.799804688 -30 560.400390625 -30 c 0,52,53
 482.400390625 -30 482.400390625 -30 415.200195312 -10.2001953125 c 128,-1,54
 348 9.599609375 348 9.599609375 298.799804688 45.599609375 c 128,-1,55
 249.599609375 81.599609375 249.599609375 81.599609375 220.799804688 131.400390625 c 128,-1,56
 192 181.200195312 192 181.200195312 192 240 c 0,57,58
 192 345.599609375 192 345.599609375 274.799804688 434.400390625 c 0,59,60
 314.400390625 476.400390625 314.400390625 476.400390625 584.400390625 648 c 1,61,62
 516 710.400390625 516 710.400390625 481.799804688 777.599609375 c 128,-1,63
 447.599609375 844.799804688 447.599609375 844.799804688 447.599609375 913.200195312 c 0,64,65
 447.599609375 966 447.599609375 966 466.200195312 1017 c 128,-1,66
 484.799804688 1068 484.799804688 1068 517.799804688 1113.59960938 c 128,-1,67
 550.799804688 1159.20019531 550.799804688 1159.20019531 597 1198.20019531 c 128,-1,68
 643.200195312 1237.20019531 643.200195312 1237.20019531 699 1265.40039062 c 128,-1,69
 754.799804688 1293.59960938 754.799804688 1293.59960938 817.799804688 1309.79980469 c 128,-1,70
 880.799804688 1326 880.799804688 1326 948 1326 c 0,71,72
 1021.20019531 1326 1021.20019531 1326 1090.79980469 1306.79980469 c 0,33,34
EndSplineSet
EndChar

StartChar: nine
Encoding: 57 57 28
Width: 614
VWidth: 2457
Flags: W
LayerCount: 2
Fore
SplineSet
1066.79980469 721.200195312 m 0,0,1
 1066.79980469 726 1066.79980469 726 1067.40039062 730.200195312 c 128,-1,2
 1068 734.400390625 1068 734.400390625 1068 740.400390625 c 0,3,4
 1068 801.599609375 1068 801.599609375 1027.20019531 840.599609375 c 128,-1,5
 986.400390625 879.599609375 986.400390625 879.599609375 916.799804688 879.599609375 c 0,6,7
 871.200195312 879.599609375 871.200195312 879.599609375 824.400390625 858.599609375 c 128,-1,8
 777.599609375 837.599609375 777.599609375 837.599609375 733.799804688 802.799804688 c 128,-1,9
 690 768 690 768 651 721.799804688 c 128,-1,10
 612 675.599609375 612 675.599609375 583.200195312 625.799804688 c 128,-1,11
 554.400390625 576 554.400390625 576 537.599609375 525 c 128,-1,12
 520.799804688 474 520.799804688 474 520.799804688 428.400390625 c 0,13,14
 520.799804688 362.400390625 520.799804688 362.400390625 552 333 c 128,-1,15
 583.200195312 303.599609375 583.200195312 303.599609375 634.799804688 303.599609375 c 0,16,17
 669.599609375 303.599609375 669.599609375 303.599609375 711.599609375 313.799804688 c 128,-1,18
 753.599609375 324 753.599609375 324 798.599609375 342.599609375 c 128,-1,19
 843.599609375 361.200195312 843.599609375 361.200195312 889.799804688 387 c 128,-1,20
 936 412.799804688 936 412.799804688 979.200195312 445.200195312 c 1,21,22
 1054.79980469 598.799804688 1054.79980469 598.799804688 1066.79980469 721.200195312 c 0,0,1
1286.40039062 697.200195312 m 0,23,24
 1274.40039062 586.799804688 1274.40039062 586.799804688 1214.40039062 442.799804688 c 128,-1,25
 1154.40039062 298.799804688 1154.40039062 298.799804688 1041.59960938 142.799804688 c 128,-1,26
 928.799804688 -13.2001953125 928.799804688 -13.2001953125 760.799804688 -172.200195312 c 128,-1,27
 592.799804688 -331.200195312 592.799804688 -331.200195312 363.599609375 -471.599609375 c 0,28,29
 354 -481.200195312 354 -481.200195312 343.200195312 -482.400390625 c 128,-1,30
 332.400390625 -483.599609375 332.400390625 -483.599609375 322.799804688 -483.599609375 c 0,31,32
 285.599609375 -483.599609375 285.599609375 -483.599609375 256.799804688 -456 c 128,-1,33
 228 -428.400390625 228 -428.400390625 228 -391.200195312 c 0,34,35
 228 -370.799804688 228 -370.799804688 240 -346.799804688 c 128,-1,36
 252 -322.799804688 252 -322.799804688 282 -304.799804688 c 0,37,38
 402 -232.799804688 402 -232.799804688 493.799804688 -160.799804688 c 128,-1,39
 585.599609375 -88.7998046875 585.599609375 -88.7998046875 652.200195312 -24 c 128,-1,40
 718.799804688 40.7998046875 718.799804688 40.7998046875 763.799804688 96 c 128,-1,41
 808.799804688 151.200195312 808.799804688 151.200195312 837.599609375 189.599609375 c 1,42,43
 765.599609375 158.400390625 765.599609375 158.400390625 688.799804688 141 c 128,-1,44
 612 123.599609375 612 123.599609375 540 123.599609375 c 0,45,46
 488.400390625 123.599609375 488.400390625 123.599609375 443.400390625 138.599609375 c 128,-1,47
 398.400390625 153.599609375 398.400390625 153.599609375 364.799804688 185.400390625 c 128,-1,48
 331.200195312 217.200195312 331.200195312 217.200195312 312 267 c 128,-1,49
 292.799804688 316.799804688 292.799804688 316.799804688 292.799804688 387.599609375 c 0,50,51
 292.799804688 478.799804688 292.799804688 478.799804688 319.200195312 565.799804688 c 128,-1,52
 345.599609375 652.799804688 345.599609375 652.799804688 392.400390625 730.799804688 c 128,-1,53
 439.200195312 808.799804688 439.200195312 808.799804688 503.400390625 873.599609375 c 128,-1,54
 567.599609375 938.400390625 567.599609375 938.400390625 642 985.799804688 c 128,-1,55
 716.400390625 1033.20019531 716.400390625 1033.20019531 798.599609375 1059.59960938 c 128,-1,56
 880.799804688 1086 880.799804688 1086 963.599609375 1086 c 0,57,58
 1039.20019531 1086 1039.20019531 1086 1099.20019531 1060.79980469 c 128,-1,59
 1159.20019531 1035.59960938 1159.20019531 1035.59960938 1201.20019531 991.200195312 c 128,-1,60
 1243.20019531 946.799804688 1243.20019531 946.799804688 1266 885 c 128,-1,61
 1288.79980469 823.200195312 1288.79980469 823.200195312 1288.79980469 750 c 0,62,63
 1288.79980469 736.799804688 1288.79980469 736.799804688 1288.20019531 723.599609375 c 128,-1,64
 1287.59960938 710.400390625 1287.59960938 710.400390625 1286.40039062 697.200195312 c 0,23,24
EndSplineSet
EndChar

StartChar: colon
Encoding: 58 58 29
Width: 614
VWidth: 2457
Flags: W
LayerCount: 2
Fore
SplineSet
694.799804688 166.799804688 m 0,0,1
 687.599609375 129.599609375 687.599609375 129.599609375 669 96 c 128,-1,2
 650.400390625 62.400390625 650.400390625 62.400390625 623.400390625 36.599609375 c 128,-1,3
 596.400390625 10.7998046875 596.400390625 10.7998046875 563.400390625 -4.2001953125 c 128,-1,4
 530.400390625 -19.2001953125 530.400390625 -19.2001953125 494.400390625 -19.2001953125 c 0,5,6
 441.599609375 -19.2001953125 441.599609375 -19.2001953125 410.400390625 14.400390625 c 128,-1,7
 379.200195312 48 379.200195312 48 379.200195312 98.400390625 c 0,8,9
 379.200195312 138 379.200195312 138 397.200195312 175.200195312 c 128,-1,10
 415.200195312 212.400390625 415.200195312 212.400390625 444 241.200195312 c 128,-1,11
 472.799804688 270 472.799804688 270 510 287.400390625 c 128,-1,12
 547.200195312 304.799804688 547.200195312 304.799804688 586.799804688 304.799804688 c 0,13,14
 640.799804688 304.799804688 640.799804688 304.799804688 669 275.400390625 c 128,-1,15
 697.200195312 246 697.200195312 246 697.200195312 196.799804688 c 0,16,17
 697.200195312 189.599609375 697.200195312 189.599609375 696.599609375 181.799804688 c 128,-1,18
 696 174 696 174 694.799804688 166.799804688 c 0,0,1
973.200195312 687.599609375 m 0,19,20
 967.200195312 652.799804688 967.200195312 652.799804688 948 620.400390625 c 128,-1,21
 928.799804688 588 928.799804688 588 901.200195312 564 c 128,-1,22
 873.599609375 540 873.599609375 540 839.400390625 525.599609375 c 128,-1,23
 805.200195312 511.200195312 805.200195312 511.200195312 769.200195312 511.200195312 c 0,24,25
 716.400390625 511.200195312 716.400390625 511.200195312 685.200195312 542.400390625 c 128,-1,26
 654 573.599609375 654 573.599609375 654 624 c 0,27,28
 654 663.599609375 654 663.599609375 672.599609375 700.799804688 c 128,-1,29
 691.200195312 738 691.200195312 738 720.599609375 766.799804688 c 128,-1,30
 750 795.599609375 750 795.599609375 787.799804688 813 c 128,-1,31
 825.599609375 830.400390625 825.599609375 830.400390625 865.200195312 830.400390625 c 0,32,33
 916.799804688 830.400390625 916.799804688 830.400390625 946.200195312 800.400390625 c 128,-1,34
 975.599609375 770.400390625 975.599609375 770.400390625 975.599609375 718.799804688 c 0,35,36
 975.599609375 711.599609375 975.599609375 711.599609375 975 703.799804688 c 128,-1,37
 974.400390625 696 974.400390625 696 973.200195312 687.599609375 c 0,19,20
EndSplineSet
EndChar

StartChar: semicolon
Encoding: 59 59 30
Width: 614
VWidth: 2457
Flags: W
LayerCount: 2
Fore
SplineSet
694.799804688 279.599609375 m 1,0,-1
 211.200195312 -334.799804688 l 1,1,-1
 87.599609375 -334.799804688 l 1,2,-1
 394.799804688 279.599609375 l 1,3,-1
 694.799804688 279.599609375 l 1,0,-1
846 687.599609375 m 0,4,5
 841.200195312 652.799804688 841.200195312 652.799804688 823.799804688 620.400390625 c 128,-1,6
 806.400390625 588 806.400390625 588 780.599609375 564 c 128,-1,7
 754.799804688 540 754.799804688 540 721.799804688 525.599609375 c 128,-1,8
 688.799804688 511.200195312 688.799804688 511.200195312 652.799804688 511.200195312 c 0,9,10
 598.799804688 511.200195312 598.799804688 511.200195312 567 544.799804688 c 128,-1,11
 535.200195312 578.400390625 535.200195312 578.400390625 535.200195312 630 c 0,12,13
 535.200195312 669.599609375 535.200195312 669.599609375 550.799804688 705 c 128,-1,14
 566.400390625 740.400390625 566.400390625 740.400390625 593.400390625 767.400390625 c 128,-1,15
 620.400390625 794.400390625 620.400390625 794.400390625 655.200195312 810 c 128,-1,16
 690 825.599609375 690 825.599609375 728.400390625 825.599609375 c 0,17,18
 782.400390625 825.599609375 782.400390625 825.599609375 814.799804688 795 c 128,-1,19
 847.200195312 764.400390625 847.200195312 764.400390625 847.200195312 708 c 0,20,21
 847.200195312 703.200195312 847.200195312 703.200195312 847.200195312 698.400390625 c 128,-1,22
 847.200195312 693.599609375 847.200195312 693.599609375 846 687.599609375 c 0,4,5
EndSplineSet
EndChar

StartChar: less
Encoding: 60 60 31
Width: 614
VWidth: 2457
Flags: W
LayerCount: 2
Fore
SplineSet
1348.79980469 220.799804688 m 0,0,1
 1125.59960938 348 1125.59960938 348 903 475.799804688 c 128,-1,2
 680.400390625 603.599609375 680.400390625 603.599609375 457.200195312 732 c 0,3,4
 417.599609375 753.599609375 417.599609375 753.599609375 417.599609375 798 c 0,5,6
 417.599609375 832.799804688 417.599609375 832.799804688 442.799804688 865.200195312 c 128,-1,7
 468 897.599609375 468 897.599609375 520.799804688 919.200195312 c 0,8,9
 832.799804688 1046.40039062 832.799804688 1046.40039062 1141.79980469 1174.20019531 c 128,-1,10
 1450.79980469 1302 1450.79980469 1302 1762.79980469 1430.40039062 c 0,11,12
 1778.40039062 1436.40039062 1778.40039062 1436.40039062 1789.20019531 1436.40039062 c 0,13,14
 1812 1436.40039062 1812 1436.40039062 1824.59960938 1420.20019531 c 128,-1,15
 1837.20019531 1404 1837.20019531 1404 1837.20019531 1378.79980469 c 0,16,17
 1837.20019531 1359.59960938 1837.20019531 1359.59960938 1828.79980469 1337.40039062 c 128,-1,18
 1820.40039062 1315.20019531 1820.40039062 1315.20019531 1802.40039062 1293 c 128,-1,19
 1784.40039062 1270.79980469 1784.40039062 1270.79980469 1756.20019531 1249.20019531 c 128,-1,20
 1728 1227.59960938 1728 1227.59960938 1687.20019531 1209.59960938 c 0,21,22
 1443.59960938 1112.40039062 1443.59960938 1112.40039062 1203 1017.59960938 c 128,-1,23
 962.400390625 922.799804688 962.400390625 922.799804688 720 825.599609375 c 1,24,25
 896.400390625 728.400390625 896.400390625 728.400390625 1071.59960938 631.799804688 c 128,-1,26
 1246.79980469 535.200195312 1246.79980469 535.200195312 1423.20019531 438 c 0,27,28
 1458 417.599609375 1458 417.599609375 1473 394.799804688 c 128,-1,29
 1488 372 1488 372 1488 348 c 0,30,31
 1488 322.799804688 1488 322.799804688 1476.59960938 298.799804688 c 128,-1,32
 1465.20019531 274.799804688 1465.20019531 274.799804688 1447.79980469 256.200195312 c 128,-1,33
 1430.40039062 237.599609375 1430.40039062 237.599609375 1410 226.200195312 c 128,-1,34
 1389.59960938 214.799804688 1389.59960938 214.799804688 1371.59960938 214.799804688 c 0,35,36
 1356 214.799804688 1356 214.799804688 1348.79980469 220.799804688 c 0,0,1
EndSplineSet
EndChar

StartChar: equal
Encoding: 61 61 32
Width: 614
VWidth: 2457
Flags: W
LayerCount: 2
Fore
SplineSet
1604.40039062 592.799804688 m 2,0,-1
 601.200195312 592.799804688 l 2,1,2
 570 592.799804688 570 592.799804688 559.799804688 615.599609375 c 128,-1,3
 549.599609375 638.400390625 549.599609375 638.400390625 558.599609375 665.400390625 c 128,-1,4
 567.599609375 692.400390625 567.599609375 692.400390625 597 715.200195312 c 128,-1,5
 626.400390625 738 626.400390625 738 674.400390625 738 c 2,6,-1
 1676.40039062 738 l 2,7,8
 1710 738 1710 738 1720.79980469 715.200195312 c 128,-1,9
 1731.59960938 692.400390625 1731.59960938 692.400390625 1721.40039062 665.400390625 c 128,-1,10
 1711.20019531 638.400390625 1711.20019531 638.400390625 1681.20019531 615.599609375 c 128,-1,11
 1651.20019531 592.799804688 1651.20019531 592.799804688 1604.40039062 592.799804688 c 2,0,-1
1831.20019531 1044 m 2,12,-1
 828 1044 l 2,13,14
 790.799804688 1044 790.799804688 1044 771 1066.79980469 c 128,-1,15
 751.200195312 1089.59960938 751.200195312 1089.59960938 756.599609375 1116.59960938 c 128,-1,16
 762 1143.59960938 762 1143.59960938 796.200195312 1166.40039062 c 128,-1,17
 830.400390625 1189.20019531 830.400390625 1189.20019531 900 1189.20019531 c 2,18,-1
 1903.20019531 1189.20019531 l 2,19,20
 1944 1189.20019531 1944 1189.20019531 1954.79980469 1166.40039062 c 128,-1,21
 1965.59960938 1143.59960938 1965.59960938 1143.59960938 1953 1116.59960938 c 128,-1,22
 1940.40039062 1089.59960938 1940.40039062 1089.59960938 1908 1066.79980469 c 128,-1,23
 1875.59960938 1044 1875.59960938 1044 1831.20019531 1044 c 2,12,-1
EndSplineSet
EndChar

StartChar: greater
Encoding: 62 62 33
Width: 614
VWidth: 2457
Flags: W
LayerCount: 2
Fore
SplineSet
1557.59960938 732 m 0,0,1
 1249.20019531 603.599609375 1249.20019531 603.599609375 944.400390625 476.400390625 c 128,-1,2
 639.599609375 349.200195312 639.599609375 349.200195312 332.400390625 220.799804688 c 0,3,4
 321.599609375 217.200195312 321.599609375 217.200195312 310.799804688 217.200195312 c 0,5,6
 282 217.200195312 282 217.200195312 262.200195312 237 c 128,-1,7
 242.400390625 256.799804688 242.400390625 256.799804688 242.400390625 288 c 0,8,9
 242.400390625 324 242.400390625 324 277.200195312 366 c 128,-1,10
 312 408 312 408 398.400390625 438 c 0,11,12
 639.599609375 535.200195312 639.599609375 535.200195312 877.200195312 631.799804688 c 128,-1,13
 1114.79980469 728.400390625 1114.79980469 728.400390625 1356 825.599609375 c 1,14,15
 1176 922.799804688 1176 922.799804688 998.400390625 1020 c 128,-1,16
 820.799804688 1117.20019531 820.799804688 1117.20019531 642 1214.40039062 c 0,17,18
 613.200195312 1230 613.200195312 1230 600.599609375 1253.40039062 c 128,-1,19
 588 1276.79980469 588 1276.79980469 588 1304.40039062 c 0,20,21
 588 1327.20019531 588 1327.20019531 595.799804688 1350.59960938 c 128,-1,22
 603.599609375 1374 603.599609375 1374 616.799804688 1392.59960938 c 128,-1,23
 630 1411.20019531 630 1411.20019531 648 1422.59960938 c 128,-1,24
 666 1434 666 1434 687.599609375 1434 c 0,25,26
 698.400390625 1434 698.400390625 1434 709.200195312 1430.40039062 c 2,27,-1
 1616.40039062 919.200195312 l 2,28,29
 1642.79980469 903.599609375 1642.79980469 903.599609375 1657.20019531 884.400390625 c 128,-1,30
 1671.59960938 865.200195312 1671.59960938 865.200195312 1671.59960938 846 c 0,31,32
 1671.59960938 817.200195312 1671.59960938 817.200195312 1644 788.400390625 c 128,-1,33
 1616.40039062 759.599609375 1616.40039062 759.599609375 1557.59960938 732 c 0,0,1
EndSplineSet
EndChar

StartChar: question
Encoding: 63 63 34
Width: 614
VWidth: 2457
Flags: W
LayerCount: 2
Fore
SplineSet
577.200195312 166.799804688 m 0,0,1
 567.599609375 129.599609375 567.599609375 129.599609375 546 96 c 128,-1,2
 524.400390625 62.400390625 524.400390625 62.400390625 495.599609375 36.599609375 c 128,-1,3
 466.799804688 10.7998046875 466.799804688 10.7998046875 432 -4.2001953125 c 128,-1,4
 397.200195312 -19.2001953125 397.200195312 -19.2001953125 362.400390625 -19.2001953125 c 0,5,6
 312 -19.2001953125 312 -19.2001953125 284.400390625 10.2001953125 c 128,-1,7
 256.799804688 39.599609375 256.799804688 39.599609375 256.799804688 85.2001953125 c 0,8,9
 256.799804688 126 256.799804688 126 276.599609375 165.599609375 c 128,-1,10
 296.400390625 205.200195312 296.400390625 205.200195312 328.200195312 236.400390625 c 128,-1,11
 360 267.599609375 360 267.599609375 400.200195312 286.200195312 c 128,-1,12
 440.400390625 304.799804688 440.400390625 304.799804688 480 304.799804688 c 0,13,14
 530.400390625 304.799804688 530.400390625 304.799804688 556.200195312 277.200195312 c 128,-1,15
 582 249.599609375 582 249.599609375 582 207.599609375 c 0,16,17
 582 186 582 186 577.200195312 166.799804688 c 0,0,1
879.599609375 768 m 0,18,19
 830.400390625 733.200195312 830.400390625 733.200195312 786.599609375 694.799804688 c 128,-1,20
 742.799804688 656.400390625 742.799804688 656.400390625 706.799804688 616.799804688 c 128,-1,21
 670.799804688 577.200195312 670.799804688 577.200195312 645 539.400390625 c 128,-1,22
 619.200195312 501.599609375 619.200195312 501.599609375 604.799804688 468 c 0,23,24
 595.200195312 447.599609375 595.200195312 447.599609375 568.799804688 438 c 128,-1,25
 542.400390625 428.400390625 542.400390625 428.400390625 520.799804688 428.400390625 c 0,26,27
 496.799804688 428.400390625 496.799804688 428.400390625 478.799804688 439.799804688 c 128,-1,28
 460.799804688 451.200195312 460.799804688 451.200195312 460.799804688 472.799804688 c 0,29,30
 460.799804688 476.400390625 460.799804688 476.400390625 463.200195312 486 c 0,31,32
 487.200195312 576 487.200195312 576 565.200195312 666 c 128,-1,33
 643.200195312 756 643.200195312 756 752.400390625 838.799804688 c 0,34,35
 799.200195312 868.799804688 799.200195312 868.799804688 852 906 c 128,-1,36
 904.799804688 943.200195312 904.799804688 943.200195312 951 982.799804688 c 128,-1,37
 997.200195312 1022.40039062 997.200195312 1022.40039062 1030.79980469 1060.20019531 c 128,-1,38
 1064.40039062 1098 1064.40039062 1098 1072.79980469 1130.40039062 c 0,39,40
 1078.79980469 1156.79980469 1078.79980469 1156.79980469 1078.79980469 1173.59960938 c 0,41,42
 1078.79980469 1210.79980469 1078.79980469 1210.79980469 1058.40039062 1227.59960938 c 128,-1,43
 1038 1244.40039062 1038 1244.40039062 1003.20019531 1244.40039062 c 128,-1,44
 968.400390625 1244.40039062 968.400390625 1244.40039062 921 1229.40039062 c 128,-1,45
 873.599609375 1214.40039062 873.599609375 1214.40039062 823.799804688 1186.20019531 c 128,-1,46
 774 1158 774 1158 726.599609375 1119 c 128,-1,47
 679.200195312 1080 679.200195312 1080 643.200195312 1032 c 0,48,49
 616.799804688 997.200195312 616.799804688 997.200195312 578.400390625 997.200195312 c 0,50,51
 562.799804688 997.200195312 562.799804688 997.200195312 547.200195312 1001.40039062 c 128,-1,52
 531.599609375 1005.59960938 531.599609375 1005.59960938 519.599609375 1013.40039062 c 128,-1,53
 507.599609375 1021.20019531 507.599609375 1021.20019531 499.799804688 1032.59960938 c 128,-1,54
 492 1044 492 1044 492 1057.20019531 c 0,55,56
 492 1074 492 1074 501 1090.20019531 c 128,-1,57
 510 1106.40039062 510 1106.40039062 525.599609375 1125.59960938 c 0,58,59
 584.400390625 1197.59960938 584.400390625 1197.59960938 656.400390625 1253.40039062 c 128,-1,60
 728.400390625 1309.20019531 728.400390625 1309.20019531 804 1347.59960938 c 128,-1,61
 879.599609375 1386 879.599609375 1386 954 1405.79980469 c 128,-1,62
 1028.40039062 1425.59960938 1028.40039062 1425.59960938 1093.20019531 1425.59960938 c 0,63,64
 1138.79980469 1425.59960938 1138.79980469 1425.59960938 1177.20019531 1414.79980469 c 128,-1,65
 1215.59960938 1404 1215.59960938 1404 1243.20019531 1382.40039062 c 128,-1,66
 1270.79980469 1360.79980469 1270.79980469 1360.79980469 1286.40039062 1327.79980469 c 128,-1,67
 1302 1294.79980469 1302 1294.79980469 1302 1249.20019531 c 0,68,69
 1302 1177.20019531 1302 1177.20019531 1278.59960938 1120.20019531 c 128,-1,70
 1255.20019531 1063.20019531 1255.20019531 1063.20019531 1204.20019531 1009.20019531 c 128,-1,71
 1153.20019531 955.200195312 1153.20019531 955.200195312 1072.79980469 897.599609375 c 128,-1,72
 992.400390625 840 992.400390625 840 879.599609375 768 c 0,18,19
EndSplineSet
EndChar

StartChar: at
Encoding: 64 64 35
Width: 614
VWidth: 2457
Flags: W
LayerCount: 2
Fore
SplineSet
1528.79980469 1209.59960938 m 0,0,1
 1428 1209.59960938 1428 1209.59960938 1323 1171.79980469 c 128,-1,2
 1218 1134 1218 1134 1125.59960938 1065.59960938 c 128,-1,3
 1033.20019531 997.200195312 1033.20019531 997.200195312 961.200195312 900.599609375 c 128,-1,4
 889.200195312 804 889.200195312 804 853.200195312 687.599609375 c 0,5,6
 762 396 762 396 1032 396 c 0,7,8
 1135.20019531 396 1135.20019531 396 1233 441 c 128,-1,9
 1330.79980469 486 1330.79980469 486 1420.20019531 582 c 128,-1,10
 1509.59960938 678 1509.59960938 678 1588.20019531 826.799804688 c 128,-1,11
 1666.79980469 975.599609375 1666.79980469 975.599609375 1731.59960938 1184.40039062 c 1,12,-1
 1713.59960938 1188 l 2,13,14
 1694.40039062 1192.79980469 1694.40039062 1192.79980469 1665 1197 c 128,-1,15
 1635.59960938 1201.20019531 1635.59960938 1201.20019531 1599 1205.40039062 c 128,-1,16
 1562.40039062 1209.59960938 1562.40039062 1209.59960938 1528.79980469 1209.59960938 c 0,0,1
990 -186 m 0,17,18
 726 -186 726 -186 558 -115.200195312 c 128,-1,19
 390 -44.400390625 390 -44.400390625 306 76.2001953125 c 128,-1,20
 222 196.799804688 222 196.799804688 213.599609375 356.400390625 c 128,-1,21
 205.200195312 516 205.200195312 516 260.400390625 693.599609375 c 0,22,23
 313.200195312 864 313.200195312 864 398.400390625 1008 c 128,-1,24
 483.599609375 1152 483.599609375 1152 590.400390625 1269 c 128,-1,25
 697.200195312 1386 697.200195312 1386 822.599609375 1475.40039062 c 128,-1,26
 948 1564.79980469 948 1564.79980469 1080 1625.40039062 c 128,-1,27
 1212 1686 1212 1686 1347 1716.59960938 c 128,-1,28
 1482 1747.20019531 1482 1747.20019531 1610.40039062 1747.20019531 c 0,29,30
 1740 1747.20019531 1740 1747.20019531 1855.79980469 1725 c 128,-1,31
 1971.59960938 1702.79980469 1971.59960938 1702.79980469 2065.20019531 1656.59960938 c 128,-1,32
 2158.79980469 1610.40039062 2158.79980469 1610.40039062 2227.20019531 1541.40039062 c 128,-1,33
 2295.59960938 1472.40039062 2295.59960938 1472.40039062 2331 1379.40039062 c 128,-1,34
 2366.40039062 1286.40039062 2366.40039062 1286.40039062 2365.20019531 1168.20019531 c 128,-1,35
 2364 1050 2364 1050 2319.59960938 907.200195312 c 0,36,37
 2280 778.799804688 2280 778.799804688 2224.20019531 679.200195312 c 128,-1,38
 2168.40039062 579.599609375 2168.40039062 579.599609375 2102.40039062 505.200195312 c 128,-1,39
 2036.40039062 430.799804688 2036.40039062 430.799804688 1966.20019531 379.799804688 c 128,-1,40
 1896 328.799804688 1896 328.799804688 1827.59960938 297.599609375 c 128,-1,41
 1759.20019531 266.400390625 1759.20019531 266.400390625 1696.20019531 252.599609375 c 128,-1,42
 1633.20019531 238.799804688 1633.20019531 238.799804688 1582.79980469 238.799804688 c 0,43,44
 1540.79980469 238.799804688 1540.79980469 238.799804688 1521 250.200195312 c 128,-1,45
 1501.20019531 261.599609375 1501.20019531 261.599609375 1494.59960938 280.799804688 c 128,-1,46
 1488 300 1488 300 1492.79980469 325.200195312 c 128,-1,47
 1497.59960938 350.400390625 1497.59960938 350.400390625 1507.20019531 379.200195312 c 2,48,-1
 1593.59960938 657.599609375 l 1,49,50
 1557.59960938 586.799804688 1557.59960938 586.799804688 1497.59960938 513 c 128,-1,51
 1437.59960938 439.200195312 1437.59960938 439.200195312 1357.79980469 378 c 128,-1,52
 1278 316.799804688 1278 316.799804688 1178.40039062 277.799804688 c 128,-1,53
 1078.79980469 238.799804688 1078.79980469 238.799804688 963.599609375 238.799804688 c 0,54,55
 860.400390625 238.799804688 860.400390625 238.799804688 789.599609375 271.799804688 c 128,-1,56
 718.799804688 304.799804688 718.799804688 304.799804688 681.599609375 366 c 128,-1,57
 644.400390625 427.200195312 644.400390625 427.200195312 642 513.599609375 c 128,-1,58
 639.599609375 600 639.599609375 600 673.200195312 708 c 0,59,60
 697.200195312 786 697.200195312 786 744.599609375 864 c 128,-1,61
 792 942 792 942 857.400390625 1014 c 128,-1,62
 922.799804688 1086 922.799804688 1086 1003.20019531 1147.79980469 c 128,-1,63
 1083.59960938 1209.59960938 1083.59960938 1209.59960938 1173 1255.20019531 c 128,-1,64
 1262.40039062 1300.79980469 1262.40039062 1300.79980469 1359.59960938 1327.20019531 c 128,-1,65
 1456.79980469 1353.59960938 1456.79980469 1353.59960938 1554 1353.59960938 c 0,66,67
 1573.20019531 1353.59960938 1573.20019531 1353.59960938 1607.40039062 1351.20019531 c 128,-1,68
 1641.59960938 1348.79980469 1641.59960938 1348.79980469 1680 1344.59960938 c 128,-1,69
 1718.40039062 1340.40039062 1718.40039062 1340.40039062 1756.79980469 1335 c 128,-1,70
 1795.20019531 1329.59960938 1795.20019531 1329.59960938 1821.59960938 1324.79980469 c 0,71,72
 1856.40039062 1318.79980469 1856.40039062 1318.79980469 1872 1305.59960938 c 128,-1,73
 1887.59960938 1292.40039062 1887.59960938 1292.40039062 1894.20019531 1273.79980469 c 128,-1,74
 1900.79980469 1255.20019531 1900.79980469 1255.20019531 1902.59960938 1232.40039062 c 128,-1,75
 1904.40039062 1209.59960938 1904.40039062 1209.59960938 1909.20019531 1184.40039062 c 1,76,-1
 1659.59960938 380.400390625 l 1,77,78
 1732.79980469 380.400390625 1732.79980469 380.400390625 1798.79980469 409.799804688 c 128,-1,79
 1864.79980469 439.200195312 1864.79980469 439.200195312 1923.59960938 503.400390625 c 128,-1,80
 1982.40039062 567.599609375 1982.40039062 567.599609375 2033.40039062 667.799804688 c 128,-1,81
 2084.40039062 768 2084.40039062 768 2128.79980469 909.599609375 c 0,82,83
 2170.79980469 1042.79980469 2170.79980469 1042.79980469 2170.79980469 1144.20019531 c 128,-1,84
 2170.79980469 1245.59960938 2170.79980469 1245.59960938 2139 1320 c 128,-1,85
 2107.20019531 1394.40039062 2107.20019531 1394.40039062 2047.79980469 1444.20019531 c 128,-1,86
 1988.40039062 1494 1988.40039062 1494 1912.20019531 1524.59960938 c 128,-1,87
 1836 1555.20019531 1836 1555.20019531 1747.20019531 1567.79980469 c 128,-1,88
 1658.40039062 1580.40039062 1658.40039062 1580.40039062 1566 1580.40039062 c 0,89,90
 1384.79980469 1580.40039062 1384.79980469 1580.40039062 1212.59960938 1520.40039062 c 128,-1,91
 1040.40039062 1460.40039062 1040.40039062 1460.40039062 892.799804688 1346.40039062 c 128,-1,92
 745.200195312 1232.40039062 745.200195312 1232.40039062 630.599609375 1067.40039062 c 128,-1,93
 516 902.400390625 516 902.400390625 451.200195312 693.599609375 c 0,94,95
 399.599609375 528 399.599609375 528 411.599609375 395.400390625 c 128,-1,96
 423.599609375 262.799804688 423.599609375 262.799804688 498.599609375 171 c 128,-1,97
 573.599609375 79.2001953125 573.599609375 79.2001953125 712.200195312 30 c 128,-1,98
 850.799804688 -19.2001953125 850.799804688 -19.2001953125 1053.59960938 -19.2001953125 c 0,99,100
 1158 -19.2001953125 1158 -19.2001953125 1246.79980469 -6 c 128,-1,101
 1335.59960938 7.2001953125 1335.59960938 7.2001953125 1406.40039062 27 c 128,-1,102
 1477.20019531 46.7998046875 1477.20019531 46.7998046875 1531.20019531 69.599609375 c 0,103,104
 1586.40039062 93.599609375 1586.40039062 93.599609375 1621.20019531 112.799804688 c 128,-1,105
 1656 132 1656 132 1675.20019531 146.400390625 c 2,106,-1
 1693.20019531 160.799804688 l 1,107,-1
 1768.79980469 50.400390625 l 1,108,109
 1702.79980469 -3.599609375 1702.79980469 -3.599609375 1617 -47.400390625 c 128,-1,110
 1531.20019531 -91.2001953125 1531.20019531 -91.2001953125 1431 -121.799804688 c 128,-1,111
 1330.79980469 -152.400390625 1330.79980469 -152.400390625 1219.20019531 -169.200195312 c 128,-1,112
 1107.59960938 -186 1107.59960938 -186 990 -186 c 0,17,18
EndSplineSet
EndChar

StartChar: A
Encoding: 65 65 36
Width: 614
VWidth: 2457
Flags: W
LayerCount: 2
Fore
SplineSet
1291.20019531 342 m 0,0,1
 1285.20019531 319.200195312 1285.20019531 319.200195312 1278.59960938 289.799804688 c 128,-1,2
 1272 260.400390625 1272 260.400390625 1272 234 c 0,3,4
 1272 210 1272 210 1279.20019531 193.200195312 c 128,-1,5
 1286.40039062 176.400390625 1286.40039062 176.400390625 1310.40039062 176.400390625 c 0,6,7
 1342.79980469 176.400390625 1342.79980469 176.400390625 1387.79980469 199.799804688 c 128,-1,8
 1432.79980469 223.200195312 1432.79980469 223.200195312 1484.40039062 262.200195312 c 128,-1,9
 1536 301.200195312 1536 301.200195312 1591.20019531 352.200195312 c 128,-1,10
 1646.40039062 403.200195312 1646.40039062 403.200195312 1700.40039062 457.799804688 c 128,-1,11
 1754.40039062 512.400390625 1754.40039062 512.400390625 1803.59960938 567.599609375 c 128,-1,12
 1852.79980469 622.799804688 1852.79980469 622.799804688 1891.20019531 670.799804688 c 1,13,-1
 1935.59960938 511.200195312 l 1,14,15
 1856.40039062 405.599609375 1856.40039062 405.599609375 1772.40039062 308.400390625 c 128,-1,16
 1688.40039062 211.200195312 1688.40039062 211.200195312 1601.40039062 136.799804688 c 128,-1,17
 1514.40039062 62.400390625 1514.40039062 62.400390625 1426.79980469 18 c 128,-1,18
 1339.20019531 -26.400390625 1339.20019531 -26.400390625 1252.79980469 -26.400390625 c 0,19,20
 1202.40039062 -26.400390625 1202.40039062 -26.400390625 1167 -10.2001953125 c 128,-1,21
 1131.59960938 6 1131.59960938 6 1110 34.2001953125 c 128,-1,22
 1088.40039062 62.400390625 1088.40039062 62.400390625 1078.20019531 99 c 128,-1,23
 1068 135.599609375 1068 135.599609375 1068 176.400390625 c 0,24,25
 1068 192 1068 192 1069.20019531 220.799804688 c 128,-1,26
 1070.40039062 249.599609375 1070.40039062 249.599609375 1072.20019531 280.200195312 c 128,-1,27
 1074 310.799804688 1074 310.799804688 1075.79980469 336 c 128,-1,28
 1077.59960938 361.200195312 1077.59960938 361.200195312 1077.59960938 368.400390625 c 1,29,-1
 651.599609375 342 l 1,30,-1
 453.599609375 339.599609375 l 1,31,32
 403.200195312 230.400390625 403.200195312 230.400390625 354 146.400390625 c 0,33,34
 332.400390625 110.400390625 332.400390625 110.400390625 308.400390625 75.599609375 c 128,-1,35
 284.400390625 40.7998046875 284.400390625 40.7998046875 260.400390625 13.7998046875 c 128,-1,36
 236.400390625 -13.2001953125 236.400390625 -13.2001953125 212.400390625 -29.400390625 c 128,-1,37
 188.400390625 -45.599609375 188.400390625 -45.599609375 165.599609375 -45.599609375 c 0,38,39
 129.599609375 -45.599609375 129.599609375 -45.599609375 106.799804688 -34.7998046875 c 128,-1,40
 84 -24 84 -24 70.7998046875 -7.7998046875 c 128,-1,41
 57.599609375 8.400390625 57.599609375 8.400390625 52.2001953125 28.7998046875 c 128,-1,42
 46.7998046875 49.2001953125 46.7998046875 49.2001953125 46.7998046875 67.2001953125 c 0,43,44
 46.7998046875 98.400390625 46.7998046875 98.400390625 55.2001953125 129 c 128,-1,45
 63.599609375 159.599609375 63.599609375 159.599609375 79.2001953125 187.200195312 c 2,46,-1
 237.599609375 453.599609375 l 2,47,48
 248.400390625 470.400390625 248.400390625 470.400390625 281.400390625 534 c 128,-1,49
 314.400390625 597.599609375 314.400390625 597.599609375 366.599609375 690.599609375 c 128,-1,50
 418.799804688 783.599609375 418.799804688 783.599609375 487.200195312 896.400390625 c 128,-1,51
 555.599609375 1009.20019531 555.599609375 1009.20019531 635.400390625 1125 c 128,-1,52
 715.200195312 1240.79980469 715.200195312 1240.79980469 804.599609375 1350 c 128,-1,53
 894 1459.20019531 894 1459.20019531 988.200195312 1543.79980469 c 128,-1,54
 1082.40039062 1628.40039062 1082.40039062 1628.40039062 1178.40039062 1679.40039062 c 128,-1,55
 1274.40039062 1730.40039062 1274.40039062 1730.40039062 1369.20019531 1730.40039062 c 0,56,57
 1458 1730.40039062 1458 1730.40039062 1543.79980469 1675.20019531 c 128,-1,58
 1629.59960938 1620 1629.59960938 1620 1707.59960938 1494 c 0,59,60
 1716 1477.20019531 1716 1477.20019531 1716 1465.20019531 c 0,61,62
 1716 1449.59960938 1716 1449.59960938 1707.59960938 1434 c 128,-1,63
 1699.20019531 1418.40039062 1699.20019531 1418.40039062 1685.40039062 1406.40039062 c 128,-1,64
 1671.59960938 1394.40039062 1671.59960938 1394.40039062 1654.79980469 1387.20019531 c 128,-1,65
 1638 1380 1638 1380 1620 1380 c 0,66,67
 1598.40039062 1380 1598.40039062 1380 1570.20019531 1389.59960938 c 128,-1,68
 1542 1399.20019531 1542 1399.20019531 1516.79980469 1430.40039062 c 0,69,70
 1479.59960938 1473.59960938 1479.59960938 1473.59960938 1439.40039062 1493.40039062 c 128,-1,71
 1399.20019531 1513.20019531 1399.20019531 1513.20019531 1359.59960938 1513.20019531 c 0,72,73
 1303.20019531 1513.20019531 1303.20019531 1513.20019531 1244.40039062 1481.40039062 c 128,-1,74
 1185.59960938 1449.59960938 1185.59960938 1449.59960938 1126.20019531 1395 c 128,-1,75
 1066.79980469 1340.40039062 1066.79980469 1340.40039062 1008 1269 c 128,-1,76
 949.200195312 1197.59960938 949.200195312 1197.59960938 894 1118.40039062 c 128,-1,77
 838.799804688 1039.20019531 838.799804688 1039.20019531 787.200195312 956.400390625 c 128,-1,78
 735.599609375 873.599609375 735.599609375 873.599609375 690 798 c 128,-1,79
 644.400390625 722.400390625 644.400390625 722.400390625 606.599609375 658.799804688 c 128,-1,80
 568.799804688 595.200195312 568.799804688 595.200195312 540 552 c 1,81,-1
 759.599609375 552 l 1,82,-1
 1130.40039062 579.599609375 l 1,83,84
 1141.20019531 603.599609375 1141.20019531 603.599609375 1159.20019531 645 c 128,-1,85
 1177.20019531 686.400390625 1177.20019531 686.400390625 1199.40039062 738 c 128,-1,86
 1221.59960938 789.599609375 1221.59960938 789.599609375 1248 849.599609375 c 128,-1,87
 1274.40039062 909.599609375 1274.40039062 909.599609375 1301.40039062 970.200195312 c 128,-1,88
 1328.40039062 1030.79980469 1328.40039062 1030.79980469 1354.79980469 1090.20019531 c 128,-1,89
 1381.20019531 1149.59960938 1381.20019531 1149.59960938 1404 1200 c 0,90,91
 1419.59960938 1245.59960938 1419.59960938 1245.59960938 1450.20019531 1264.79980469 c 128,-1,92
 1480.79980469 1284 1480.79980469 1284 1515.59960938 1284 c 0,93,94
 1533.59960938 1284 1533.59960938 1284 1551.59960938 1278.59960938 c 128,-1,95
 1569.59960938 1273.20019531 1569.59960938 1273.20019531 1584.59960938 1261.79980469 c 128,-1,96
 1599.59960938 1250.40039062 1599.59960938 1250.40039062 1609.20019531 1233 c 128,-1,97
 1618.79980469 1215.59960938 1618.79980469 1215.59960938 1620 1191.59960938 c 0,98,99
 1620 1168.79980469 1620 1168.79980469 1600.20019531 1113.59960938 c 128,-1,100
 1580.40039062 1058.40039062 1580.40039062 1058.40039062 1549.79980469 984 c 128,-1,101
 1519.20019531 909.599609375 1519.20019531 909.599609375 1481.40039062 822.599609375 c 128,-1,102
 1443.59960938 735.599609375 1443.59960938 735.599609375 1407 648.599609375 c 128,-1,103
 1370.40039062 561.599609375 1370.40039062 561.599609375 1339.20019531 481.799804688 c 128,-1,104
 1308 402 1308 402 1291.20019531 342 c 0,0,1
EndSplineSet
EndChar

StartChar: B
Encoding: 66 66 37
Width: 614
VWidth: 2457
Flags: W
LayerCount: 2
Fore
SplineSet
1048.79980469 1108.79980469 m 1,0,1
 1155.59960938 1152 1155.59960938 1152 1236 1197.59960938 c 128,-1,2
 1316.40039062 1243.20019531 1316.40039062 1243.20019531 1370.40039062 1288.20019531 c 128,-1,3
 1424.40039062 1333.20019531 1424.40039062 1333.20019531 1452 1375.20019531 c 128,-1,4
 1479.59960938 1417.20019531 1479.59960938 1417.20019531 1479.59960938 1452 c 0,5,6
 1479.59960938 1464 1479.59960938 1464 1467.59960938 1479.59960938 c 128,-1,7
 1455.59960938 1495.20019531 1455.59960938 1495.20019531 1431 1508.40039062 c 128,-1,8
 1406.40039062 1521.59960938 1406.40039062 1521.59960938 1369.20019531 1530.59960938 c 128,-1,9
 1332 1539.59960938 1332 1539.59960938 1282.79980469 1539.59960938 c 0,10,11
 1150.79980469 1539.59960938 1150.79980469 1539.59960938 1038 1507.79980469 c 128,-1,12
 925.200195312 1476 925.200195312 1476 832.799804688 1430.40039062 c 128,-1,13
 740.400390625 1384.79980469 740.400390625 1384.79980469 669.599609375 1335 c 128,-1,14
 598.799804688 1285.20019531 598.799804688 1285.20019531 550.799804688 1248 c 0,15,16
 520.799804688 1225.20019531 520.799804688 1225.20019531 498.599609375 1203 c 128,-1,17
 476.400390625 1180.79980469 476.400390625 1180.79980469 455.400390625 1163.40039062 c 128,-1,18
 434.400390625 1146 434.400390625 1146 410.400390625 1135.20019531 c 128,-1,19
 386.400390625 1124.40039062 386.400390625 1124.40039062 352.799804688 1124.40039062 c 0,20,21
 302.400390625 1124.40039062 302.400390625 1124.40039062 274.200195312 1148.40039062 c 128,-1,22
 246 1172.40039062 246 1172.40039062 246 1215.59960938 c 0,23,24
 246 1267.20019531 246 1267.20019531 286.799804688 1325.40039062 c 128,-1,25
 327.599609375 1383.59960938 327.599609375 1383.59960938 399.599609375 1441.20019531 c 128,-1,26
 471.599609375 1498.79980469 471.599609375 1498.79980469 568.799804688 1551 c 128,-1,27
 666 1603.20019531 666 1603.20019531 778.200195312 1642.79980469 c 128,-1,28
 890.400390625 1682.40039062 890.400390625 1682.40039062 1012.20019531 1706.40039062 c 128,-1,29
 1134 1730.40039062 1134 1730.40039062 1256.40039062 1730.40039062 c 0,30,31
 1382.40039062 1730.40039062 1382.40039062 1730.40039062 1473.59960938 1710 c 128,-1,32
 1564.79980469 1689.59960938 1564.79980469 1689.59960938 1623 1653.59960938 c 128,-1,33
 1681.20019531 1617.59960938 1681.20019531 1617.59960938 1709.40039062 1568.40039062 c 128,-1,34
 1737.59960938 1519.20019531 1737.59960938 1519.20019531 1737.59960938 1461.59960938 c 128,-1,35
 1737.59960938 1404 1737.59960938 1404 1699.20019531 1341.59960938 c 128,-1,36
 1660.79980469 1279.20019531 1660.79980469 1279.20019531 1589.40039062 1216.79980469 c 128,-1,37
 1518 1154.40039062 1518 1154.40039062 1415.40039062 1097.40039062 c 128,-1,38
 1312.79980469 1040.40039062 1312.79980469 1040.40039062 1184.40039062 993.599609375 c 1,39,40
 1311.59960938 951.599609375 1311.59960938 951.599609375 1391.40039062 905.400390625 c 128,-1,41
 1471.20019531 859.200195312 1471.20019531 859.200195312 1516.20019531 809.400390625 c 128,-1,42
 1561.20019531 759.599609375 1561.20019531 759.599609375 1576.79980469 706.200195312 c 128,-1,43
 1592.40039062 652.799804688 1592.40039062 652.799804688 1592.40039062 596.400390625 c 0,44,45
 1592.40039062 513.599609375 1592.40039062 513.599609375 1546.79980469 433.200195312 c 128,-1,46
 1501.20019531 352.799804688 1501.20019531 352.799804688 1420.20019531 281.400390625 c 128,-1,47
 1339.20019531 210 1339.20019531 210 1228.20019531 149.400390625 c 128,-1,48
 1117.20019531 88.7998046875 1117.20019531 88.7998046875 986.400390625 45 c 128,-1,49
 855.599609375 1.2001953125 855.599609375 1.2001953125 710.400390625 -23.400390625 c 128,-1,50
 565.200195312 -48 565.200195312 -48 416.400390625 -48 c 0,51,52
 363.599609375 -48 363.599609375 -48 309.599609375 -42 c 128,-1,53
 255.599609375 -36 255.599609375 -36 210.599609375 -20.400390625 c 128,-1,54
 165.599609375 -4.7998046875 165.599609375 -4.7998046875 137.400390625 21.599609375 c 128,-1,55
 109.200195312 48 109.200195312 48 109.200195312 90 c 0,56,57
 109.200195312 94.7998046875 109.200195312 94.7998046875 109.799804688 99 c 128,-1,58
 110.400390625 103.200195312 110.400390625 103.200195312 111.599609375 109.200195312 c 0,59,60
 116.400390625 118.799804688 116.400390625 118.799804688 122.400390625 132.599609375 c 128,-1,61
 128.400390625 146.400390625 128.400390625 146.400390625 150 159.599609375 c 128,-1,62
 171.599609375 172.799804688 171.599609375 172.799804688 217.799804688 181.799804688 c 128,-1,63
 264 190.799804688 264 190.799804688 350.400390625 190.799804688 c 1,64,65
 500.400390625 465.599609375 500.400390625 465.599609375 598.200195312 664.200195312 c 128,-1,66
 696 862.799804688 696 862.799804688 762 991.200195312 c 128,-1,67
 828 1119.59960938 828 1119.59960938 873 1180.79980469 c 128,-1,68
 918 1242 918 1242 961.200195312 1242 c 0,69,70
 980.400390625 1242 980.400390625 1242 998.400390625 1236 c 128,-1,71
 1016.40039062 1230 1016.40039062 1230 1030.20019531 1219.79980469 c 128,-1,72
 1044 1209.59960938 1044 1209.59960938 1052.40039062 1194.59960938 c 128,-1,73
 1060.79980469 1179.59960938 1060.79980469 1179.59960938 1060.79980469 1161.59960938 c 1,74,75
 1051.20019531 1149.59960938 1051.20019531 1149.59960938 1050 1137 c 128,-1,76
 1048.79980469 1124.40039062 1048.79980469 1124.40039062 1048.79980469 1108.79980469 c 1,0,1
982.799804688 879.599609375 m 1,77,78
 928.799804688 757.200195312 928.799804688 757.200195312 881.400390625 660 c 128,-1,79
 834 562.799804688 834 562.799804688 792 481.799804688 c 128,-1,80
 750 400.799804688 750 400.799804688 712.200195312 330.599609375 c 128,-1,81
 674.400390625 260.400390625 674.400390625 260.400390625 638.400390625 193.200195312 c 1,82,83
 777.599609375 205.200195312 777.599609375 205.200195312 898.200195312 241.799804688 c 128,-1,84
 1018.79980469 278.400390625 1018.79980469 278.400390625 1108.20019531 332.400390625 c 128,-1,85
 1197.59960938 386.400390625 1197.59960938 386.400390625 1248.59960938 453.599609375 c 128,-1,86
 1299.59960938 520.799804688 1299.59960938 520.799804688 1299.59960938 595.200195312 c 0,87,88
 1299.59960938 628.799804688 1299.59960938 628.799804688 1284.59960938 666 c 128,-1,89
 1269.59960938 703.200195312 1269.59960938 703.200195312 1233.59960938 740.400390625 c 128,-1,90
 1197.59960938 777.599609375 1197.59960938 777.599609375 1136.40039062 813.599609375 c 128,-1,91
 1075.20019531 849.599609375 1075.20019531 849.599609375 982.799804688 879.599609375 c 1,77,78
EndSplineSet
EndChar

StartChar: C
Encoding: 67 67 38
Width: 614
VWidth: 2457
Flags: W
LayerCount: 2
Fore
SplineSet
1636.79980469 1515.59960938 m 0,0,1
 1636.79980469 1483.20019531 1636.79980469 1483.20019531 1626.59960938 1437.59960938 c 128,-1,2
 1616.40039062 1392 1616.40039062 1392 1597.20019531 1342.79980469 c 128,-1,3
 1578 1293.59960938 1578 1293.59960938 1551 1245 c 128,-1,4
 1524 1196.40039062 1524 1196.40039062 1489.20019531 1157.40039062 c 128,-1,5
 1454.40039062 1118.40039062 1454.40039062 1118.40039062 1413.59960938 1094.40039062 c 128,-1,6
 1372.79980469 1070.40039062 1372.79980469 1070.40039062 1326 1070.40039062 c 0,7,8
 1315.20019531 1070.40039062 1315.20019531 1070.40039062 1297.79980469 1072.20019531 c 128,-1,9
 1280.40039062 1074 1280.40039062 1074 1263 1080.59960938 c 128,-1,10
 1245.59960938 1087.20019531 1245.59960938 1087.20019531 1233 1100.40039062 c 128,-1,11
 1220.40039062 1113.59960938 1220.40039062 1113.59960938 1220.40039062 1135.20019531 c 0,12,13
 1220.40039062 1149.59960938 1220.40039062 1149.59960938 1228.20019531 1168.79980469 c 128,-1,14
 1236 1188 1236 1188 1256.40039062 1213.20019531 c 0,15,16
 1278 1237.20019531 1278 1237.20019531 1303.20019531 1270.20019531 c 128,-1,17
 1328.40039062 1303.20019531 1328.40039062 1303.20019531 1348.79980469 1339.20019531 c 128,-1,18
 1369.20019531 1375.20019531 1369.20019531 1375.20019531 1383 1410 c 128,-1,19
 1396.79980469 1444.79980469 1396.79980469 1444.79980469 1396.79980469 1472.40039062 c 0,20,21
 1396.79980469 1507.20019531 1396.79980469 1507.20019531 1380.59960938 1528.20019531 c 128,-1,22
 1364.40039062 1549.20019531 1364.40039062 1549.20019531 1324.79980469 1549.20019531 c 0,23,24
 1273.20019531 1549.20019531 1273.20019531 1549.20019531 1208.40039062 1515.59960938 c 128,-1,25
 1143.59960938 1482 1143.59960938 1482 1072.79980469 1423.20019531 c 128,-1,26
 1002 1364.40039062 1002 1364.40039062 928.799804688 1285.79980469 c 128,-1,27
 855.599609375 1207.20019531 855.599609375 1207.20019531 787.200195312 1117.79980469 c 128,-1,28
 718.799804688 1028.40039062 718.799804688 1028.40039062 658.200195312 931.799804688 c 128,-1,29
 597.599609375 835.200195312 597.599609375 835.200195312 552.599609375 741 c 128,-1,30
 507.599609375 646.799804688 507.599609375 646.799804688 481.799804688 559.799804688 c 128,-1,31
 456 472.799804688 456 472.799804688 456 402 c 0,32,33
 456 314.400390625 456 314.400390625 502.799804688 261.599609375 c 128,-1,34
 549.599609375 208.799804688 549.599609375 208.799804688 657.599609375 208.799804688 c 0,35,36
 708 208.799804688 708 208.799804688 807.599609375 247.799804688 c 128,-1,37
 907.200195312 286.799804688 907.200195312 286.799804688 973.799804688 325.799804688 c 128,-1,38
 1040.40039062 364.799804688 1040.40039062 364.799804688 1108.20019531 412.200195312 c 128,-1,39
 1176 459.599609375 1176 459.599609375 1237.20019531 503.400390625 c 128,-1,40
 1298.40039062 547.200195312 1298.40039062 547.200195312 1348.79980469 582.599609375 c 128,-1,41
 1399.20019531 618 1399.20019531 618 1431.59960938 632.400390625 c 0,42,43
 1437.59960938 637.200195312 1437.59960938 637.200195312 1446 637.200195312 c 0,44,45
 1464 637.200195312 1464 637.200195312 1470.59960938 607.799804688 c 128,-1,46
 1477.20019531 578.400390625 1477.20019531 578.400390625 1477.20019531 541.200195312 c 0,47,48
 1477.20019531 520.799804688 1477.20019531 520.799804688 1471.79980469 491.400390625 c 128,-1,49
 1466.40039062 462 1466.40039062 462 1437.59960938 423.599609375 c 0,50,51
 1424.40039062 408 1424.40039062 408 1388.40039062 370.799804688 c 128,-1,52
 1352.40039062 333.599609375 1352.40039062 333.599609375 1298.40039062 286.799804688 c 128,-1,53
 1244.40039062 240 1244.40039062 240 1174.79980469 189.599609375 c 128,-1,54
 1105.20019531 139.200195312 1105.20019531 139.200195312 1024.20019531 97.2001953125 c 128,-1,55
 943.200195312 55.2001953125 943.200195312 55.2001953125 815.400390625 14.400390625 c 128,-1,56
 687.599609375 -26.400390625 687.599609375 -26.400390625 592.799804688 -26.400390625 c 0,57,58
 481.200195312 -26.400390625 481.200195312 -26.400390625 402 0.599609375 c 128,-1,59
 322.799804688 27.599609375 322.799804688 27.599609375 272.400390625 75.599609375 c 128,-1,60
 222 123.599609375 222 123.599609375 198.599609375 190.200195312 c 128,-1,61
 175.200195312 256.799804688 175.200195312 256.799804688 175.200195312 336 c 0,62,63
 175.200195312 434.400390625 175.200195312 434.400390625 205.200195312 547.200195312 c 128,-1,64
 235.200195312 660 235.200195312 660 288.599609375 776.400390625 c 128,-1,65
 342 892.799804688 342 892.799804688 415.799804688 1009.20019531 c 128,-1,66
 489.599609375 1125.59960938 489.599609375 1125.59960938 577.799804688 1231.79980469 c 128,-1,67
 666 1338 666 1338 765.599609375 1429.20019531 c 128,-1,68
 865.200195312 1520.40039062 865.200195312 1520.40039062 969.599609375 1587.59960938 c 128,-1,69
 1074 1654.79980469 1074 1654.79980469 1179.59960938 1693.20019531 c 128,-1,70
 1285.20019531 1731.59960938 1285.20019531 1731.59960938 1387.20019531 1731.59960938 c 0,71,72
 1437.59960938 1731.59960938 1437.59960938 1731.59960938 1483.20019531 1720.20019531 c 128,-1,73
 1528.79980469 1708.79980469 1528.79980469 1708.79980469 1563 1683.59960938 c 128,-1,74
 1597.20019531 1658.40039062 1597.20019531 1658.40039062 1617 1617 c 128,-1,75
 1636.79980469 1575.59960938 1636.79980469 1575.59960938 1636.79980469 1515.59960938 c 0,0,1
EndSplineSet
EndChar

StartChar: D
Encoding: 68 68 39
Width: 614
VWidth: 2457
Flags: W
LayerCount: 2
Fore
SplineSet
1113.59960938 1081.20019531 m 0,0,1
 1093.20019531 1044 1093.20019531 1044 1060.20019531 982.799804688 c 128,-1,2
 1027.20019531 921.599609375 1027.20019531 921.599609375 984.599609375 846 c 128,-1,3
 942 770.400390625 942 770.400390625 892.200195312 683.400390625 c 128,-1,4
 842.400390625 596.400390625 842.400390625 596.400390625 789 508.799804688 c 128,-1,5
 735.599609375 421.200195312 735.599609375 421.200195312 679.799804688 336.599609375 c 128,-1,6
 624 252 624 252 571.200195312 180 c 1,7,8
 700.799804688 193.200195312 700.799804688 193.200195312 820.799804688 246 c 128,-1,9
 940.799804688 298.799804688 940.799804688 298.799804688 1045.79980469 377.400390625 c 128,-1,10
 1150.79980469 456 1150.79980469 456 1237.79980469 553.799804688 c 128,-1,11
 1324.79980469 651.599609375 1324.79980469 651.599609375 1386.59960938 756.599609375 c 128,-1,12
 1448.40039062 861.599609375 1448.40039062 861.599609375 1482.59960938 967.200195312 c 128,-1,13
 1516.79980469 1072.79980469 1516.79980469 1072.79980469 1516.79980469 1166.40039062 c 0,14,15
 1516.79980469 1245.59960938 1516.79980469 1245.59960938 1497 1312.79980469 c 128,-1,16
 1477.20019531 1380 1477.20019531 1380 1437 1429.20019531 c 128,-1,17
 1396.79980469 1478.40039062 1396.79980469 1478.40039062 1334.40039062 1506 c 128,-1,18
 1272 1533.59960938 1272 1533.59960938 1188 1533.59960938 c 0,19,20
 1110 1533.59960938 1110 1533.59960938 1031.40039062 1518.59960938 c 128,-1,21
 952.799804688 1503.59960938 952.799804688 1503.59960938 880.799804688 1478.40039062 c 128,-1,22
 808.799804688 1453.20019531 808.799804688 1453.20019531 748.200195312 1419 c 128,-1,23
 687.599609375 1384.79980469 687.599609375 1384.79980469 644.400390625 1345.20019531 c 1,24,25
 596.400390625 1292.40039062 596.400390625 1292.40039062 559.799804688 1239.59960938 c 128,-1,26
 523.200195312 1186.79980469 523.200195312 1186.79980469 487.799804688 1144.79980469 c 128,-1,27
 452.400390625 1102.79980469 452.400390625 1102.79980469 411.599609375 1076.40039062 c 128,-1,28
 370.799804688 1050 370.799804688 1050 315.599609375 1050 c 0,29,30
 212.400390625 1050 212.400390625 1050 212.400390625 1141.20019531 c 0,31,32
 212.400390625 1198.79980469 212.400390625 1198.79980469 249.599609375 1265.40039062 c 128,-1,33
 286.799804688 1332 286.799804688 1332 353.400390625 1397.40039062 c 128,-1,34
 420 1462.79980469 420 1462.79980469 511.799804688 1523.40039062 c 128,-1,35
 603.599609375 1584 603.599609375 1584 714 1630.20019531 c 128,-1,36
 824.400390625 1676.40039062 824.400390625 1676.40039062 949.200195312 1704 c 128,-1,37
 1074 1731.59960938 1074 1731.59960938 1206 1731.59960938 c 0,38,39
 1359.59960938 1731.59960938 1359.59960938 1731.59960938 1473.59960938 1686 c 128,-1,40
 1587.59960938 1640.40039062 1587.59960938 1640.40039062 1662.59960938 1560.59960938 c 128,-1,41
 1737.59960938 1480.79980469 1737.59960938 1480.79980469 1774.20019531 1372.79980469 c 128,-1,42
 1810.79980469 1264.79980469 1810.79980469 1264.79980469 1810.79980469 1140 c 128,-1,43
 1810.79980469 1015.20019531 1810.79980469 1015.20019531 1768.20019531 878.400390625 c 128,-1,44
 1725.59960938 741.599609375 1725.59960938 741.599609375 1643.40039062 609.599609375 c 128,-1,45
 1561.20019531 477.599609375 1561.20019531 477.599609375 1440.59960938 358.799804688 c 128,-1,46
 1320 240 1320 240 1163.40039062 150 c 128,-1,47
 1006.79980469 60 1006.79980469 60 816.599609375 7.2001953125 c 128,-1,48
 626.400390625 -45.599609375 626.400390625 -45.599609375 405.599609375 -45.599609375 c 0,49,50
 357.599609375 -45.599609375 357.599609375 -45.599609375 330 -15 c 128,-1,51
 302.400390625 15.599609375 302.400390625 15.599609375 302.400390625 60 c 0,52,53
 302.400390625 94.7998046875 302.400390625 94.7998046875 314.400390625 127.200195312 c 128,-1,54
 326.400390625 159.599609375 326.400390625 159.599609375 345.599609375 187.200195312 c 2,55,-1
 838.799804688 1167.59960938 l 1,56,57
 873.599609375 1221.59960938 873.599609375 1221.59960938 907.799804688 1254 c 128,-1,58
 942 1286.40039062 942 1286.40039062 971.400390625 1304.40039062 c 128,-1,59
 1000.79980469 1322.40039062 1000.79980469 1322.40039062 1023.59960938 1327.79980469 c 128,-1,60
 1046.40039062 1333.20019531 1046.40039062 1333.20019531 1058.40039062 1333.20019531 c 0,61,62
 1112.40039062 1333.20019531 1112.40039062 1333.20019531 1135.20019531 1302 c 128,-1,63
 1158 1270.79980469 1158 1270.79980469 1158 1227.59960938 c 0,64,65
 1158 1192.79980469 1158 1192.79980469 1146 1154.40039062 c 128,-1,66
 1134 1116 1134 1116 1113.59960938 1081.20019531 c 0,0,1
EndSplineSet
EndChar

StartChar: E
Encoding: 69 69 40
Width: 614
VWidth: 2457
Flags: W
LayerCount: 2
Fore
SplineSet
1293.59960938 990 m 0,0,1
 1312.79980469 990 1312.79980469 990 1330.79980469 985.200195312 c 128,-1,2
 1348.79980469 980.400390625 1348.79980469 980.400390625 1363.20019531 972 c 128,-1,3
 1377.59960938 963.599609375 1377.59960938 963.599609375 1386 952.200195312 c 128,-1,4
 1394.40039062 940.799804688 1394.40039062 940.799804688 1394.40039062 928.799804688 c 0,5,6
 1394.40039062 909.599609375 1394.40039062 909.599609375 1370.40039062 889.799804688 c 128,-1,7
 1346.40039062 870 1346.40039062 870 1287.59960938 853.200195312 c 128,-1,8
 1228.79980469 836.400390625 1228.79980469 836.400390625 1131 825.599609375 c 128,-1,9
 1033.20019531 814.799804688 1033.20019531 814.799804688 884.400390625 814.799804688 c 0,10,11
 804 814.799804688 804 814.799804688 724.799804688 792.599609375 c 128,-1,12
 645.599609375 770.400390625 645.599609375 770.400390625 583.200195312 727.200195312 c 128,-1,13
 520.799804688 684 520.799804688 684 481.799804688 621.599609375 c 128,-1,14
 442.799804688 559.200195312 442.799804688 559.200195312 442.799804688 478.799804688 c 0,15,16
 442.799804688 414 442.799804688 414 461.400390625 355.200195312 c 128,-1,17
 480 296.400390625 480 296.400390625 517.799804688 252 c 128,-1,18
 555.599609375 207.599609375 555.599609375 207.599609375 612.599609375 181.200195312 c 128,-1,19
 669.599609375 154.799804688 669.599609375 154.799804688 747.599609375 154.799804688 c 0,20,21
 904.799804688 154.799804688 904.799804688 154.799804688 1009.20019531 173.400390625 c 128,-1,22
 1113.59960938 192 1113.59960938 192 1183.79980469 220.200195312 c 128,-1,23
 1254 248.400390625 1254 248.400390625 1299 280.799804688 c 128,-1,24
 1344 313.200195312 1344 313.200195312 1383 341.400390625 c 128,-1,25
 1422 369.599609375 1422 369.599609375 1463.40039062 388.200195312 c 128,-1,26
 1504.79980469 406.799804688 1504.79980469 406.799804688 1567.20019531 406.799804688 c 0,27,28
 1617.59960938 406.799804688 1617.59960938 406.799804688 1646.40039062 382.200195312 c 128,-1,29
 1675.20019531 357.599609375 1675.20019531 357.599609375 1675.20019531 312 c 0,30,31
 1675.20019531 280.799804688 1675.20019531 280.799804688 1642.20019531 242.400390625 c 128,-1,32
 1609.20019531 204 1609.20019531 204 1548.59960938 163.799804688 c 128,-1,33
 1488 123.599609375 1488 123.599609375 1402.79980469 86.400390625 c 128,-1,34
 1317.59960938 49.2001953125 1317.59960938 49.2001953125 1213.20019531 19.7998046875 c 128,-1,35
 1108.79980469 -9.599609375 1108.79980469 -9.599609375 988.799804688 -27.599609375 c 128,-1,36
 868.799804688 -45.599609375 868.799804688 -45.599609375 739.200195312 -45.599609375 c 0,37,38
 620.400390625 -45.599609375 620.400390625 -45.599609375 516 -13.7998046875 c 128,-1,39
 411.599609375 18 411.599609375 18 333.599609375 81.599609375 c 128,-1,40
 255.599609375 145.200195312 255.599609375 145.200195312 210.599609375 240.599609375 c 128,-1,41
 165.599609375 336 165.599609375 336 165.599609375 464.400390625 c 0,42,43
 165.599609375 574.799804688 165.599609375 574.799804688 216 665.400390625 c 128,-1,44
 266.400390625 756 266.400390625 756 353.400390625 824.400390625 c 128,-1,45
 440.400390625 892.799804688 440.400390625 892.799804688 556.200195312 937.200195312 c 128,-1,46
 672 981.599609375 672 981.599609375 802.799804688 998.400390625 c 1,47,48
 702 1074 702 1074 661.200195312 1146.59960938 c 128,-1,49
 620.400390625 1219.20019531 620.400390625 1219.20019531 620.400390625 1290 c 0,50,51
 620.400390625 1359.59960938 620.400390625 1359.59960938 655.200195312 1419 c 128,-1,52
 690 1478.40039062 690 1478.40039062 750.599609375 1527.59960938 c 128,-1,53
 811.200195312 1576.79980469 811.200195312 1576.79980469 891.599609375 1614.59960938 c 128,-1,54
 972 1652.40039062 972 1652.40039062 1064.40039062 1678.20019531 c 128,-1,55
 1156.79980469 1704 1156.79980469 1704 1255.79980469 1717.79980469 c 128,-1,56
 1354.79980469 1731.59960938 1354.79980469 1731.59960938 1450.79980469 1731.59960938 c 0,57,58
 1549.20019531 1731.59960938 1549.20019531 1731.59960938 1637.40039062 1711.20019531 c 128,-1,59
 1725.59960938 1690.79980469 1725.59960938 1690.79980469 1795.20019531 1647.59960938 c 128,-1,60
 1864.79980469 1604.40039062 1864.79980469 1604.40039062 1909.20019531 1538.40039062 c 128,-1,61
 1953.59960938 1472.40039062 1953.59960938 1472.40039062 1963.20019531 1382.40039062 c 0,62,63
 1963.20019531 1357.20019531 1963.20019531 1357.20019531 1951.20019531 1330.79980469 c 128,-1,64
 1939.20019531 1304.40039062 1939.20019531 1304.40039062 1914.59960938 1282.20019531 c 128,-1,65
 1890 1260 1890 1260 1854.59960938 1246.20019531 c 128,-1,66
 1819.20019531 1232.40039062 1819.20019531 1232.40039062 1772.40039062 1232.40039062 c 0,67,68
 1747.20019531 1232.40039062 1747.20019531 1232.40039062 1732.20019531 1238.40039062 c 128,-1,69
 1717.20019531 1244.40039062 1717.20019531 1244.40039062 1709.40039062 1255.20019531 c 128,-1,70
 1701.59960938 1266 1701.59960938 1266 1699.79980469 1281 c 128,-1,71
 1698 1296 1698 1296 1698 1314 c 0,72,73
 1698 1370.40039062 1698 1370.40039062 1684.79980469 1411.20019531 c 128,-1,74
 1671.59960938 1452 1671.59960938 1452 1641 1477.79980469 c 128,-1,75
 1610.40039062 1503.59960938 1610.40039062 1503.59960938 1561.20019531 1516.20019531 c 128,-1,76
 1512 1528.79980469 1512 1528.79980469 1438.79980469 1528.79980469 c 0,77,78
 1351.20019531 1528.79980469 1351.20019531 1528.79980469 1256.40039062 1510.20019531 c 128,-1,79
 1161.59960938 1491.59960938 1161.59960938 1491.59960938 1082.40039062 1456.20019531 c 128,-1,80
 1003.20019531 1420.79980469 1003.20019531 1420.79980469 952.200195312 1371.59960938 c 128,-1,81
 901.200195312 1322.40039062 901.200195312 1322.40039062 901.200195312 1261.20019531 c 0,82,83
 901.200195312 1189.20019531 901.200195312 1189.20019531 934.200195312 1137.59960938 c 128,-1,84
 967.200195312 1086 967.200195312 1086 1021.79980469 1053 c 128,-1,85
 1076.40039062 1020 1076.40039062 1020 1147.20019531 1005 c 128,-1,86
 1218 990 1218 990 1293.59960938 990 c 0,0,1
EndSplineSet
EndChar

StartChar: F
Encoding: 70 70 41
Width: 614
VWidth: 2457
Flags: W
LayerCount: 2
Fore
SplineSet
1418.40039062 991.200195312 m 0,0,1
 1404 956.400390625 1404 956.400390625 1390.79980469 936 c 128,-1,2
 1377.59960938 915.599609375 1377.59960938 915.599609375 1362 904.200195312 c 128,-1,3
 1346.40039062 892.799804688 1346.40039062 892.799804688 1326.59960938 889.200195312 c 128,-1,4
 1306.79980469 885.599609375 1306.79980469 885.599609375 1280.40039062 885.599609375 c 0,5,6
 1167.59960938 895.200195312 1167.59960938 895.200195312 1086.59960938 900 c 128,-1,7
 1005.59960938 904.799804688 1005.59960938 904.799804688 943.200195312 904.799804688 c 0,8,9
 882 904.799804688 882 904.799804688 835.799804688 900 c 128,-1,10
 789.599609375 895.200195312 789.599609375 895.200195312 745.200195312 883.200195312 c 1,11,12
 727.200195312 854.400390625 727.200195312 854.400390625 691.200195312 792 c 128,-1,13
 655.200195312 729.599609375 655.200195312 729.599609375 611.400390625 649.799804688 c 128,-1,14
 567.599609375 570 567.599609375 570 522 480 c 128,-1,15
 476.400390625 390 476.400390625 390 438 307.200195312 c 0,16,17
 355.200195312 127.200195312 355.200195312 127.200195312 289.799804688 38.400390625 c 128,-1,18
 224.400390625 -50.400390625 224.400390625 -50.400390625 178.799804688 -50.400390625 c 0,19,20
 123.599609375 -50.400390625 123.599609375 -50.400390625 99 -30.599609375 c 128,-1,21
 74.400390625 -10.7998046875 74.400390625 -10.7998046875 74.400390625 27.599609375 c 0,22,23
 74.400390625 73.2001953125 74.400390625 73.2001953125 107.400390625 155.400390625 c 128,-1,24
 140.400390625 237.599609375 140.400390625 237.599609375 199.200195312 355.200195312 c 0,25,26
 220.799804688 398.400390625 220.799804688 398.400390625 246.599609375 447.599609375 c 128,-1,27
 272.400390625 496.799804688 272.400390625 496.799804688 298.799804688 546 c 128,-1,28
 325.200195312 595.200195312 325.200195312 595.200195312 350.400390625 642 c 128,-1,29
 375.599609375 688.799804688 375.599609375 688.799804688 396 726.599609375 c 128,-1,30
 416.400390625 764.400390625 416.400390625 764.400390625 430.200195312 790.799804688 c 128,-1,31
 444 817.200195312 444 817.200195312 447.599609375 825.599609375 c 0,32,33
 451.200195312 835.200195312 451.200195312 835.200195312 453 838.799804688 c 128,-1,34
 454.799804688 842.400390625 454.799804688 842.400390625 455.400390625 844.200195312 c 128,-1,35
 456 846 456 846 456 846.599609375 c 128,-1,36
 456 847.200195312 456 847.200195312 457.200195312 852 c 1,37,-1
 435.599609375 852 l 2,38,39
 390 852 390 852 362.400390625 859.200195312 c 128,-1,40
 334.799804688 866.400390625 334.799804688 866.400390625 334.799804688 890.400390625 c 0,41,42
 334.799804688 903.599609375 334.799804688 903.599609375 345.599609375 924 c 0,43,44
 370.799804688 970.799804688 370.799804688 970.799804688 402 995.400390625 c 128,-1,45
 433.200195312 1020 433.200195312 1020 462.599609375 1030.79980469 c 128,-1,46
 492 1041.59960938 492 1041.59960938 516.599609375 1042.20019531 c 128,-1,47
 541.200195312 1042.79980469 541.200195312 1042.79980469 554.400390625 1042.79980469 c 1,48,49
 586.799804688 1108.79980469 586.799804688 1108.79980469 619.200195312 1174.79980469 c 128,-1,50
 651.599609375 1240.79980469 651.599609375 1240.79980469 684 1306.79980469 c 0,51,52
 745.200195312 1428 745.200195312 1428 808.200195312 1509.59960938 c 128,-1,53
 871.200195312 1591.20019531 871.200195312 1591.20019531 945.599609375 1640.40039062 c 128,-1,54
 1020 1689.59960938 1020 1689.59960938 1110 1710.59960938 c 128,-1,55
 1200 1731.59960938 1200 1731.59960938 1315.20019531 1731.59960938 c 0,56,57
 1420.79980469 1731.59960938 1420.79980469 1731.59960938 1483.79980469 1725.59960938 c 128,-1,58
 1546.79980469 1719.59960938 1546.79980469 1719.59960938 1572 1713.59960938 c 0,59,60
 1620 1700.40039062 1620 1700.40039062 1639.79980469 1668.59960938 c 128,-1,61
 1659.59960938 1636.79980469 1659.59960938 1636.79980469 1659.59960938 1598.40039062 c 0,62,63
 1659.59960938 1568.40039062 1659.59960938 1568.40039062 1649.40039062 1538.40039062 c 128,-1,64
 1639.20019531 1508.40039062 1639.20019531 1508.40039062 1621.79980469 1483.79980469 c 128,-1,65
 1604.40039062 1459.20019531 1604.40039062 1459.20019531 1582.20019531 1443.59960938 c 128,-1,66
 1560 1428 1560 1428 1537.20019531 1428 c 0,67,68
 1524 1428 1524 1428 1514.40039062 1432.79980469 c 0,69,70
 1488 1444.79980469 1488 1444.79980469 1467 1453.79980469 c 128,-1,71
 1446 1462.79980469 1446 1462.79980469 1424.40039062 1468.20019531 c 128,-1,72
 1402.79980469 1473.59960938 1402.79980469 1473.59960938 1375.79980469 1476 c 128,-1,73
 1348.79980469 1478.40039062 1348.79980469 1478.40039062 1309.20019531 1478.40039062 c 0,74,75
 1268.40039062 1478.40039062 1268.40039062 1478.40039062 1212.59960938 1476.59960938 c 128,-1,76
 1156.79980469 1474.79980469 1156.79980469 1474.79980469 1076.40039062 1471.20019531 c 1,77,78
 1044 1414.79980469 1044 1414.79980469 1015.79980469 1366.20019531 c 128,-1,79
 987.599609375 1317.59960938 987.599609375 1317.59960938 960.599609375 1270.20019531 c 128,-1,80
 933.599609375 1222.79980469 933.599609375 1222.79980469 905.400390625 1174.20019531 c 128,-1,81
 877.200195312 1125.59960938 877.200195312 1125.59960938 843.599609375 1068 c 1,82,83
 888 1083.59960938 888 1083.59960938 940.200195312 1096.20019531 c 128,-1,84
 992.400390625 1108.79980469 992.400390625 1108.79980469 1047 1117.20019531 c 128,-1,85
 1101.59960938 1125.59960938 1101.59960938 1125.59960938 1156.79980469 1130.40039062 c 128,-1,86
 1212 1135.20019531 1212 1135.20019531 1262.40039062 1135.20019531 c 0,87,88
 1353.59960938 1135.20019531 1353.59960938 1135.20019531 1393.79980469 1120.79980469 c 128,-1,89
 1434 1106.40039062 1434 1106.40039062 1434 1062 c 0,90,91
 1434 1052.40039062 1434 1052.40039062 1432.79980469 1033.79980469 c 128,-1,92
 1431.59960938 1015.20019531 1431.59960938 1015.20019531 1418.40039062 991.200195312 c 0,0,1
EndSplineSet
EndChar

StartChar: G
Encoding: 71 71 42
Width: 614
VWidth: 2457
Flags: W
LayerCount: 2
Fore
SplineSet
1494 522 m 0,0,1
 1489.20019531 516 1489.20019531 516 1476.59960938 484.200195312 c 128,-1,2
 1464 452.400390625 1464 452.400390625 1446 404.400390625 c 128,-1,3
 1428 356.400390625 1428 356.400390625 1407 297 c 128,-1,4
 1386 237.599609375 1386 237.599609375 1363.79980469 175.799804688 c 128,-1,5
 1341.59960938 114 1341.59960938 114 1321.20019531 54.599609375 c 128,-1,6
 1300.79980469 -4.7998046875 1300.79980469 -4.7998046875 1284.59960938 -52.7998046875 c 128,-1,7
 1268.40039062 -100.799804688 1268.40039062 -100.799804688 1257.59960938 -133.200195312 c 128,-1,8
 1246.79980469 -165.599609375 1246.79980469 -165.599609375 1244.40039062 -171.599609375 c 0,9,10
 1238.40039062 -190.799804688 1238.40039062 -190.799804688 1225.20019531 -214.200195312 c 128,-1,11
 1212 -237.599609375 1212 -237.599609375 1194 -258.599609375 c 128,-1,12
 1176 -279.599609375 1176 -279.599609375 1154.40039062 -293.400390625 c 128,-1,13
 1132.79980469 -307.200195312 1132.79980469 -307.200195312 1110 -307.200195312 c 0,14,15
 1071.59960938 -307.200195312 1071.59960938 -307.200195312 1054.20019531 -285.599609375 c 128,-1,16
 1036.79980469 -264 1036.79980469 -264 1036.79980469 -206.400390625 c 0,17,18
 1036.79980469 -198 1036.79980469 -198 1036.79980469 -189.599609375 c 128,-1,19
 1036.79980469 -181.200195312 1036.79980469 -181.200195312 1038 -171.599609375 c 0,20,21
 1039.20019531 -152.400390625 1039.20019531 -152.400390625 1056 -99.599609375 c 128,-1,22
 1072.79980469 -46.7998046875 1072.79980469 -46.7998046875 1096.20019531 19.7998046875 c 128,-1,23
 1119.59960938 86.400390625 1119.59960938 86.400390625 1146.59960938 157.799804688 c 128,-1,24
 1173.59960938 229.200195312 1173.59960938 229.200195312 1195.20019531 285.599609375 c 1,25,26
 1131.59960938 225.599609375 1131.59960938 225.599609375 1057.20019531 166.200195312 c 128,-1,27
 982.799804688 106.799804688 982.799804688 106.799804688 904.799804688 59.400390625 c 128,-1,28
 826.799804688 12 826.799804688 12 747.599609375 -18 c 128,-1,29
 668.400390625 -48 668.400390625 -48 595.200195312 -48 c 0,30,31
 511.200195312 -48 511.200195312 -48 450.599609375 -16.7998046875 c 128,-1,32
 390 14.400390625 390 14.400390625 350.400390625 64.7998046875 c 128,-1,33
 310.799804688 115.200195312 310.799804688 115.200195312 291.599609375 178.799804688 c 128,-1,34
 272.400390625 242.400390625 272.400390625 242.400390625 272.400390625 306 c 0,35,36
 272.400390625 314.400390625 272.400390625 314.400390625 272.400390625 321.599609375 c 128,-1,37
 272.400390625 328.799804688 272.400390625 328.799804688 273.599609375 336 c 0,38,39
 280.799804688 451.200195312 280.799804688 451.200195312 312.599609375 572.400390625 c 128,-1,40
 344.400390625 693.599609375 344.400390625 693.599609375 396 813.599609375 c 128,-1,41
 447.599609375 933.599609375 447.599609375 933.599609375 515.400390625 1048.20019531 c 128,-1,42
 583.200195312 1162.79980469 583.200195312 1162.79980469 663 1264.79980469 c 128,-1,43
 742.799804688 1366.79980469 742.799804688 1366.79980469 832.799804688 1452.59960938 c 128,-1,44
 922.799804688 1538.40039062 922.799804688 1538.40039062 1017.59960938 1600.20019531 c 128,-1,45
 1112.40039062 1662 1112.40039062 1662 1209 1696.79980469 c 128,-1,46
 1305.59960938 1731.59960938 1305.59960938 1731.59960938 1400.40039062 1731.59960938 c 0,47,48
 1509.59960938 1731.59960938 1509.59960938 1731.59960938 1611.59960938 1681.20019531 c 128,-1,49
 1713.59960938 1630.79980469 1713.59960938 1630.79980469 1802.40039062 1518 c 0,50,51
 1822.79980469 1492.79980469 1822.79980469 1492.79980469 1828.20019531 1467 c 128,-1,52
 1833.59960938 1441.20019531 1833.59960938 1441.20019531 1833.59960938 1418.40039062 c 0,53,54
 1833.59960938 1364.40039062 1833.59960938 1364.40039062 1803 1333.20019531 c 128,-1,55
 1772.40039062 1302 1772.40039062 1302 1730.40039062 1302 c 0,56,57
 1692 1302 1692 1302 1659 1336.20019531 c 128,-1,58
 1626 1370.40039062 1626 1370.40039062 1585.20019531 1434 c 0,59,60
 1546.79980469 1491.59960938 1546.79980469 1491.59960938 1500.59960938 1517.40039062 c 128,-1,61
 1454.40039062 1543.20019531 1454.40039062 1543.20019531 1400.40039062 1543.20019531 c 0,62,63
 1316.40039062 1543.20019531 1316.40039062 1543.20019531 1221 1484.40039062 c 128,-1,64
 1125.59960938 1425.59960938 1125.59960938 1425.59960938 1032 1329 c 128,-1,65
 938.400390625 1232.40039062 938.400390625 1232.40039062 852.599609375 1108.20019531 c 128,-1,66
 766.799804688 984 766.799804688 984 700.799804688 853.799804688 c 128,-1,67
 634.799804688 723.599609375 634.799804688 723.599609375 595.799804688 597 c 128,-1,68
 556.799804688 470.400390625 556.799804688 470.400390625 556.799804688 369.599609375 c 0,69,70
 556.799804688 336 556.799804688 336 562.200195312 300.599609375 c 128,-1,71
 567.599609375 265.200195312 567.599609375 265.200195312 582.599609375 236.400390625 c 128,-1,72
 597.599609375 207.599609375 597.599609375 207.599609375 623.400390625 189 c 128,-1,73
 649.200195312 170.400390625 649.200195312 170.400390625 688.799804688 170.400390625 c 0,74,75
 733.200195312 170.400390625 733.200195312 170.400390625 789.599609375 195.599609375 c 128,-1,76
 846 220.799804688 846 220.799804688 906.599609375 261.599609375 c 128,-1,77
 967.200195312 302.400390625 967.200195312 302.400390625 1028.40039062 354 c 128,-1,78
 1089.59960938 405.599609375 1089.59960938 405.599609375 1142.40039062 458.400390625 c 128,-1,79
 1195.20019531 511.200195312 1195.20019531 511.200195312 1236 559.799804688 c 128,-1,80
 1276.79980469 608.400390625 1276.79980469 608.400390625 1297.20019531 644.400390625 c 1,81,-1
 1408.79980469 926.400390625 l 2,82,83
 1429.20019531 972 1429.20019531 972 1462.20019531 991.200195312 c 128,-1,84
 1495.20019531 1010.40039062 1495.20019531 1010.40039062 1530 1010.40039062 c 0,85,86
 1546.79980469 1010.40039062 1546.79980469 1010.40039062 1563.59960938 1005.59960938 c 128,-1,87
 1580.40039062 1000.79980469 1580.40039062 1000.79980469 1593.59960938 990.599609375 c 128,-1,88
 1606.79980469 980.400390625 1606.79980469 980.400390625 1614.59960938 964.200195312 c 128,-1,89
 1622.40039062 948 1622.40039062 948 1622.40039062 926.400390625 c 0,90,91
 1622.40039062 868.799804688 1622.40039062 868.799804688 1610.40039062 818.400390625 c 128,-1,92
 1598.40039062 768 1598.40039062 768 1579.79980469 720 c 128,-1,93
 1561.20019531 672 1561.20019531 672 1538.40039062 623.400390625 c 128,-1,94
 1515.59960938 574.799804688 1515.59960938 574.799804688 1494 522 c 0,0,1
EndSplineSet
EndChar

StartChar: H
Encoding: 72 72 43
Width: 614
VWidth: 2457
Flags: W
LayerCount: 2
Fore
SplineSet
1681.20019531 486 m 0,0,1
 1675.20019531 486 1675.20019531 486 1671 485.400390625 c 128,-1,2
 1666.79980469 484.799804688 1666.79980469 484.799804688 1662 484.799804688 c 0,3,4
 1603.20019531 352.799804688 1603.20019531 352.799804688 1558.20019531 253.200195312 c 128,-1,5
 1513.20019531 153.599609375 1513.20019531 153.599609375 1489.20019531 109.200195312 c 0,6,7
 1468.79980469 72 1468.79980469 72 1443 44.400390625 c 128,-1,8
 1417.20019531 16.7998046875 1417.20019531 16.7998046875 1388.40039062 -1.7998046875 c 128,-1,9
 1359.59960938 -20.400390625 1359.59960938 -20.400390625 1330.20019531 -29.400390625 c 128,-1,10
 1300.79980469 -38.400390625 1300.79980469 -38.400390625 1275.59960938 -38.400390625 c 0,11,12
 1238.40039062 -38.400390625 1238.40039062 -38.400390625 1213.20019531 -20.400390625 c 128,-1,13
 1188 -2.400390625 1188 -2.400390625 1188 33.599609375 c 0,14,15
 1188 64.7998046875 1188 64.7998046875 1207.20019531 106.799804688 c 2,16,-1
 1380 472.799804688 l 1,17,18
 1249.20019531 468 1249.20019531 468 1128.59960938 464.400390625 c 128,-1,19
 1008 460.799804688 1008 460.799804688 896.400390625 458.400390625 c 1,20,21
 840 343.200195312 840 343.200195312 775.200195312 241.799804688 c 128,-1,22
 710.400390625 140.400390625 710.400390625 140.400390625 638.400390625 64.7998046875 c 128,-1,23
 566.400390625 -10.7998046875 566.400390625 -10.7998046875 488.400390625 -54.599609375 c 128,-1,24
 410.400390625 -98.400390625 410.400390625 -98.400390625 326.400390625 -98.400390625 c 0,25,26
 261.599609375 -98.400390625 261.599609375 -98.400390625 206.400390625 -64.7998046875 c 0,27,28
 189.599609375 -57.599609375 189.599609375 -57.599609375 169.799804688 -37.7998046875 c 128,-1,29
 150 -18 150 -18 133.200195312 9.599609375 c 128,-1,30
 116.400390625 37.2001953125 116.400390625 37.2001953125 105 69.599609375 c 128,-1,31
 93.599609375 102 93.599609375 102 93.599609375 135.599609375 c 0,32,33
 93.599609375 159.599609375 93.599609375 159.599609375 102 181.799804688 c 128,-1,34
 110.400390625 204 110.400390625 204 126 224.400390625 c 0,35,36
 133.200195312 232.799804688 133.200195312 232.799804688 142.799804688 246 c 128,-1,37
 152.400390625 259.200195312 152.400390625 259.200195312 165.599609375 271.799804688 c 128,-1,38
 178.799804688 284.400390625 178.799804688 284.400390625 193.799804688 292.799804688 c 128,-1,39
 208.799804688 301.200195312 208.799804688 301.200195312 226.799804688 301.200195312 c 0,40,41
 234 301.200195312 234 301.200195312 241.200195312 299.400390625 c 128,-1,42
 248.400390625 297.599609375 248.400390625 297.599609375 254.400390625 292.799804688 c 0,43,44
 266.400390625 285.599609375 266.400390625 285.599609375 277.799804688 260.400390625 c 128,-1,45
 289.200195312 235.200195312 289.200195312 235.200195312 303 208.200195312 c 128,-1,46
 316.799804688 181.200195312 316.799804688 181.200195312 333.599609375 159.599609375 c 128,-1,47
 350.400390625 138 350.400390625 138 373.200195312 138 c 0,48,49
 405.599609375 138 405.599609375 138 438.599609375 162.599609375 c 128,-1,50
 471.599609375 187.200195312 471.599609375 187.200195312 505.799804688 231 c 128,-1,51
 540 274.799804688 540 274.799804688 574.799804688 336 c 128,-1,52
 609.599609375 397.200195312 609.599609375 397.200195312 644.400390625 469.200195312 c 1,53,54
 606 481.200195312 606 481.200195312 590.400390625 503.400390625 c 128,-1,55
 574.799804688 525.599609375 574.799804688 525.599609375 574.799804688 549.599609375 c 0,56,57
 574.799804688 564 574.799804688 564 585.599609375 578.400390625 c 128,-1,58
 596.400390625 592.799804688 596.400390625 592.799804688 615.599609375 604.200195312 c 128,-1,59
 634.799804688 615.599609375 634.799804688 615.599609375 660.599609375 624 c 128,-1,60
 686.400390625 632.400390625 686.400390625 632.400390625 717.599609375 633.599609375 c 1,61,62
 760.799804688 739.200195312 760.799804688 739.200195312 800.400390625 853.200195312 c 128,-1,63
 840 967.200195312 840 967.200195312 876 1076.40039062 c 128,-1,64
 912 1185.59960938 912 1185.59960938 942 1285.79980469 c 128,-1,65
 972 1386 972 1386 994.799804688 1465.20019531 c 128,-1,66
 1017.59960938 1544.40039062 1017.59960938 1544.40039062 1032 1596 c 128,-1,67
 1046.40039062 1647.59960938 1046.40039062 1647.59960938 1050 1660.79980469 c 0,68,69
 1059.59960938 1698 1059.59960938 1698 1086.59960938 1714.79980469 c 128,-1,70
 1113.59960938 1731.59960938 1113.59960938 1731.59960938 1144.79980469 1731.59960938 c 0,71,72
 1191.59960938 1731.59960938 1191.59960938 1731.59960938 1216.20019531 1701 c 128,-1,73
 1240.79980469 1670.40039062 1240.79980469 1670.40039062 1240.79980469 1590 c 0,74,75
 1240.79980469 1580.40039062 1240.79980469 1580.40039062 1240.79980469 1570.20019531 c 128,-1,76
 1240.79980469 1560 1240.79980469 1560 1239.59960938 1548 c 0,77,78
 1237.20019531 1516.79980469 1237.20019531 1516.79980469 1227.59960938 1463.40039062 c 128,-1,79
 1218 1410 1218 1410 1202.40039062 1340.40039062 c 128,-1,80
 1186.79980469 1270.79980469 1186.79980469 1270.79980469 1164 1187.40039062 c 128,-1,81
 1141.20019531 1104 1141.20019531 1104 1113 1013.40039062 c 128,-1,82
 1084.79980469 922.799804688 1084.79980469 922.799804688 1050.59960938 826.799804688 c 128,-1,83
 1016.40039062 730.799804688 1016.40039062 730.799804688 976.799804688 636 c 1,84,85
 1014 636 1014 636 1058.40039062 636 c 128,-1,86
 1102.79980469 636 1102.79980469 636 1158.59960938 635.400390625 c 128,-1,87
 1214.40039062 634.799804688 1214.40039062 634.799804688 1285.20019531 633 c 128,-1,88
 1356 631.200195312 1356 631.200195312 1447.20019531 628.799804688 c 0,89,90
 1448.40039062 628.799804688 1448.40039062 628.799804688 1449.59960938 628.200195312 c 128,-1,91
 1450.79980469 627.599609375 1450.79980469 627.599609375 1452 627.599609375 c 0,92,93
 1557.59960938 849.599609375 1557.59960938 849.599609375 1652.40039062 1045.79980469 c 128,-1,94
 1747.20019531 1242 1747.20019531 1242 1826.40039062 1389 c 128,-1,95
 1905.59960938 1536 1905.59960938 1536 1966.79980469 1621.20019531 c 128,-1,96
 2028 1706.40039062 2028 1706.40039062 2067.59960938 1706.40039062 c 0,97,98
 2109.59960938 1706.40039062 2109.59960938 1706.40039062 2130.59960938 1686.59960938 c 128,-1,99
 2151.59960938 1666.79980469 2151.59960938 1666.79980469 2151.59960938 1633.20019531 c 0,100,101
 2151.59960938 1615.20019531 2151.59960938 1615.20019531 2147.40039062 1601.40039062 c 128,-1,102
 2143.20019531 1587.59960938 2143.20019531 1587.59960938 2136 1570.79980469 c 0,103,104
 2104.79980469 1495.20019531 2104.79980469 1495.20019531 2056.79980469 1384.79980469 c 128,-1,105
 2008.79980469 1274.40039062 2008.79980469 1274.40039062 1952.40039062 1146.59960938 c 128,-1,106
 1896 1018.79980469 1896 1018.79980469 1835.40039062 881.400390625 c 128,-1,107
 1774.79980469 744 1774.79980469 744 1718.40039062 615.599609375 c 1,108,109
 1754.40039062 608.400390625 1754.40039062 608.400390625 1777.79980469 595.799804688 c 128,-1,110
 1801.20019531 583.200195312 1801.20019531 583.200195312 1801.20019531 562.799804688 c 0,111,112
 1801.20019531 536.400390625 1801.20019531 536.400390625 1773.59960938 513 c 128,-1,113
 1746 489.599609375 1746 489.599609375 1681.20019531 486 c 0,0,1
EndSplineSet
EndChar

StartChar: I
Encoding: 73 73 44
Width: 614
VWidth: 2457
Flags: W
LayerCount: 2
Fore
SplineSet
933.599609375 9.599609375 m 0,0,1
 854.400390625 18 854.400390625 18 792.599609375 21 c 128,-1,2
 730.799804688 24 730.799804688 24 676.799804688 24 c 0,3,4
 640.799804688 24 640.799804688 24 606.599609375 22.7998046875 c 128,-1,5
 572.400390625 21.599609375 572.400390625 21.599609375 538.200195312 21 c 128,-1,6
 504 20.400390625 504 20.400390625 467.400390625 19.2001953125 c 128,-1,7
 430.799804688 18 430.799804688 18 390 18 c 0,8,9
 350.400390625 18 350.400390625 18 328.799804688 40.7998046875 c 128,-1,10
 307.200195312 63.599609375 307.200195312 63.599609375 307.200195312 97.2001953125 c 0,11,12
 307.200195312 110.400390625 307.200195312 110.400390625 310.799804688 124.799804688 c 0,13,14
 314.400390625 136.799804688 314.400390625 136.799804688 339 150.599609375 c 128,-1,15
 363.599609375 164.400390625 363.599609375 164.400390625 403.799804688 177 c 128,-1,16
 444 189.599609375 444 189.599609375 498 199.200195312 c 128,-1,17
 552 208.799804688 552 208.799804688 613.200195312 213.599609375 c 1,18,19
 675.599609375 349.200195312 675.599609375 349.200195312 743.400390625 487.799804688 c 128,-1,20
 811.200195312 626.400390625 811.200195312 626.400390625 879.599609375 757.799804688 c 128,-1,21
 948 889.200195312 948 889.200195312 1012.79980469 1009.20019531 c 128,-1,22
 1077.59960938 1129.20019531 1077.59960938 1129.20019531 1134 1228.20019531 c 128,-1,23
 1190.40039062 1327.20019531 1190.40039062 1327.20019531 1235.40039062 1400.40039062 c 128,-1,24
 1280.40039062 1473.59960938 1280.40039062 1473.59960938 1309.20019531 1512 c 1,25,26
 1248 1498.79980469 1248 1498.79980469 1190.40039062 1483.79980469 c 128,-1,27
 1132.79980469 1468.79980469 1132.79980469 1468.79980469 1060.79980469 1454.40039062 c 0,28,29
 1046.40039062 1449.59960938 1046.40039062 1449.59960938 1032 1449.59960938 c 0,30,31
 997.200195312 1449.59960938 997.200195312 1449.59960938 978 1474.20019531 c 128,-1,32
 958.799804688 1498.79980469 958.799804688 1498.79980469 958.799804688 1533.59960938 c 0,33,34
 958.799804688 1549.20019531 958.799804688 1549.20019531 987 1570.20019531 c 128,-1,35
 1015.20019531 1591.20019531 1015.20019531 1591.20019531 1065 1613.40039062 c 128,-1,36
 1114.79980469 1635.59960938 1114.79980469 1635.59960938 1182.59960938 1656.59960938 c 128,-1,37
 1250.40039062 1677.59960938 1250.40039062 1677.59960938 1330.20019531 1694.40039062 c 128,-1,38
 1410 1711.20019531 1410 1711.20019531 1498.20019531 1721.40039062 c 128,-1,39
 1586.40039062 1731.59960938 1586.40039062 1731.59960938 1676.40039062 1731.59960938 c 0,40,41
 1760.40039062 1731.59960938 1760.40039062 1731.59960938 1807.79980469 1714.20019531 c 128,-1,42
 1855.20019531 1696.79980469 1855.20019531 1696.79980469 1855.20019531 1654.79980469 c 0,43,44
 1855.20019531 1634.40039062 1855.20019531 1634.40039062 1843.20019531 1613.40039062 c 128,-1,45
 1831.20019531 1592.40039062 1831.20019531 1592.40039062 1811.40039062 1575.59960938 c 128,-1,46
 1791.59960938 1558.79980469 1791.59960938 1558.79980469 1764 1548.59960938 c 128,-1,47
 1736.40039062 1538.40039062 1736.40039062 1538.40039062 1706.40039062 1538.40039062 c 0,48,49
 1689.59960938 1538.40039062 1689.59960938 1538.40039062 1675.20019531 1540.20019531 c 128,-1,50
 1660.79980469 1542 1660.79980469 1542 1644 1542 c 0,51,52
 1599.59960938 1542 1599.59960938 1542 1561.20019531 1540.20019531 c 128,-1,53
 1522.79980469 1538.40039062 1522.79980469 1538.40039062 1488 1536 c 1,54,55
 1490.40039062 1524 1490.40039062 1524 1490.40039062 1518 c 0,56,57
 1490.40039062 1501.20019531 1490.40039062 1501.20019531 1484.40039062 1486.20019531 c 128,-1,58
 1478.40039062 1471.20019531 1478.40039062 1471.20019531 1472.40039062 1458 c 0,59,60
 1435.20019531 1380 1435.20019531 1380 1382.40039062 1270.20019531 c 128,-1,61
 1329.59960938 1160.40039062 1329.59960938 1160.40039062 1269.59960938 1036.79980469 c 128,-1,62
 1209.59960938 913.200195312 1209.59960938 913.200195312 1147.79980469 786 c 128,-1,63
 1086 658.799804688 1086 658.799804688 1030.79980469 546 c 128,-1,64
 975.599609375 433.200195312 975.599609375 433.200195312 931.200195312 345 c 128,-1,65
 886.799804688 256.799804688 886.799804688 256.799804688 864 211.200195312 c 1,66,67
 931.200195312 205.200195312 931.200195312 205.200195312 987.599609375 195 c 128,-1,68
 1044 184.799804688 1044 184.799804688 1084.20019531 169.799804688 c 128,-1,69
 1124.40039062 154.799804688 1124.40039062 154.799804688 1147.20019531 134.400390625 c 128,-1,70
 1170 114 1170 114 1170 88.7998046875 c 0,71,72
 1170 70.7998046875 1170 70.7998046875 1158 53.400390625 c 128,-1,73
 1146 36 1146 36 1126.79980469 22.2001953125 c 128,-1,74
 1107.59960938 8.400390625 1107.59960938 8.400390625 1083.59960938 0.599609375 c 128,-1,75
 1059.59960938 -7.2001953125 1059.59960938 -7.2001953125 1034.40039062 -7.2001953125 c 0,76,77
 1006.79980469 -7.2001953125 1006.79980469 -7.2001953125 982.200195312 0 c 128,-1,78
 957.599609375 7.2001953125 957.599609375 7.2001953125 933.599609375 9.599609375 c 0,0,1
EndSplineSet
EndChar

StartChar: J
Encoding: 74 74 45
Width: 614
VWidth: 2457
Flags: W
LayerCount: 2
Fore
SplineSet
1516.79980469 763.200195312 m 1,0,1
 1442.40039062 598.799804688 1442.40039062 598.799804688 1355.40039062 450.599609375 c 128,-1,2
 1268.40039062 302.400390625 1268.40039062 302.400390625 1169.40039062 190.799804688 c 128,-1,3
 1070.40039062 79.2001953125 1070.40039062 79.2001953125 962.400390625 13.7998046875 c 128,-1,4
 854.400390625 -51.599609375 854.400390625 -51.599609375 739.200195312 -51.599609375 c 0,5,6
 672 -51.599609375 672 -51.599609375 603.599609375 -30 c 128,-1,7
 535.200195312 -8.400390625 535.200195312 -8.400390625 463.799804688 37.7998046875 c 128,-1,8
 392.400390625 84 392.400390625 84 319.799804688 156.599609375 c 128,-1,9
 247.200195312 229.200195312 247.200195312 229.200195312 172.799804688 332.400390625 c 0,10,11
 154.799804688 352.799804688 154.799804688 352.799804688 147.599609375 373.200195312 c 128,-1,12
 140.400390625 393.599609375 140.400390625 393.599609375 140.400390625 417.599609375 c 0,13,14
 140.400390625 435.599609375 140.400390625 435.599609375 151.799804688 462 c 128,-1,15
 163.200195312 488.400390625 163.200195312 488.400390625 184.799804688 513 c 128,-1,16
 206.400390625 537.599609375 206.400390625 537.599609375 237.599609375 555 c 128,-1,17
 268.799804688 572.400390625 268.799804688 572.400390625 308.400390625 572.400390625 c 0,18,19
 332.400390625 572.400390625 332.400390625 572.400390625 352.799804688 564 c 128,-1,20
 373.200195312 555.599609375 373.200195312 555.599609375 390 535.200195312 c 1,21,22
 486 343.200195312 486 343.200195312 580.200195312 254.400390625 c 128,-1,23
 674.400390625 165.599609375 674.400390625 165.599609375 766.799804688 165.599609375 c 0,24,25
 834 165.599609375 834 165.599609375 900.599609375 209.400390625 c 128,-1,26
 967.200195312 253.200195312 967.200195312 253.200195312 1033.20019531 336.599609375 c 128,-1,27
 1099.20019531 420 1099.20019531 420 1165.79980469 540 c 128,-1,28
 1232.40039062 660 1232.40039062 660 1299.59960938 812.400390625 c 1,29,-1
 1644 1526.40039062 l 1,30,31
 1515.59960938 1527.59960938 1515.59960938 1527.59960938 1432.20019531 1527.59960938 c 128,-1,32
 1348.79980469 1527.59960938 1348.79980469 1527.59960938 1317.59960938 1527.59960938 c 0,33,34
 1296 1527.59960938 1296 1527.59960938 1278.59960938 1537.20019531 c 128,-1,35
 1261.20019531 1546.79980469 1261.20019531 1546.79980469 1248.59960938 1561.20019531 c 128,-1,36
 1236 1575.59960938 1236 1575.59960938 1228.79980469 1593.59960938 c 128,-1,37
 1221.59960938 1611.59960938 1221.59960938 1611.59960938 1221.59960938 1628.40039062 c 0,38,39
 1221.59960938 1662 1221.59960938 1662 1248 1683 c 128,-1,40
 1274.40039062 1704 1274.40039062 1704 1332 1704 c 0,41,42
 1342.79980469 1704 1342.79980469 1704 1354.20019531 1703.40039062 c 128,-1,43
 1365.59960938 1702.79980469 1365.59960938 1702.79980469 1376.40039062 1702.79980469 c 0,44,45
 1465.20019531 1702.79980469 1465.20019531 1702.79980469 1554.59960938 1707.59960938 c 128,-1,46
 1644 1712.40039062 1644 1712.40039062 1732.20019531 1717.79980469 c 128,-1,47
 1820.40039062 1723.20019531 1820.40039062 1723.20019531 1908.59960938 1728 c 128,-1,48
 1996.79980469 1732.79980469 1996.79980469 1732.79980469 2083.20019531 1732.79980469 c 0,49,50
 2151.59960938 1732.79980469 2151.59960938 1732.79980469 2195.40039062 1728.59960938 c 128,-1,51
 2239.20019531 1724.40039062 2239.20019531 1724.40039062 2264.40039062 1716.59960938 c 128,-1,52
 2289.59960938 1708.79980469 2289.59960938 1708.79980469 2299.20019531 1696.79980469 c 128,-1,53
 2308.79980469 1684.79980469 2308.79980469 1684.79980469 2308.79980469 1670.40039062 c 0,54,55
 2308.79980469 1651.20019531 2308.79980469 1651.20019531 2299.79980469 1630.79980469 c 128,-1,56
 2290.79980469 1610.40039062 2290.79980469 1610.40039062 2265.59960938 1593 c 128,-1,57
 2240.40039062 1575.59960938 2240.40039062 1575.59960938 2194.20019531 1564.79980469 c 128,-1,58
 2148 1554 2148 1554 2073.59960938 1554 c 0,59,60
 2038.79980469 1554 2038.79980469 1554 1997.40039062 1551 c 128,-1,61
 1956 1548 1956 1548 1906.79980469 1542 c 1,62,-1
 1516.79980469 763.200195312 l 1,0,1
EndSplineSet
EndChar

StartChar: K
Encoding: 75 75 46
Width: 614
VWidth: 2457
Flags: W
LayerCount: 2
Fore
SplineSet
345.599609375 -64.7998046875 m 0,0,1
 328.799804688 -57.599609375 328.799804688 -57.599609375 310.200195312 -38.400390625 c 128,-1,2
 291.599609375 -19.2001953125 291.599609375 -19.2001953125 274.799804688 7.2001953125 c 128,-1,3
 258 33.599609375 258 33.599609375 247.200195312 65.400390625 c 128,-1,4
 236.400390625 97.2001953125 236.400390625 97.2001953125 236.400390625 129.599609375 c 0,5,6
 236.400390625 177.599609375 236.400390625 177.599609375 270 224.400390625 c 0,7,8
 277.200195312 232.799804688 277.200195312 232.799804688 287.400390625 246 c 128,-1,9
 297.599609375 259.200195312 297.599609375 259.200195312 311.400390625 271.799804688 c 128,-1,10
 325.200195312 284.400390625 325.200195312 284.400390625 340.799804688 292.799804688 c 128,-1,11
 356.400390625 301.200195312 356.400390625 301.200195312 373.200195312 301.200195312 c 0,12,13
 380.400390625 301.200195312 380.400390625 301.200195312 387.599609375 299.400390625 c 128,-1,14
 394.799804688 297.599609375 394.799804688 297.599609375 400.799804688 292.799804688 c 0,15,16
 412.799804688 285.599609375 412.799804688 285.599609375 423.599609375 260.400390625 c 128,-1,17
 434.400390625 235.200195312 434.400390625 235.200195312 447.599609375 208.200195312 c 128,-1,18
 460.799804688 181.200195312 460.799804688 181.200195312 477.599609375 159.599609375 c 128,-1,19
 494.400390625 138 494.400390625 138 516 138 c 0,20,21
 556.799804688 138 556.799804688 138 602.400390625 178.200195312 c 128,-1,22
 648 218.400390625 648 218.400390625 694.799804688 288 c 128,-1,23
 741.599609375 357.599609375 741.599609375 357.599609375 789.599609375 450.599609375 c 128,-1,24
 837.599609375 543.599609375 837.599609375 543.599609375 883.799804688 649.200195312 c 128,-1,25
 930 754.799804688 930 754.799804688 973.200195312 867.599609375 c 128,-1,26
 1016.40039062 980.400390625 1016.40039062 980.400390625 1055.40039062 1088.40039062 c 128,-1,27
 1094.40039062 1196.40039062 1094.40039062 1196.40039062 1127.40039062 1294.79980469 c 128,-1,28
 1160.40039062 1393.20019531 1160.40039062 1393.20019531 1185 1470.59960938 c 128,-1,29
 1209.59960938 1548 1209.59960938 1548 1225.20019531 1598.40039062 c 128,-1,30
 1240.79980469 1648.79980469 1240.79980469 1648.79980469 1244.40039062 1662 c 0,31,32
 1255.20019531 1699.20019531 1255.20019531 1699.20019531 1282.20019531 1716 c 128,-1,33
 1309.20019531 1732.79980469 1309.20019531 1732.79980469 1340.40039062 1732.79980469 c 0,34,35
 1386 1732.79980469 1386 1732.79980469 1410 1704.59960938 c 128,-1,36
 1434 1676.40039062 1434 1676.40039062 1434 1602 c 0,37,38
 1434 1590 1434 1590 1433.40039062 1576.79980469 c 128,-1,39
 1432.79980469 1563.59960938 1432.79980469 1563.59960938 1431.59960938 1549.20019531 c 0,40,41
 1428 1514.40039062 1428 1514.40039062 1415.40039062 1452.59960938 c 128,-1,42
 1402.79980469 1390.79980469 1402.79980469 1390.79980469 1381.20019531 1310.40039062 c 128,-1,43
 1359.59960938 1230 1359.59960938 1230 1329.59960938 1134 c 128,-1,44
 1299.59960938 1038 1299.59960938 1038 1262.40039062 934.799804688 c 1,45,46
 1434 1081.20019531 1434 1081.20019531 1566.59960938 1190.40039062 c 128,-1,47
 1699.20019531 1299.59960938 1699.20019531 1299.59960938 1799.40039062 1378.20019531 c 128,-1,48
 1899.59960938 1456.79980469 1899.59960938 1456.79980469 1970.40039062 1507.79980469 c 128,-1,49
 2041.20019531 1558.79980469 2041.20019531 1558.79980469 2089.79980469 1588.20019531 c 128,-1,50
 2138.40039062 1617.59960938 2138.40039062 1617.59960938 2167.20019531 1629.59960938 c 128,-1,51
 2196 1641.59960938 2196 1641.59960938 2212.79980469 1641.59960938 c 0,52,53
 2230.79980469 1641.59960938 2230.79980469 1641.59960938 2244 1632 c 128,-1,54
 2257.20019531 1622.40039062 2257.20019531 1622.40039062 2266.20019531 1609.20019531 c 128,-1,55
 2275.20019531 1596 2275.20019531 1596 2279.40039062 1582.20019531 c 128,-1,56
 2283.59960938 1568.40039062 2283.59960938 1568.40039062 2283.59960938 1560 c 0,57,58
 2283.59960938 1539.59960938 2283.59960938 1539.59960938 2273.40039062 1521 c 128,-1,59
 2263.20019531 1502.40039062 2263.20019531 1502.40039062 2242.79980469 1489.20019531 c 0,60,61
 2158.79980469 1430.40039062 2158.79980469 1430.40039062 2066.40039062 1359.59960938 c 128,-1,62
 1974 1288.79980469 1974 1288.79980469 1881 1213.79980469 c 128,-1,63
 1788 1138.79980469 1788 1138.79980469 1698 1063.20019531 c 128,-1,64
 1608 987.599609375 1608 987.599609375 1528.20019531 920.400390625 c 128,-1,65
 1448.40039062 853.200195312 1448.40039062 853.200195312 1383 799.200195312 c 128,-1,66
 1317.59960938 745.200195312 1317.59960938 745.200195312 1273.20019531 711.599609375 c 1,67,68
 1336.79980469 626.400390625 1336.79980469 626.400390625 1396.20019531 549.599609375 c 128,-1,69
 1455.59960938 472.799804688 1455.59960938 472.799804688 1510.20019531 400.200195312 c 128,-1,70
 1564.79980469 327.599609375 1564.79980469 327.599609375 1615.79980469 258 c 128,-1,71
 1666.79980469 188.400390625 1666.79980469 188.400390625 1712.40039062 117.599609375 c 0,72,73
 1728 93.599609375 1728 93.599609375 1734.59960938 70.2001953125 c 128,-1,74
 1741.20019531 46.7998046875 1741.20019531 46.7998046875 1741.20019531 27.599609375 c 0,75,76
 1741.20019531 -4.7998046875 1741.20019531 -4.7998046875 1726.79980469 -28.7998046875 c 128,-1,77
 1712.40039062 -52.7998046875 1712.40039062 -52.7998046875 1692.59960938 -68.400390625 c 128,-1,78
 1672.79980469 -84 1672.79980469 -84 1651.79980469 -91.7998046875 c 128,-1,79
 1630.79980469 -99.599609375 1630.79980469 -99.599609375 1616.40039062 -99.599609375 c 0,80,81
 1576.79980469 -99.599609375 1576.79980469 -99.599609375 1541.40039062 -71.400390625 c 128,-1,82
 1506 -43.2001953125 1506 -43.2001953125 1480.79980469 0 c 1,83,84
 1443.59960938 49.2001953125 1443.59960938 49.2001953125 1419 84 c 128,-1,85
 1394.40039062 118.799804688 1394.40039062 118.799804688 1374 149.400390625 c 128,-1,86
 1353.59960938 180 1353.59960938 180 1333.79980469 212.400390625 c 128,-1,87
 1314 244.799804688 1314 244.799804688 1284.59960938 291 c 128,-1,88
 1255.20019531 337.200195312 1255.20019531 337.200195312 1212 402 c 128,-1,89
 1168.79980469 466.799804688 1168.79980469 466.799804688 1104 562.799804688 c 1,90,91
 1040.40039062 430.799804688 1040.40039062 430.799804688 967.799804688 310.799804688 c 128,-1,92
 895.200195312 190.799804688 895.200195312 190.799804688 814.799804688 99.599609375 c 128,-1,93
 734.400390625 8.400390625 734.400390625 8.400390625 646.799804688 -45 c 128,-1,94
 559.200195312 -98.400390625 559.200195312 -98.400390625 466.799804688 -98.400390625 c 0,95,96
 434.400390625 -98.400390625 434.400390625 -98.400390625 403.799804688 -90 c 128,-1,97
 373.200195312 -81.599609375 373.200195312 -81.599609375 345.599609375 -64.7998046875 c 0,0,1
EndSplineSet
EndChar

StartChar: L
Encoding: 76 76 47
Width: 614
VWidth: 2457
Flags: W
LayerCount: 2
Fore
SplineSet
391.200195312 250.799804688 m 0,0,1
 391.200195312 235.200195312 391.200195312 235.200195312 408 219 c 128,-1,2
 424.799804688 202.799804688 424.799804688 202.799804688 460.200195312 188.400390625 c 128,-1,3
 495.599609375 174 495.599609375 174 551.400390625 165 c 128,-1,4
 607.200195312 156 607.200195312 156 685.200195312 154.799804688 c 1,5,6
 649.200195312 174 649.200195312 174 612.599609375 195 c 128,-1,7
 576 216 576 216 542.400390625 233.400390625 c 128,-1,8
 508.799804688 250.799804688 508.799804688 250.799804688 481.200195312 262.200195312 c 128,-1,9
 453.599609375 273.599609375 453.599609375 273.599609375 434.400390625 273.599609375 c 0,10,11
 391.200195312 273.599609375 391.200195312 273.599609375 391.200195312 250.799804688 c 0,0,1
1458 1586.40039062 m 0,12,13
 1476 1622.40039062 1476 1622.40039062 1501.20019531 1650 c 128,-1,14
 1526.40039062 1677.59960938 1526.40039062 1677.59960938 1555.20019531 1695.59960938 c 128,-1,15
 1584 1713.59960938 1584 1713.59960938 1614 1722.59960938 c 128,-1,16
 1644 1731.59960938 1644 1731.59960938 1670.40039062 1731.59960938 c 0,17,18
 1708.79980469 1731.59960938 1708.79980469 1731.59960938 1735.20019531 1711.79980469 c 128,-1,19
 1761.59960938 1692 1761.59960938 1692 1761.59960938 1653.59960938 c 0,20,21
 1761.59960938 1623.59960938 1761.59960938 1623.59960938 1746 1588.79980469 c 0,22,23
 1678.79980469 1444.79980469 1678.79980469 1444.79980469 1609.20019531 1299 c 128,-1,24
 1539.59960938 1153.20019531 1539.59960938 1153.20019531 1469.40039062 1014 c 128,-1,25
 1399.20019531 874.799804688 1399.20019531 874.799804688 1332 745.799804688 c 128,-1,26
 1264.79980469 616.799804688 1264.79980469 616.799804688 1202.40039062 506.400390625 c 128,-1,27
 1140 396 1140 396 1085.40039062 308.400390625 c 128,-1,28
 1030.79980469 220.799804688 1030.79980469 220.799804688 986.400390625 163.200195312 c 1,29,30
 1090.79980469 170.400390625 1090.79980469 170.400390625 1177.20019531 182.400390625 c 128,-1,31
 1263.59960938 194.400390625 1263.59960938 194.400390625 1344 210 c 128,-1,32
 1424.40039062 225.599609375 1424.40039062 225.599609375 1505.40039062 244.200195312 c 128,-1,33
 1586.40039062 262.799804688 1586.40039062 262.799804688 1680 282 c 0,34,35
 1686 284.400390625 1686 284.400390625 1693.20019531 285.599609375 c 128,-1,36
 1700.40039062 286.799804688 1700.40039062 286.799804688 1706.40039062 286.799804688 c 0,37,38
 1743.59960938 286.799804688 1743.59960938 286.799804688 1765.20019531 257.400390625 c 128,-1,39
 1786.79980469 228 1786.79980469 228 1786.79980469 190.799804688 c 0,40,41
 1786.79980469 168 1786.79980469 168 1743.59960938 142.200195312 c 128,-1,42
 1700.40039062 116.400390625 1700.40039062 116.400390625 1625.40039062 91.2001953125 c 128,-1,43
 1550.40039062 66 1550.40039062 66 1449 42.599609375 c 128,-1,44
 1347.59960938 19.2001953125 1347.59960938 19.2001953125 1230 1.7998046875 c 128,-1,45
 1112.40039062 -15.599609375 1112.40039062 -15.599609375 984 -25.7998046875 c 128,-1,46
 855.599609375 -36 855.599609375 -36 728.400390625 -36 c 0,47,48
 580.799804688 -36 580.799804688 -36 474 -15.599609375 c 128,-1,49
 367.200195312 4.7998046875 367.200195312 4.7998046875 298.200195312 40.7998046875 c 128,-1,50
 229.200195312 76.7998046875 229.200195312 76.7998046875 196.200195312 126 c 128,-1,51
 163.200195312 175.200195312 163.200195312 175.200195312 163.200195312 232.799804688 c 0,52,53
 163.200195312 289.200195312 163.200195312 289.200195312 184.200195312 328.200195312 c 128,-1,54
 205.200195312 367.200195312 205.200195312 367.200195312 241.799804688 391.200195312 c 128,-1,55
 278.400390625 415.200195312 278.400390625 415.200195312 328.200195312 426 c 128,-1,56
 378 436.799804688 378 436.799804688 435.599609375 436.799804688 c 0,57,58
 482.400390625 436.799804688 482.400390625 436.799804688 532.799804688 420 c 128,-1,59
 583.200195312 403.200195312 583.200195312 403.200195312 631.799804688 376.200195312 c 128,-1,60
 680.400390625 349.200195312 680.400390625 349.200195312 724.200195312 316.200195312 c 128,-1,61
 768 283.200195312 768 283.200195312 800.400390625 249.599609375 c 1,62,63
 828 321.599609375 828 321.599609375 867 410.400390625 c 128,-1,64
 906 499.200195312 906 499.200195312 951.599609375 597 c 128,-1,65
 997.200195312 694.799804688 997.200195312 694.799804688 1047.59960938 797.400390625 c 128,-1,66
 1098 900 1098 900 1148.40039062 999.599609375 c 128,-1,67
 1198.79980469 1099.20019531 1198.79980469 1099.20019531 1246.79980469 1191.59960938 c 128,-1,68
 1294.79980469 1284 1294.79980469 1284 1335.59960938 1360.79980469 c 128,-1,69
 1376.40039062 1437.59960938 1376.40039062 1437.59960938 1408.20019531 1496.40039062 c 128,-1,70
 1440 1555.20019531 1440 1555.20019531 1458 1586.40039062 c 0,12,13
EndSplineSet
EndChar

StartChar: M
Encoding: 77 77 48
Width: 614
VWidth: 2457
Flags: W
LayerCount: 2
Fore
SplineSet
1782 85.2001953125 m 1,0,1
 1792.79980469 188.400390625 1792.79980469 188.400390625 1808.40039062 324 c 128,-1,2
 1824 459.599609375 1824 459.599609375 1842 607.799804688 c 128,-1,3
 1860 756 1860 756 1878.59960938 906 c 128,-1,4
 1897.20019531 1056 1897.20019531 1056 1915.20019531 1186.79980469 c 1,5,6
 1851.59960938 1064.40039062 1851.59960938 1064.40039062 1786.79980469 940.799804688 c 128,-1,7
 1722 817.200195312 1722 817.200195312 1663.79980469 706.200195312 c 128,-1,8
 1605.59960938 595.200195312 1605.59960938 595.200195312 1557 505.200195312 c 128,-1,9
 1508.40039062 415.200195312 1508.40039062 415.200195312 1478.40039062 360 c 1,10,11
 1450.79980469 322.799804688 1450.79980469 322.799804688 1423.20019531 289.200195312 c 128,-1,12
 1395.59960938 255.599609375 1395.59960938 255.599609375 1368.59960938 230.400390625 c 128,-1,13
 1341.59960938 205.200195312 1341.59960938 205.200195312 1315.20019531 190.200195312 c 128,-1,14
 1288.79980469 175.200195312 1288.79980469 175.200195312 1263.59960938 175.200195312 c 0,15,16
 1230 175.200195312 1230 175.200195312 1210.20019531 189.599609375 c 128,-1,17
 1190.40039062 204 1190.40039062 204 1190.40039062 232.799804688 c 0,18,19
 1190.40039062 238.799804688 1190.40039062 238.799804688 1191 244.200195312 c 128,-1,20
 1191.59960938 249.599609375 1191.59960938 249.599609375 1194 255.599609375 c 0,21,22
 1186.79980469 426 1186.79980469 426 1183.20019531 599.400390625 c 128,-1,23
 1179.59960938 772.799804688 1179.59960938 772.799804688 1179.59960938 940.799804688 c 0,24,25
 1179.59960938 980.400390625 1179.59960938 980.400390625 1179.59960938 1020 c 128,-1,26
 1179.59960938 1059.59960938 1179.59960938 1059.59960938 1180.79980469 1098 c 1,27,28
 1132.79980469 990 1132.79980469 990 1076.40039062 873.599609375 c 128,-1,29
 1020 757.200195312 1020 757.200195312 958.799804688 643.799804688 c 128,-1,30
 897.599609375 530.400390625 897.599609375 530.400390625 832.799804688 425.400390625 c 128,-1,31
 768 320.400390625 768 320.400390625 703.200195312 234.599609375 c 128,-1,32
 638.400390625 148.799804688 638.400390625 148.799804688 575.400390625 88.2001953125 c 128,-1,33
 512.400390625 27.599609375 512.400390625 27.599609375 454.799804688 3.599609375 c 0,34,35
 404.400390625 -16.7998046875 404.400390625 -16.7998046875 367.200195312 -25.7998046875 c 128,-1,36
 330 -34.7998046875 330 -34.7998046875 301.200195312 -34.7998046875 c 0,37,38
 258 -34.7998046875 258 -34.7998046875 237 -17.400390625 c 128,-1,39
 216 0 216 0 216 25.2001953125 c 0,40,41
 216 55.2001953125 216 55.2001953125 241.200195312 87.599609375 c 128,-1,42
 266.400390625 120 266.400390625 120 312 138 c 0,43,44
 367.200195312 159.599609375 367.200195312 159.599609375 432.599609375 233.400390625 c 128,-1,45
 498 307.200195312 498 307.200195312 567.599609375 412.799804688 c 128,-1,46
 637.200195312 518.400390625 637.200195312 518.400390625 708 648 c 128,-1,47
 778.799804688 777.599609375 778.799804688 777.599609375 845.400390625 910.799804688 c 128,-1,48
 912 1044 912 1044 970.799804688 1171.79980469 c 128,-1,49
 1029.59960938 1299.59960938 1029.59960938 1299.59960938 1075.20019531 1402.79980469 c 128,-1,50
 1120.79980469 1506 1120.79980469 1506 1150.20019531 1575 c 128,-1,51
 1179.59960938 1644 1179.59960938 1644 1186.79980469 1660.79980469 c 0,52,53
 1203.59960938 1698 1203.59960938 1698 1233.59960938 1714.79980469 c 128,-1,54
 1263.59960938 1731.59960938 1263.59960938 1731.59960938 1294.79980469 1731.59960938 c 0,55,56
 1338 1731.59960938 1338 1731.59960938 1354.79980469 1708.20019531 c 128,-1,57
 1371.59960938 1684.79980469 1371.59960938 1684.79980469 1371.59960938 1624.79980469 c 1,58,59
 1381.20019531 1549.20019531 1381.20019531 1549.20019531 1387.79980469 1482.59960938 c 128,-1,60
 1394.40039062 1416 1394.40039062 1416 1399.20019531 1345.79980469 c 128,-1,61
 1404 1275.59960938 1404 1275.59960938 1405.79980469 1194.59960938 c 128,-1,62
 1407.59960938 1113.59960938 1407.59960938 1113.59960938 1407.59960938 1008 c 0,63,64
 1407.59960938 932.400390625 1407.59960938 932.400390625 1404.59960938 841.200195312 c 128,-1,65
 1401.59960938 750 1401.59960938 750 1401.59960938 637.200195312 c 1,66,67
 1545.59960938 898.799804688 1545.59960938 898.799804688 1656.59960938 1098.59960938 c 128,-1,68
 1767.59960938 1298.40039062 1767.59960938 1298.40039062 1849.79980469 1433.40039062 c 128,-1,69
 1932 1568.40039062 1932 1568.40039062 1988.40039062 1637.40039062 c 128,-1,70
 2044.79980469 1706.40039062 2044.79980469 1706.40039062 2078.40039062 1706.40039062 c 2,71,-1
 2086.79980469 1706.40039062 l 2,72,73
 2090.40039062 1706.40039062 2090.40039062 1706.40039062 2094 1707 c 128,-1,74
 2097.59960938 1707.59960938 2097.59960938 1707.59960938 2101.20019531 1707.59960938 c 0,75,76
 2130 1707.59960938 2130 1707.59960938 2146.79980469 1671.59960938 c 128,-1,77
 2163.59960938 1635.59960938 2163.59960938 1635.59960938 2163.59960938 1578 c 0,78,79
 2158.79980469 1519.20019531 2158.79980469 1519.20019531 2149.20019531 1431.59960938 c 128,-1,80
 2139.59960938 1344 2139.59960938 1344 2127 1239 c 128,-1,81
 2114.40039062 1134 2114.40039062 1134 2100 1017.59960938 c 128,-1,82
 2085.59960938 901.200195312 2085.59960938 901.200195312 2071.20019531 786.599609375 c 128,-1,83
 2056.79980469 672 2056.79980469 672 2044.20019531 564 c 128,-1,84
 2031.59960938 456 2031.59960938 456 2023.20019531 368.400390625 c 0,85,86
 2020.79980469 352.799804688 2020.79980469 352.799804688 2020.79980469 336.599609375 c 128,-1,87
 2020.79980469 320.400390625 2020.79980469 320.400390625 2020.79980469 303.599609375 c 0,88,89
 2020.79980469 272.400390625 2020.79980469 272.400390625 2022 240.599609375 c 128,-1,90
 2023.20019531 208.799804688 2023.20019531 208.799804688 2023.20019531 177.599609375 c 0,91,92
 2023.20019531 141.599609375 2023.20019531 141.599609375 2019.59960938 105 c 128,-1,93
 2016 68.400390625 2016 68.400390625 1999.79980469 39 c 128,-1,94
 1983.59960938 9.599609375 1983.59960938 9.599609375 1948.79980469 -9 c 128,-1,95
 1914 -27.599609375 1914 -27.599609375 1852.79980469 -27.599609375 c 0,96,97
 1820.40039062 -27.599609375 1820.40039062 -27.599609375 1801.20019531 -3 c 128,-1,98
 1782 21.599609375 1782 21.599609375 1782 85.2001953125 c 1,0,1
EndSplineSet
EndChar

StartChar: N
Encoding: 78 78 49
Width: 614
VWidth: 2457
Flags: W
LayerCount: 2
Fore
SplineSet
1278 1616.40039062 m 0,0,1
 1297.20019531 1533.59960938 1297.20019531 1533.59960938 1316.40039062 1435.20019531 c 128,-1,2
 1335.59960938 1336.79980469 1335.59960938 1336.79980469 1354.20019531 1230.59960938 c 128,-1,3
 1372.79980469 1124.40039062 1372.79980469 1124.40039062 1391.40039062 1014.59960938 c 128,-1,4
 1410 904.799804688 1410 904.799804688 1428.59960938 798.599609375 c 128,-1,5
 1447.20019531 692.400390625 1447.20019531 692.400390625 1464.59960938 593.400390625 c 128,-1,6
 1482 494.400390625 1482 494.400390625 1500 410.400390625 c 1,7,8
 1621.20019531 649.200195312 1621.20019531 649.200195312 1733.40039062 862.799804688 c 128,-1,9
 1845.59960938 1076.40039062 1845.59960938 1076.40039062 1942.79980469 1246.20019531 c 128,-1,10
 2040 1416 2040 1416 2119.20019531 1535.40039062 c 128,-1,11
 2198.40039062 1654.79980469 2198.40039062 1654.79980469 2256 1706.40039062 c 0,12,13
 2281.20019531 1730.40039062 2281.20019531 1730.40039062 2308.79980469 1740 c 128,-1,14
 2336.40039062 1749.59960938 2336.40039062 1749.59960938 2362.79980469 1749.59960938 c 0,15,16
 2401.20019531 1749.59960938 2401.20019531 1749.59960938 2428.20019531 1730.40039062 c 128,-1,17
 2455.20019531 1711.20019531 2455.20019531 1711.20019531 2455.20019531 1681.20019531 c 0,18,19
 2455.20019531 1663.20019531 2455.20019531 1663.20019531 2449.20019531 1651.20019531 c 128,-1,20
 2443.20019531 1639.20019531 2443.20019531 1639.20019531 2430 1624.79980469 c 0,21,22
 2380.79980469 1568.40039062 2380.79980469 1568.40039062 2337.59960938 1521 c 128,-1,23
 2294.40039062 1473.59960938 2294.40039062 1473.59960938 2253 1421.40039062 c 128,-1,24
 2211.59960938 1369.20019531 2211.59960938 1369.20019531 2170.20019531 1304.40039062 c 128,-1,25
 2128.79980469 1239.59960938 2128.79980469 1239.59960938 2084.40039062 1149.59960938 c 0,26,27
 2030.40039062 1050 2030.40039062 1050 1976.40039062 945 c 128,-1,28
 1922.40039062 840 1922.40039062 840 1872 736.200195312 c 128,-1,29
 1821.59960938 632.400390625 1821.59960938 632.400390625 1775.40039062 535.200195312 c 128,-1,30
 1729.20019531 438 1729.20019531 438 1690.79980469 355.799804688 c 128,-1,31
 1652.40039062 273.599609375 1652.40039062 273.599609375 1621.20019531 209.400390625 c 128,-1,32
 1590 145.200195312 1590 145.200195312 1569.59960938 109.200195312 c 0,33,34
 1534.79980469 34.7998046875 1534.79980469 34.7998046875 1489.79980469 -1.2001953125 c 128,-1,35
 1444.79980469 -37.2001953125 1444.79980469 -37.2001953125 1407.59960938 -38.400390625 c 2,36,-1
 1399.20019531 -38.400390625 l 2,37,38
 1375.20019531 -37.2001953125 1375.20019531 -37.2001953125 1352.40039062 -28.7998046875 c 128,-1,39
 1329.59960938 -20.400390625 1329.59960938 -20.400390625 1310.40039062 -3.599609375 c 128,-1,40
 1291.20019531 13.2001953125 1291.20019531 13.2001953125 1277.40039062 39 c 128,-1,41
 1263.59960938 64.7998046875 1263.59960938 64.7998046875 1258.79980469 99.599609375 c 0,42,43
 1239.59960938 175.200195312 1239.59960938 175.200195312 1224.59960938 247.799804688 c 128,-1,44
 1209.59960938 320.400390625 1209.59960938 320.400390625 1196.40039062 396.599609375 c 128,-1,45
 1183.20019531 472.799804688 1183.20019531 472.799804688 1169.40039062 556.200195312 c 128,-1,46
 1155.59960938 639.599609375 1155.59960938 639.599609375 1140 738 c 128,-1,47
 1124.40039062 836.400390625 1124.40039062 836.400390625 1104.59960938 952.799804688 c 128,-1,48
 1084.79980469 1069.20019531 1084.79980469 1069.20019531 1058.40039062 1210.79980469 c 1,49,50
 1022.40039062 1090.79980469 1022.40039062 1090.79980469 970.799804688 947.400390625 c 128,-1,51
 919.200195312 804 919.200195312 804 856.799804688 658.200195312 c 128,-1,52
 794.400390625 512.400390625 794.400390625 512.400390625 722.400390625 376.200195312 c 128,-1,53
 650.400390625 240 650.400390625 240 571.200195312 134.400390625 c 128,-1,54
 492 28.7998046875 492 28.7998046875 408.599609375 -34.7998046875 c 128,-1,55
 325.200195312 -98.400390625 325.200195312 -98.400390625 241.200195312 -98.400390625 c 0,56,57
 226.799804688 -98.400390625 226.799804688 -98.400390625 207.599609375 -91.7998046875 c 128,-1,58
 188.400390625 -85.2001953125 188.400390625 -85.2001953125 171 -72.599609375 c 128,-1,59
 153.599609375 -60 153.599609375 -60 141.599609375 -42 c 128,-1,60
 129.599609375 -24 129.599609375 -24 129.599609375 -2.400390625 c 0,61,62
 129.599609375 14.400390625 129.599609375 14.400390625 136.200195312 28.2001953125 c 128,-1,63
 142.799804688 42 142.799804688 42 154.799804688 61.2001953125 c 0,64,65
 170.400390625 86.400390625 170.400390625 86.400390625 204 105 c 128,-1,66
 237.599609375 123.599609375 237.599609375 123.599609375 281.400390625 146.400390625 c 128,-1,67
 325.200195312 169.200195312 325.200195312 169.200195312 376.799804688 199.799804688 c 128,-1,68
 428.400390625 230.400390625 428.400390625 230.400390625 480 280.799804688 c 0,69,70
 508.799804688 308.400390625 508.799804688 308.400390625 548.400390625 379.799804688 c 128,-1,71
 588 451.200195312 588 451.200195312 634.200195312 549 c 128,-1,72
 680.400390625 646.799804688 680.400390625 646.799804688 730.200195312 763.799804688 c 128,-1,73
 780 880.799804688 780 880.799804688 828 999.599609375 c 128,-1,74
 876 1118.40039062 876 1118.40039062 919.200195312 1231.79980469 c 128,-1,75
 962.400390625 1345.20019531 962.400390625 1345.20019531 996.599609375 1435.79980469 c 128,-1,76
 1030.79980469 1526.40039062 1030.79980469 1526.40039062 1052.40039062 1587 c 128,-1,77
 1074 1647.59960938 1074 1647.59960938 1078.79980469 1660.79980469 c 0,78,79
 1090.79980469 1696.79980469 1090.79980469 1696.79980469 1117.79980469 1713.59960938 c 128,-1,80
 1144.79980469 1730.40039062 1144.79980469 1730.40039062 1176 1731.59960938 c 1,81,82
 1174.79980469 1731.59960938 1174.79980469 1731.59960938 1173.59960938 1730.40039062 c 1,83,84
 1177.20019531 1730.40039062 1177.20019531 1730.40039062 1181.40039062 1731 c 128,-1,85
 1185.59960938 1731.59960938 1185.59960938 1731.59960938 1189.20019531 1731.59960938 c 0,86,87
 1215.59960938 1731.59960938 1215.59960938 1731.59960938 1241.40039062 1705.79980469 c 128,-1,88
 1267.20019531 1680 1267.20019531 1680 1278 1616.40039062 c 0,0,1
EndSplineSet
EndChar

